<?xml version="1.0" encoding="utf-8"?>
<!-- Generator: Adobe Illustrator 26.0.1, SVG Export Plug-In . SVG Version: 6.00 Build 0)  -->
<svg version="1.1" id="レイヤー_1" xmlns="http://www.w3.org/2000/svg" xmlns:xlink="http://www.w3.org/1999/xlink" x="0px"
	 y="0px" viewBox="0 0 24 24" style="enable-background:new 0 0 24 24;" xml:space="preserve">
<style type="text/css">
	.st0{fill:#222F3E;}
	.st1{fill:#FFFFFF;}
</style>
<g>
	<path class="st0" d="M24,12c0-6.627418-5.3725834-12-12-12S0,5.372582,0,12c0,5.9895477,4.388227,10.9539871,10.125,11.854166
		V15.46875H7.078125V12H10.125V9.3562508c0-3.0075049,1.7915287-4.6687508,4.5325594-4.6687508
		c1.312932,0,2.6861906,0.234375,2.6861906,0.234375V7.875h-1.5131922C14.3398848,7.875,13.875,8.8000002,13.875,9.7489986V12
		h3.328125l-0.532032,3.46875H13.875v8.385416C19.6117725,22.9539871,24,17.9895477,24,12z"/>
	<path class="st1" d="M16.671093,15.46875L17.203125,12H13.875V9.7489986C13.875,8.8000002,14.3398848,7.875,15.8305578,7.875
		H17.34375V4.921875c0,0-1.3732586-0.234375-2.6861906-0.234375C11.9165287,4.6875,10.125,6.3487458,10.125,9.3562508V12H7.078125
		v3.46875H10.125v8.385416C10.7359505,23.9500332,11.3621311,24,12,24s1.2640495-0.0499668,1.875-0.145834V15.46875H16.671093z"/>
</g>
</svg>
