<?xml version="1.0" encoding="utf-8"?>
<!-- Generator: Adobe Illustrator 26.0.1, SVG Export Plug-In . SVG Version: 6.00 Build 0)  -->
<svg version="1.1" id="レイヤー_1" xmlns="http://www.w3.org/2000/svg" xmlns:xlink="http://www.w3.org/1999/xlink" x="0px"
	 y="0px" viewBox="0 0 22 22" style="enable-background:new 0 0 22 22;" xml:space="preserve">
<style type="text/css">
	.st0{fill:#FFFFFF;}
</style>
<g>
	<path class="st0" d="M11,1.981982c2.9371319,0,3.2850237,0.0112019,4.4449358,0.0641217
		c1.0724821,0.0489385,1.6549387,0.2281251,2.042552,0.3787637c0.513443,0.1995385,0.879879,0.4379315,1.2647877,0.8228395
		c0.3849258,0.3849247,0.6233177,0.7513616,0.8228569,1.2648067c0.1506386,0.3876114,0.3298264,0.9700689,0.3787632,2.0425348
		C20.0068169,7.7149763,20.0180187,8.0628691,20.0180187,11s-0.0112019,3.2850237-0.0641232,4.4449358
		c-0.0489368,1.0724821-0.2281246,1.6549387-0.3787632,2.042552c-0.1995392,0.513443-0.4379311,0.879879-0.8228397,1.2647877
		c-0.3849258,0.3849258-0.7513618,0.6233177-1.2648048,0.8228569c-0.3876133,0.1506386-0.9700699,0.3298264-2.042552,0.3787632
		C14.2851906,20.0068169,13.9373302,20.0180187,11,20.0180187s-3.2851906-0.0112019-4.4449358-0.0641232
		c-1.0724816-0.0489368-1.6549392-0.2281246-2.0425506-0.3787632c-0.5134451-0.1995392-0.8798821-0.4379311-1.2647898-0.8228397
		c-0.3849175-0.3849163-0.623318-0.7513618-0.8228564-1.2648048c-0.1506386-0.3876133-0.3298252-0.9700699-0.3787637-2.0425377
		C1.9931839,14.2850237,1.981982,13.9371319,1.981982,11s0.0112019-3.2850237,0.0641217-4.4449358
		C2.0950422,5.4825826,2.2742288,4.900125,2.4248674,4.5125136c0.1995385-0.5134451,0.4379315-0.8798821,0.8228395-1.2647898
		c0.3849247-0.3849249,0.7513616-0.623318,1.2648067-0.8228564C4.900125,2.2742288,5.4825826,2.0950422,6.5550485,2.0461037
		C7.7149763,1.9931839,8.0628691,1.981982,11,1.981982 M11,0C8.0125742,0,7.6379795,0.0126529,6.4647174,0.0661824
		c-1.1708441,0.0534261-1.970439,0.239376-2.6701498,0.511304C3.0712314,0.8585947,2.4577763,1.2347116,1.8462397,1.8462397
		c-0.611528,0.6115366-0.987645,1.2249917-1.2687533,1.9483279c-0.271928,0.6997108-0.4578779,1.4993057-0.511304,2.6701498
		C0.0126529,7.6379795,0,8.0125666,0,11c0,2.9874268,0.0126529,3.3620195,0.0661824,4.5352812
		c0.0534261,1.170846,0.239376,1.970439,0.511304,2.6701498c0.2811084,0.7233295,0.6572253,1.336792,1.2687533,1.948328
		c0.6115366,0.6115303,1.2249917,0.987648,1.9483279,1.268755c0.6997108,0.2719288,1.4993057,0.4578781,2.6701498,0.5113029
		C7.6379795,21.9873562,8.0125742,22,11,22s3.3620195-0.0126438,4.5352812-0.0661831
		c1.170846-0.0534248,1.970439-0.2393742,2.6701498-0.5113029c0.7233372-0.2811069,1.336792-0.6572247,1.948328-1.268755
		c0.6115303-0.611536,0.987648-1.2249908,1.268755-1.948328c0.2719288-0.6997108,0.4578781-1.4993038,0.5113029-2.6701498
		C21.9873466,14.3620195,22,13.9874268,22,11s-0.0126534-3.3620205-0.0661831-4.5352826
		c-0.0534248-1.1708441-0.2393742-1.970439-0.5113029-2.6701498c-0.2811069-0.7233362-0.6572247-1.3367913-1.268755-1.9483279
		c-0.611536-0.611528-1.2249908-0.987645-1.948328-1.2687533c-0.6997108-0.271928-1.4993038-0.4578779-2.6701498-0.511304
		C14.3620195,0.0126529,13.9874268,0,11,0L11,0z"/>
	<path class="st0" d="M11,5.3513513c-3.1196618,0-5.6486487,2.5289845-5.6486487,5.6486487S7.8803382,16.6486454,11,16.6486454
		S16.6486492,14.1196623,16.6486492,11S14.1196623,5.3513513,11,5.3513513z M11,14.6666641
		c-2.0250425,0-3.6666665-1.6416216-3.6666665-3.6666641c0-2.0250454,1.641624-3.6666665,3.6666665-3.6666665
		c2.0250454,0,3.666667,1.6416211,3.666667,3.6666665C14.666667,13.0250425,13.0250454,14.6666641,11,14.6666641z"/>
	<circle class="st0" cx="16.8718281" cy="5.1281719" r="1.3199999"/>
</g>
</svg>
