<?xml version="1.0" encoding="utf-8"?>
<!-- Generator: Adobe Illustrator 26.0.0, SVG Export Plug-In . SVG Version: 6.00 Build 0)  -->
<svg version="1.1" id="レイヤー_1" xmlns="http://www.w3.org/2000/svg" xmlns:xlink="http://www.w3.org/1999/xlink" x="0px"
	 y="0px" viewBox="0 0 180.0000305 180" style="enable-background:new 0 0 180.0000305 180;" xml:space="preserve">
<style type="text/css">
	.st0{fill:#FFFFFF;}
	.st1{display:none;}
	.st2{display:inline;}
	.st3{display:none;fill:#FFFFFF;}
</style>
<g>
	<g>
		<g>
			<path class="st0" d="M53.1948395,102.1570511V76.75383h4.6755333v25.4032211H53.1948395z"/>
			<path class="st0" d="M67.9107895,102.301918c-2.3752365,0-3.5990677-0.5769501-4.3183784-1.441124
				c-0.3596573-0.4295883-0.5045166-0.8616791-0.5394859-1.0415039c-0.1798286-0.5769501-0.2172928-1.8357468-0.2172928-3.4192352
				v-9.1762314H60.21064V84.166748h2.6249924v-6.4038773h4.3183823v6.4038773h3.8488235v3.0570755h-3.8488235v8.169693
				c0,0.7193146-0.107399,2.0855103,0.4320831,2.6624527c0.5045166,0.5744553,1.5460281,0.5394897,1.6559219,0.5394897
				c0.6119156,0,1.2213287-0.0724335,1.7608185-0.2172928v3.6340256
				C70.4283829,102.0846252,69.3843842,102.301918,67.9107895,102.301918z"/>
			<path class="st0" d="M85.4315643,102.1570511l-0.0349731-1.8357468
				c-0.8991394,0.8292084-2.6624527,2.2678375-5.7944641,2.2678375c-2.9846497,0-4.4607391-1.2962646-5.1800537-2.3752289
				c-1.1514053-1.6908875-1.0440063-3.7414246-1.0440063-5.6845703V84.166748h4.3533478v9.7157135
				c0,1.4735947-0.0699387,3.236908,1.441124,4.1010818c0.5744476,0.3596573,1.4011612,0.5394821,2.0855103,0.5394821
				c2.0880051,0,3.1320038-1.3661957,3.4916611-2.0155716c0.7193146-1.3661957,0.6818542-3.3093414,0.6818542-4.7129974V84.166748
				h4.3183746v17.990303H85.4315643z"/>
			<path class="st0" d="M105.4424591,102.1570511v-1.7258453c-0.1798325,0.1798248-0.322197,0.3946228-0.5020218,0.5744476
				c-0.6843491,0.6468811-2.1604385,1.6908875-4.4982071,1.6908875c-0.6119156,0-1.9081802-0.0724335-3.3468018-0.7542801
				c-1.9431458-0.9016418-4.6405716-3.2394028-4.6405716-8.4194565c0-5.5072327,2.9846497-8.3495178,5.0376892-9.2836304
				c0.5744553-0.2522583,1.618454-0.611908,3.129509-0.611908c0.6119156,0,1.9056854,0.0349655,3.2743759,0.7917404
				c0.2522583,0.1423645,0.4670563,0.2522583,0.8991394,0.5744476c0.3246918,0.2522583,0.5744553,0.5769501,0.6468887,0.6493835
				V76.75383h4.2834091v25.4032211H105.4424591z M104.6157455,89.5266266
				c-0.214798-0.3946228-0.6119156-0.8616791-0.9366074-1.1139374c-0.7193146-0.5769501-1.511055-0.7917404-2.4101944-0.7917404
				c-0.3596573,0-1.2937698,0.0724258-2.1954041,0.6468811c-2.0505447,1.3312225-2.1229782,4.2459412-2.1229782,4.7854233
				c0,2.6624527,1.1164398,5.7220306,4.2834091,5.7220306c1.1514053,0,2.0505447-0.3596573,2.8048248-1.2238312
				c1.1164322-1.2238312,1.4036636-2.6974182,1.3686905-4.318367
				C105.407486,92.0816803,105.2276611,90.6080933,104.6157455,89.5266266z"/>
			<path class="st0" d="M128.4355011,99.999115c-1.0090332,0.9341049-3.4192352,2.6974258-7.1256943,2.6974258
				c-1.1513977,0-3.9936905-0.1448669-6.4388504-2.410202c-2.0530396-1.9431381-2.8073196-4.425766-2.8073196-7.2330856
				c0-1.511055,0.2147903-2.9496765,0.7917404-4.3183746c0.791748-1.7982788,3.0221176-5.1076126,8.2396317-5.1076126
				c4.028656,0,6.1516266,2.0855026,7.0882339,3.4541931c0.8267059,1.2587967,1.6534271,3.4542007,1.7633209,6.943367h-13.3147888
				c0.0724258,0.5394821,0.2522583,1.6559143,1.1513977,2.7348862c0.6119156,0.7567749,1.6933823,1.7283478,3.9237518,1.7283478
				c2.2303772,0,3.5241394-1.0440063,4.1010895-1.6559143c0.1448593-0.1448669,0.3596573-0.4320908,0.6119156-0.8267136
				l3.6689987,2.1229706C129.8016968,98.5230255,129.2971802,99.2073746,128.4355011,99.999115z M124.836441,89.3842621
				c-0.3946228-0.8641739-1.3312302-2.302803-3.6689987-2.302803c-0.9366074,0-1.441124,0.1798325-1.8007812,0.322197
				c-2.0130768,0.8292084-2.4826279,2.84478-2.5900269,3.4541931h8.4194641
				C125.1960983,90.8578491,125.0886993,89.9961777,124.836441,89.3842621z"/>
		</g>
	</g>
	<g class="st1">
		<g class="st2">
			<path class="st0" d="M33.0965271,58.4962807c0.6993332,1.2538033,1.8332481,3.9712067,0.3596573,7.4878426
				c-0.2497635,0.5969315-0.8916512,1.9880981-2.2153854,3.2094345c-1.7733078,1.5859833-5.2724667,3.2668762-10.4500237,1.0989456
				c-0.9416008-0.3946228-3.444212-1.4436188-5.0726566-4.0161591c-0.8616772-1.3537064-2.2003994-4.2734146-0.5919352-8.1097488
				c1.3986654-3.3468018,3.7963762-4.408287,5.2424955-4.7379723c1.0814667-0.2147942,2.095499-0.1998062,3.1345062-0.1123924
				l-0.5170059,3.5965652c-0.2322788-0.0649414-0.8441944-0.2048073-1.5734978-0.1323738
				c-1.5185509,0.1498566-2.71241,1.1938591-3.2693787,2.590023c-0.4146042,0.9915543-0.4071102,1.8082733-0.3796368,2.2253723
				c0.1048985,1.5635071,1.1663857,3.7539139,4.4382629,5.1226044c0.4945278,0.2073059,2.5850315,1.0539932,4.5731335,0.6918411
				c0.6643658-0.1298752,1.286272-0.3646545,1.818264-0.7218094c1.1513996-0.7417908,1.6634121-1.7508316,1.8582249-2.2228775
				c0.5719547-1.3611984,0.4520683-2.605011-0.2347755-3.8862877c-0.277235-0.5219994-0.6818485-1.0140305-0.7767582-1.1364136
				c-0.1823254-0.1948128-0.347168-0.3521614-0.731802-0.6893387l2.5850334-2.5550575
				C32.0300446,56.9427643,32.5795212,57.5821533,33.0965271,58.4962807z"/>
			<path class="st0" d="M44.7753754,47.6891098l-7.797554-1.6234474l-2.0430489,2.4601479l5.4148293,4.493206l-2.2453575,2.7099113
				L23.513176,43.618l4.9552689-5.9742889c0.5494766-0.661869,2.2403622-2.5725403,5.0376892-2.4526558
				c1.8207626,0.0799217,3.1145287,1.0864601,3.589077,1.4810829c0.2272797,0.1873207,0.9341049,0.809227,1.4111519,1.6234474
				c0.4096069,0.724308,1.0864601,2.4726372,0.2147942,4.5756302l8.6442451,1.6958771L44.7753754,47.6891098z
				 M32.2023811,38.8225822c-0.7043285,0.2197914-1.2912674,0.6718597-2.2503529,1.8307533l-1.8357468,2.212883l4.54566,3.7713966
				l0.8067284-0.9715729c1.3212395-1.5884819,2.1429558-2.582531,2.3427658-3.5341225
				c0.1148911-0.6019249,0.1423645-1.7308464-1.0340118-2.7099075
				C34.4052773,39.1148033,33.5036392,38.4354553,32.2023811,38.8225822z"/>
			<path class="st0" d="M49.8405418,42.623951L39.145752,26.9589214l11.1393661-7.6027336l1.7882919,2.619997l-8.2546196,5.6346149
				l2.5125999,3.6789837l7.5677757-5.1625671l1.725853,2.5275841L48.059742,33.822361l2.8622665,4.1959915l8.8090897-6.0142517
				l1.8032799,2.6374779L49.8405418,42.623951z"/>
			<path class="st0" d="M75.7533035,29.7837219l-2.1579437-3.2094326l-6.7885208,2.1279659l0.0574493,3.8663063l-3.636528,1.141407
				l0.4520683-20.0033798l3.8438301-1.2038498l11.8411942,16.147068L75.7533035,29.7837219z M66.674469,16.3415699
				l0.0974045,9.1087933l4.9952316-1.5660019L66.674469,16.3415699z"/>
			<path class="st0" d="M85.9560623,12.6251211l1.3387222,15.7074881l-3.5316315,0.2997131l-1.3387222-15.7049894
				l-5.1375961,0.4370823L77.014595,10.182456l13.8867416-1.1813707l0.2722397,3.1819582L85.9560623,12.6251211z"/>
			<path class="st0" d="M94.3205719,28.1477852l3.2369156-18.6721535l13.2798157,2.3027992l-0.5419769,3.122016
				l-9.8381119-1.7058697l-0.7617722,4.3883066l9.0188904,1.5635052l-0.524498,3.0171165l-9.0188904-1.5660038l-0.8641739,5.0002213
				l10.4974747,1.8207607l-0.5469742,3.1469917L94.3205719,28.1477852z"/>
			<path class="st0" d="M135.1141205,27.0338497L126.232605,40.048912l-2.9272003-1.9980927l8.8840179-13.0100632
				l-4.2559357-2.9047241l1.7982788-2.6399784l11.5065155,7.8524952L139.4375,29.983532L135.1141205,27.0338497z"/>
			<path class="st0" d="M139.722229,53.1813622l6.5562439-5.6046448l-5.2874603-6.1890869l-6.5562286,5.6046448
				l-2.3202972-2.7174034l14.4212341-12.3207245l2.320282,2.7174034l-5.4347992,4.640564l5.2874451,6.1915817l5.4348145-4.6430588
				l2.320282,2.7149048L142.042511,55.8987617L139.722229,53.1813622z"/>
			<path class="st0" d="M143.9831543,59.3329811l17.3084869-7.715126l5.4847565,12.3082352l-2.8922424,1.2887688
				l-4.0661163-9.1187859l-4.0686188,1.8132706l3.7264557,8.3595085l-2.7948456,1.2488098l-3.7264404-8.362011l-4.6330719,2.0655251
				l4.3383636,9.7332001l-2.9172211,1.2987595L143.9831543,59.3329811z"/>
			<path class="st0" d="M151.6758118,96.762207l13.5745392-7.8125305l-13.2848053-0.2597504l0.1248779-3.4616928
				l18.9369202,0.6818466l-0.1123962,3.1894531l-13.6619568,7.9149323l13.3747253,0.0549469l-0.1248779,3.4841766
				l-18.9369202-0.6793518L151.6758118,96.762207z"/>
			<path class="st0" d="M150.6617889,104.052742l17.9553528,6.0492172l-4.3008881,12.7677994l-3.0021362-1.0090332
				l3.1894531-9.4634628l-4.223465-1.4211349l-2.9197235,8.6717072l-2.8997192-0.9765625l2.9197083-8.6742096l-4.8054199-1.6159592
				l-3.4017487,10.097847l-3.0271149-1.0215225L150.6617889,104.052742z"/>
			<path class="st0" d="M135.6561127,132.602951l2.4626465-3.3218231l12.1733704,5.7195282l-8.9564362-10.052887
				l2.4626465-3.3218231l17.5757141,8.1222382l-2.1604309,2.9097137l-13.1374664-6.5337524l9.8456116,10.977005
				l-1.9681244,2.6549683l-13.3947144-6.1915894l10.0179291,10.7397461l-2.175415,2.9321899L135.6561127,132.602951z"/>
			<path class="st0" d="M112.325882,149.9388885c1.1963577-2.7398834,3.9312515-4.1135712,4.7030106-4.4932098
				c1.0115356-0.499527,4.2884064-2.0480347,7.8699875-0.7268066c0.4420776,0.1723328,0.9565887,0.4295959,1.3637009,0.7043304
				l-1.7633209,3.174469c-1.2937622-0.7442932-3.4017487-1.5035706-6.5337601,0.0349579
				c-0.1423645,0.0724335-0.746788,0.367157-1.1938629,0.7342987c-0.3271866,0.2522583-1.7658081,1.5260468-0.9840546,3.1145325
				c0.0849152,0.1723328,0.3321762,0.6194,0.8142166,0.8641663c0.9540939,0.4845428,2.6050186-0.0574341,3.5416183-0.2747345
				l2.2503586-0.5394897c0.9615784-0.2322693,1.998085-0.5020142,2.9696579-0.4720459
				c0.9965515,0.0174866,3.1669769,0.2997131,4.375824,2.75737c0.1873169,0.3846283,0.6843414,1.5185394,0.5794525,2.827301
				c-0.1323853,1.6783905-1.2538147,4.0835876-4.7005157,5.7769775c-1.5185547,0.7467804-4.6255875,1.973114-8.5618286-0.0724335
				l1.6684113-3.2418976c0.9440994,0.5819397,2.9771576,1.6758881,5.6546021,0.3621521
				c0.1673355-0.082428,2.3252792-1.1114349,2.3727341-2.7798462c0.0124893-0.3371735-0.0549469-0.5994263-0.1873245-0.8641815
				c-0.1423645-0.2897186-0.3321838-0.4970245-0.594429-0.6668549c-0.7542801-0.4945221-1.8007812-0.2497559-3.5316315,0.1798248
				l-1.9481354,0.479538c-1.7932892,0.4295959-3.8138657,0.8242188-5.5971603,0.0549469
				c-0.7417908-0.2922211-1.625946-0.814209-2.3977127-2.3802185
				C111.738945,152.9485168,111.6415405,151.5323639,112.325882,149.9388885z"/>
			<path class="st0" d="M103.8714523,166.7278442l-3.1594772-15.4402466l3.4741821-0.7118225l3.1569824,15.4402466
				l5.0501785-1.0290222l0.639389,3.1295166l-13.6519623,2.7923279l-0.6418915-3.1345062L103.8714523,166.7278442z"/>
			<path class="st0" d="M82.4593964,151.9394684l0.9366074,3.7514191l7.1132126,0.3197021l1.2637939-3.6565094l3.8113556,0.1698303
				l-7.2580719,18.6621704l-4.0261536-0.1773376l-5.6271286-19.2366028L82.4593964,151.9394684z M86.4106293,167.6869202
				l3.0196152-8.6067657l-5.2350006-0.234787L86.4106293,167.6869202z"/>
			<path class="st0" d="M65.1159592,147.1815186l3.3293228,15.3028717l4.2784119-12.5804749l3.2593842,1.1663971
				l-6.3888931,17.8429413l-3.0071335-1.0764771l-3.4042473-15.4177551l-4.1010857,12.727829l-3.2843666-1.1763763
				l6.3864059-17.8379517L65.1159592,147.1815186z"/>
			<path class="st0" d="M49.7331429,138.1501465c1.6134605,0.5869446,2.6599617,1.3836823,4.006176,2.4076996l4.8129044,3.6515198
				l-11.4665527,15.1005707l-5.4098358-4.1085815c-0.6843452-0.5220032-1.4860802-1.1963501-2.0530396-1.8282471
				c-0.6343918-0.7193146-1.8857002-2.4451599-1.9131737-5.0301971c0.0024986-1.3786774,0.3871307-3.7514191,2.4176941-6.4263611
				C42.4001427,138.924408,45.8468552,136.7864532,49.7331429,138.1501465z M41.4235764,149.4468536
				c0.0949097,0.4096069,0.3171959,1.1813812,0.9665794,2.0130768c0.5794449,0.7467957,0.9815598,1.0165253,2.3077965,2.0230713
				l1.4985695,1.1364136l7.6002426-10.0079346l-0.7492867-0.5669556c-1.5185471-1.1539001-2.4326744-1.8157654-3.1969452-2.2278748
				c-0.4345856-0.2272797-1.6334419-0.8691711-3.1170235-0.5120087c-1.8507347,0.4820404-3.481678,2.7149048-3.6290359,2.9097137
				C41.4010963,146.4597168,41.1738167,148.1755676,41.4235764,149.4468536z"/>
			<path class="st0" d="M37.2675438,123.2194214l-2.3327713,3.0895462l4.2209702,5.7295303l3.6390266-1.3137512l2.2628365,3.0745697
				l-19.076786,6.0741882l-2.3902168-3.2393951l11.4290886-16.4617767L37.2675438,123.2194214z M27.5018673,136.187027
				l8.5893002-3.0570831l-3.1070328-4.2184601L27.5018673,136.187027z"/>
			<path class="st0" d="M30.346653,107.7267303l-5.3324089,5.9068527l1.0914574,2.9996338l6.6086884-2.4027023l1.201355,3.3043442
				l-17.8055,6.4788055l-2.6524687-7.2880325c-0.2947178-0.8067322-1.0889597-3.2319107,0.4245949-5.5821686
				c0.986558-1.5285416,2.5051088-2.1404495,3.0870523-2.3527527c0.277235-0.0998993,1.1688843-0.3946228,2.1104851-0.3946228
				c0.8342037,0.0099945,2.6849365,0.3072052,4.0586262,2.1229706l5.8244381-6.6061859L30.346653,107.7267303z
				 M16.3575077,114.0981369c-0.1648426,0.7193146-0.0699329,1.4536133,0.4420776,2.8672638l0.9840603,2.6999207l5.547205-2.018074
				l-0.4295902-1.1888657c-0.7068253-1.9406433-1.1464062-3.1519852-1.8707142-3.8013611
				c-0.4595604-0.4046173-1.4186459-0.9965515-2.8572712-0.4745483
				C17.718708,112.3448181,16.6797009,112.7843933,16.3575077,114.0981369z"/>
			<path class="st0" d="M27.3969688,89.8762894c0.5819435,1.6134567,0.639389,2.9297028,0.7143173,4.6180878l0.2672443,6.0392303
				l-18.9419136,0.8391953l-0.3022118-6.791008c-0.0374641-0.8591843-0.0299711-1.9056778,0.0949097-2.7448807
				c0.1448612-0.9465942,0.6718578-3.0121155,2.642477-4.6880188c1.0614862-0.879158,3.1320095-2.1004944,6.4838095-2.2478485
				C22.1120148,84.7337036,25.9608402,86.0149841,27.3969688,89.8762894z M13.4003315,90.7129898
				c-0.2547569,0.3346786-0.7093229,0.9990463-0.9316111,2.0305634c-0.2023067,0.9216156-0.1548519,1.4061508-0.0799236,3.0670624
				l0.0824213,1.8782043l12.5580101-0.5569611l-0.0424595-0.9391022c-0.0824203-1.903183-0.162344-3.0296097-0.3321819-3.8812943
				c-0.1024017-0.4820404-0.37714-1.8132629-1.6009712-2.7273941c-1.5535164-1.1114349-4.3158798-0.9366074-4.5556507-0.924118
				C15.6806545,88.7848358,14.2170515,89.7089462,13.4003315,90.7129898z"/>
		</g>
	</g>
	<path class="st3" d="M89.9997025,146.7119751c-31.2701492,0-56.7108574-25.4406891-56.7108574-56.7108078
		c0-31.2726097,25.4407082-56.713295,56.7108574-56.713295s56.7108536,25.4406853,56.7108536,56.713295
		C146.710556,121.271286,121.2698441,146.7119751,89.9997025,146.7119751z M89.9997025,34.4417686
		c-30.633255,0-55.5569611,24.9236832-55.5569611,55.5593987c0,30.6332245,24.9237061,55.5569077,55.5569611,55.5569077
		s55.5569534-24.9236832,55.5569534-55.5569077C145.5566559,59.3654518,120.6329498,34.4417686,89.9997025,34.4417686z"/>
	<path class="st3" d="M89.9997025,3.0027552c48.0472488,0,86.9975662,38.950119,86.9975662,86.9973221
		s-38.9503174,86.9971619-86.9975662,86.9971619S3.0027583,138.047287,3.0027583,90.0000763
		S41.952446,3.0027552,89.9997025,3.0027552 M89.9997025,0C40.3739548,0,0,40.3739128,0,90.0000763S40.3739548,180,89.9997025,180
		c49.6263657,0,90.0003281-40.373764,90.0003281-89.9999237S139.6260681,0,89.9997025,0L89.9997025,0z"/>
</g>
</svg>
