<?xml version="1.0" encoding="utf-8"?>
<!-- Generator: Adobe Illustrator 25.4.1, SVG Export Plug-In . SVG Version: 6.00 Build 0)  -->
<svg version="1.1" id="レイヤー_1" xmlns="http://www.w3.org/2000/svg" xmlns:xlink="http://www.w3.org/1999/xlink" x="0px"
	 y="0px" viewBox="0 0 203.7128906 29.2749023" style="enable-background:new 0 0 203.7128906 29.2749023;" xml:space="preserve">
<style type="text/css">
	.st0{fill:#FFFFFF;}
</style>
<g>
	<g>
		<path class="st0" d="M0,13.6777344V7.7587891C0,3.5991211,2.0390625,0.5996094,6.3183594,0v2.8393555
			C4.1591797,3.4794922,3.8388672,4.9589844,3.7988281,6.9985352h2.5195312v6.6791992H0z M9.1982422,13.6777344V7.7587891
			c0-4.159668,2.0800781-7.1591797,6.3193359-7.7587891v2.8393555c-2.1601562,0.6401367-2.4794922,2.1196289-2.5195312,4.1591797
			h2.5195312v6.6791992H9.1982422z"/>
		<path class="st0" d="M32.9482422,28.5151367v-1.9594727c-2.2792969,2.3193359-4.4384766,2.5195312-5.5585938,2.5195312
			c-4.9189453,0-9.0380859-3.7993164-9.0380859-10.8383789c0-6.1987305,3.0390625-11.1582031,8.7177734-11.1582031
			c2.9199219,0,4.7197266,1.4799805,5.5195312,2.1196289v-8.918457h5.9589844v28.2353516H32.9482422z M28.5498047,24.515625
			c3.9990234,0,4.1591797-5.2788086,4.1591797-6.2788086c0-2.5996094-0.4804688-6.559082-3.8398438-6.559082
			c-3.2792969,0-4.2792969,3.5595703-4.2792969,6.519043C24.5898438,20.0366211,24.9902344,24.515625,28.5498047,24.515625z"/>
		<path class="st0" d="M48.3808594,19.3564453v0.2402344c0,2.7993164,1.9199219,4.9589844,4.7597656,4.9589844
			c2.9189453,0,4.6386719-1.9995117,5.2783203-3.7192383l4.6396484,2.3994141
			c-2.359375,3.9594727-6.0791016,6.0390625-10.3984375,6.0390625c-6.3583984,0-10.5576172-4.0390625-10.5576172-10.7978516
			c0-5.2392578,2.5585938-11.4785156,10.7177734-11.4785156c7.8388672,0,10.4785156,6.2792969,10.4785156,12.078125v0.2797852
			H48.3808594z M56.9394531,15.5170898c-0.0800781-2.3193359-1.6396484-4.1191406-4.1591797-4.1191406
			c-2.9199219,0-4.1191406,2.4394531-4.3994141,4.1191406H56.9394531z"/>
		<path class="st0" d="M66.5771484,28.5151367V0.2797852h6.1191406v28.2353516H66.5771484z"/>
		<path class="st0" d="M77.4130859,5.0390625V0.2797852h6.1191406v4.7592773H77.4130859z M77.4130859,28.5151367V7.6386719
			h6.1191406v20.8764648H77.4130859z"/>
		<path class="st0" d="M106.7167969,23.5961914c-2.359375,4.1191406-6.078125,5.5986328-9.2783203,5.5986328
			c-4.8789062,0-10.3583984-3.1191406-10.3583984-10.9580078c0-8.3583984,5.7597656-11.1982422,10.4785156-11.1982422
			c1.8798828,0,5.9990234,0.3999023,8.9189453,5.0395508l-4.5595703,2.5991211
			c-0.5595703-1.159668-1.6796875-2.9194336-4.0791016-2.9194336c-3.2792969,0-4.4394531,3.7592773-4.4394531,6.2792969
			c0,2.6391602,1.2402344,6.2788086,4.6396484,6.2788086c2.3994141,0,3.5986328-1.7998047,4.0390625-3.1196289
			L106.7167969,23.5961914z"/>
		<path class="st0" d="M109.4082031,5.0390625V0.2797852h6.1191406v4.7592773H109.4082031z M109.4082031,28.5151367V7.6386719
			h6.1191406v20.8764648H109.4082031z"/>
		<path class="st0" d="M130.2539062,29.1552734c-5.4384766,0-11.1982422-2.9599609-11.1982422-11.1982422
			c0-5.2792969,3.2001953-10.9584961,10.9990234-10.9584961c8.7578125,0,11.4375,6.0791016,11.4375,11.078125
			C141.4921875,24.8359375,137.2529297,29.1552734,130.2539062,29.1552734z M130.0146484,11.8779297
			c-2.3203125,0-4.7597656,1.7597656-4.7597656,6.1191406c0,3.4794922,1.4804688,6.2387695,5.0791016,6.2387695
			c3.3994141,0,4.9199219-2.8393555,4.9199219-5.9589844C135.2539062,13.8374023,133.3740234,11.8779297,130.0146484,11.8779297z"/>
		<path class="st0" d="M157.4980469,28.5151367v-1.9594727c-0.5595703,0.7998047-2.6396484,2.5595703-6.0791016,2.5595703
			c-4.5986328,0-6.5585938-2.3198242-6.5585938-7.4790039V7.6386719h6.1992188v13.3979492
			c0,1.3994141,0.4794922,3.0791016,2.9589844,3.0791016s3.5195312-1.5195312,3.5195312-3.4394531V7.6386719h6.1191406v20.8764648
			H157.4980469z"/>
		<path class="st0" d="M181.7851562,13.5976562c-1.3603516-1.1196289-3.359375-2.0795898-5.3193359-2.0795898
			c-1.3203125,0-2.8798828,0.4399414-2.8798828,1.5996094c0,1,0.9599609,1.3198242,3.3994141,1.7998047l1.4794922,0.2797852
			c4.5195312,0.8398438,7.5195312,2.6796875,7.5195312,6.559082c0,5.1992188-5.5195312,7.2788086-9.8789062,7.2788086
			c-5.1992188,0-8.5986328-2.3999023-10.1181641-4.0395508l3.8798828-3.519043
			c1.5195312,1.5996094,3.8388672,2.8793945,6.078125,2.8793945c2.0400391,0,3.7197266-0.7202148,3.7197266-2.0395508
			c0-1.1601562-1.0800781-1.4799805-3.3193359-1.8398438l-1.8798828-0.3198242
			c-4.9589844-0.8398438-6.9990234-2.9995117-6.9990234-6.1992188c0-3.5595703,2.9599609-6.9985352,8.8388672-6.9985352
			c3.5595703,0,6.7587891,1.199707,9.2783203,3.1191406L181.7851562,13.5976562z"/>
		<path class="st0" d="M194.5136719,0.2797852v5.9990234c0,3.7592773-2.0791016,7.1987305-6.3183594,7.6386719V11.078125
			c2.1591797-0.6801758,2.4794922-2.0795898,2.5195312-4.1191406h-2.5195312V0.2797852H194.5136719z M203.7128906,0.2797852
			v5.9189453c0,3.4794922-1.7197266,7.1987305-6.3193359,7.71875V11.078125
			c2.1601562-0.6801758,2.4794922-2.0795898,2.5195312-4.1191406h-2.5195312V0.2797852H203.7128906z"/>
	</g>
</g>
</svg>
