<?xml version="1.0" encoding="utf-8"?>
<!-- Generator: Adobe Illustrator 25.4.1, SVG Export Plug-In . SVG Version: 6.00 Build 0)  -->
<svg version="1.1" id="レイヤー_1" xmlns="http://www.w3.org/2000/svg" xmlns:xlink="http://www.w3.org/1999/xlink" x="0px"
	 y="0px" viewBox="0 0 203 150.4398499" style="enable-background:new 0 0 203 150.4398499;" xml:space="preserve">
<style type="text/css">
	.st0{fill:#FFFFFF;}
</style>
<g>
	<path class="st0" d="M20.9258537,7.0771589v34.9117088h-7.8506098V7.0771589H1.6561748V0h30.8668842v7.0771589H20.9258537z"/>
	<path class="st0" d="M64.4599152,41.9888687V22.8978958H46.4394798v19.0909729h-7.9103661V0h7.9103661v15.8201685h18.0204353V0
		h7.9103699v41.9888687H64.4599152z"/>
	<path class="st0" d="M81.764946,41.9888687V0h29.8561096v7.0179691H89.4966125v9.872736h20.2804565v6.7800732H89.4966125
		v11.2403622h23.6110153v7.0777283H81.764946z"/>
	<path class="st0" d="M30.030262,95.6790924l-0.0574837-3.5684586c-3.2537289,3.1524277-6.5649395,4.6389999-11.0753117,4.6389999
		c-2.4552364,0-8.0498066-0.3568497-12.9027977-5.2929306C3.6538289,89.0179672,0,83.7842331,0,75.1009827
		c0-5.3526917,1.5417792-10.9432755,4.738595-15.1662369c1.8269143-2.3789749,6.6229916-7.3150558,14.786624-7.3150558
		c1.1416798,0,3.7113113,0.1189461,6.6224232,1.2492447c2.626545,1.0699692,7.7077579,3.8655434,10.3337345,11.1214142
		l-7.193264,2.9737167c-0.6852341-2.0221329-2.7978535-8.2672195-9.8198071-8.2672195
		c-1.37047,0-4.5672855,0.2378998-7.2507439,3.0334778c-1.9407415,2.0818863-3.9964466,5.6503448-3.9964466,12.1327591
		c0,1.724472,0,8.0293198,4.6247683,12.0735703c1.9982233,1.724472,4.2246675,2.3789749,6.7937307,2.3789749
		c3.9964466,0,7.5358791-2.0226974,9.0776596-5.9474335c0.3420486-0.8332062,0.6277523-1.8439865,0.8559742-3.7471695H19.525219
		v-6.8990173h16.9561577v22.9570847H30.030262z"/>
	<path class="st0" d="M67.0050735,95.6790924L58.73843,80.0968246h-7.0777283v15.5822678h-7.79142V53.6902275h17.1883621
		c1.9031754,0,7.5529518,0.1787071,11.3001213,5.1147881c2.4381561,3.2116165,2.5576782,6.8392639,2.5576782,8.2074585
		c0,0.6545029-0.059761,2.735817-0.7734528,4.6987534c-0.6539307,1.724472-2.6766281,5.3521194-7.4937592,6.8392639
		l9.3371811,17.1286011H67.0050735z M64.3284454,61.7195435c-1.3676262-0.8923988-2.9731483-1.2492447-6.3037071-1.2492447
		h-6.3640366v13.0843506h2.7955742c4.5792389,0,7.4340057,0,9.3371849-1.0113525
		c1.1894875-0.6539307,3.1518517-2.200264,3.1518517-5.5900116C66.9453125,65.8821793,66.8269348,63.3848228,64.3284454,61.7195435z
		"/>
	<path class="st0" d="M81.5150986,95.6790924V53.6902275h29.8561096v7.0179672H89.2467575v9.8727379h20.2810287v6.7800751
		H89.2467575v11.2409286h23.6115952v7.0771561H81.5150986z"/>
	<path class="st0" d="M118.0903854,95.6790924V53.6902275h29.856102v7.0179672h-22.1244431v9.8727379h20.2804489v6.7800751
		h-20.2804489v11.2409286h23.6110153v7.0771561H118.0903854z"/>
	<path class="st0" d="M180.4775238,95.6790924l-18.3778534-29.4394989l0.4757996,29.4394989h-7.6719055V53.6902275h7.0777283
		l18.6151733,29.618206l-0.9515839-29.618206h7.7316589v41.9888649H180.4775238z"/>
	<path class="st0" d="M32.9390945,143.3029327c-1.8639069,2.4979248-6.2143536,7.1369171-14.2368412,7.1369171
		c-1.3556728,0-4.5758228-0.1189423-8.0219183-1.7842255c-4.5194788-2.260025-10.6211452-7.9695587-10.6211452-20.3999786
		c0-2.2594452,0-8.2666397,3.6720409-13.7980347c1.9208212-2.9139557,6.4972134-8.1476974,15.2538824-8.1476974
		c7.6269398,0,11.6381836,3.9850616,13.4457493,6.6611252c1.2993279,2.0221252,2.0904198,4.1034393,2.7682571,6.3042755
		l-7.4009953,2.0221252c-0.0563431-0.5349808-0.2822895-1.9031754-1.0170383-3.3305588
		c-1.5252743-2.9737167-4.5194798-4.52005-7.6832848-4.4608612c-2.2594547,0-3.8416433,0.7136917-4.6321678,1.1303024
		c-2.9378605,1.5463257-6.3276119,5.5905838-6.3276119,13.4411926c0,1.1894836,0.056344,6.1853333,2.3727121,9.9319305
		c0.7910938,1.2492371,1.7512197,2.3197784,2.8815165,3.0926666c2.3727121,1.7250366,4.7454243,1.9031677,5.8188076,1.9031677
		c3.1068935,0,5.4232616-1.3078613,7.3440819-3.8063507c0.7910938-1.010788,1.4125862-2.2594604,1.5821877-2.5571136
		c0.2259464-0.535553,0.3955479-1.0113525,0.7341805-2.0813141l7.0617924,3.0926666
		C35.0864334,139.7942352,34.2953377,141.4595184,32.9390945,143.3029327z"/>
	<path class="st0" d="M70.9554214,144.432663c-0.8850021,1.0113525-3.1529922,3.4500885-6.6377869,4.8177032
		c-1.2168083,0.4757996-3.4847984,1.1894836-6.8034096,1.1894836c-5.531395,0-9.7350044-1.9629364-13.3854218-6.4829712
		c-3.6509819-4.4602966-5.1995888-9.6940308-5.1995888-15.522522c0-1.368187,0.0552025-4.5792313,1.1615982-8.1476974
		c2.54459-8.3861618,9.2370148-13.9767456,17.5895996-13.9767456c7.5222168,0,12.0024261,4.4011002,13.8276367,6.6611252
		c2.0466003,2.4979172,4.9229965,7.3748169,4.8677902,15.404129
		C76.3758392,130.9920349,76.0992355,138.4260406,70.9554214,144.432663z M66.6960373,119.0374146
		c-2.0466003-3.5684586-5.1438179-5.531395-9.0713997-5.531395c-2.433609,0-4.2036095,0.8332138-4.978199,1.2492447
		c-2.7654152,1.6055222-6.1944351,5.531395-6.1944351,13.3820038c0,1.6055298,0.0552063,9.3371887,5.5308266,13.2027283
		c2.3784027,1.6652832,4.7568054,1.7848053,5.7527885,1.7848053c0.7740173,0,2.5440216-0.0597534,4.4802094-1.0113525
		c2.8763962-1.4273834,6.6372147-4.9958344,6.8034058-12.9062042
		C69.07444,125.7583008,68.4660339,122.0703201,66.6960373,119.0374146z"/>
	<path class="st0" d="M113.1810455,149.3693237l0.7734528-34.4951096l-9.0998535,34.4951096h-7.0771637l-9.0998535-34.4951096
		l0.7734528,34.4951096h-7.6724701V107.380455h11.4190674l8.2074585,31.1645432l8.088501-31.1645432h11.3598785v41.9888687
		H113.1810455z"/>
	<path class="st0" d="M155.881897,147.4661407c-3.6874084,2.0818787-7.4345703,1.903183-11.4788208,1.903183h-16.4741058V107.380455
		h15.0467224c2.0818787,0,4.2229614,0,6.3048401,0.1781387c1.3078613,0.1195145,4.7579498,0.4757919,7.4931946,3.3903198
		c0.892395,0.9515839,2.6766357,3.2116089,2.6766357,6.7208786c0,1.1894836-0.2976685,5.3521194-3.806366,7.5529556
		c-1.0113373,0.6539307-1.9629364,0.8918304-3.15242,1.1297226c0.535553,0.1195221,1.8439941,0.3574219,3.2121887,1.1303024
		c2.1410675,1.1302948,5.7095337,3.9253082,5.7095337,9.991684
		C161.4132996,141.6974182,159.6284943,145.3250732,155.881897,147.4661407z M150.3505096,116.0637054
		c-2.0215607-2.4979248-5.7095337-2.260025-8.5045471-2.260025h-6.1255646v10.4674759h2.7352448
		c2.0818787,0,4.1637726,0,6.3048401-0.1189499c1.9623718-0.1189423,3.8655548-0.356842,5.2929382-1.9031754
		c0.4757843-0.4757919,1.3084259-1.4865723,1.3084259-3.2713699
		C151.3618469,118.5018616,151.2429047,117.1940002,150.3505096,116.0637054z M149.9942322,131.1701813
		c-2.1410828-1.0705414-4.9366608-1.0113525-9.8733063-1.0113525h-4.400528v12.4304199h8.8021851
		c2.6168823,0,5.5900269,0.1781311,7.5529633-2.1410828c0.535553-0.5947418,1.3084259-1.6652679,1.3084259-3.6874084
		C153.3839722,135.5712738,153.0271301,132.716507,149.9942322,131.1701813z"/>
	<path class="st0" d="M197.5787964,144.432663c-0.8849945,1.0113525-3.1529846,3.4500885-6.6377869,4.8177032
		c-1.2167969,0.4757996-3.484787,1.1894836-6.8034058,1.1894836c-5.5313873,0-9.7350006-1.9629364-13.3854218-6.4829712
		c-3.6509857-4.4602966-5.199585-9.6940308-5.199585-15.522522c0-1.368187,0.0552063-4.5792313,1.1615906-8.1476974
		c2.5446014-8.3861618,9.2370148-13.9767456,17.5895996-13.9767456c7.5222321,0,12.0024414,4.4011002,13.8276367,6.6611252
		c2.0466003,2.4979172,4.9230042,7.3748169,4.8677979,15.404129
		C202.9992218,130.9920349,202.7226257,138.4260406,197.5787964,144.432663z M193.3194122,119.0374146
		c-2.0466003-3.5684586-5.1438141-5.531395-9.0713959-5.531395c-2.433609,0-4.2036133,0.8332138-4.9776306,1.2492447
		c-2.765976,1.6055222-6.1955719,5.531395-6.1955719,13.3820038c0,1.6055298,0.0557709,9.3371887,5.5314026,13.2027283
		c2.3784027,1.6652832,4.7568054,1.7848053,5.7527771,1.7848053c0.7740326,0,2.5440216-0.0597534,4.4802094-1.0113525
		c2.8764038-1.4273834,6.6372223-4.9958344,6.8034058-12.9062042
		C195.6978149,125.7583008,195.0894165,122.0703201,193.3194122,119.0374146z"/>
</g>
</svg>
