<?xml version="1.0" encoding="utf-8"?>
<!-- Generator: Adobe Illustrator 25.4.1, SVG Export Plug-In . SVG Version: 6.00 Build 0)  -->
<svg version="1.1" id="レイヤー_1" xmlns="http://www.w3.org/2000/svg" xmlns:xlink="http://www.w3.org/1999/xlink" x="0px"
	 y="0px" viewBox="0 0 143.7810822 41.901722" style="enable-background:new 0 0 143.7810822 41.901722;" xml:space="preserve">
<style type="text/css">
	.st0{fill:#ED5645;stroke:#ED5645;stroke-width:0.75;stroke-miterlimit:10;}
	.st1{fill:none;stroke:#ED5645;stroke-width:3;stroke-linecap:round;stroke-linejoin:round;}
	.st2{fill:none;stroke:#ED5645;stroke-width:3;stroke-linecap:round;stroke-linejoin:round;stroke-dasharray:0,8.2945929;}
</style>
<g>
	<path class="st0" d="M38.8218384,32.8961182v-0.359375c0.4599609-0.7597656,1.0205078-1.4609375,1.640625-2.0800781
		c0.5996094-0.6210938,1.2402344-1.2402344,1.9003906-1.8613281l0.2001953-0.1992188
		c0.7392578-0.5605469,1.4199219-1.1816406,2.0800781-1.8808594c0.6396484-0.6601562,1.4199219-1,2.3203125-1.0410156
		c0.8603516,0.4609375,1.7207031,0.9414062,2.6005859,1.4003906c0.8798828,0.4804688,1.6806641,1.0605469,2.4404297,1.7207031
		l1.5009766,1.6601562c-0.0605469,0.1796875-0.1806641,0.2597656-0.4208984,0.2207031
		c-0.7998047-0.9199219-1.7001953-1.7011719-2.6601562-2.3613281c-0.9804688-0.6796875-2.0009766-1.2792969-3.0205078-1.8007812
		L46.4839478,26.03479l-0.2802734,0.359375c-1,0.4804688-1.9404297,1.1210938-2.78125,1.921875
		c-0.8398438,0.7988281-1.7001953,1.5996094-2.5605469,2.359375l-1.3398438,1.8613281l0.0800781,0.21875l-0.5,0.28125
		L38.8218384,32.8961182z M50.3843384,38.6773682l-0.1601562-0.140625c-0.8798828-0.6191406-1.7607422-1.2597656-2.640625-1.9394531
		c-0.8798828-0.6601562-1.7597656-1.3007812-2.6601562-1.9199219l-0.6601562,0.5
		c-0.2207031,0.3789062-0.2802734,0.7988281-0.1806641,1.2792969l0.4804688,2.140625l0.4404297,0.1601562
		c0.9199219-0.4394531,1.8398438-0.9394531,2.7402344-1.5v0.1992188l-0.8398438,0.8613281l-0.5605469,0.359375
		c-0.2001953,0.2011719-0.4599609,0.3007812-0.7802734,0.3398438c-0.3398438,0.2597656-0.7197266,0.3613281-1.1396484,0.3007812
		c-0.4804688-0.6601562-0.7607422-1.4414062-0.8603516-2.3613281c-0.1005859-0.9003906-0.1201172-1.8203125-0.0605469-2.7792969
		c0.0400391-0.921875,0.2001953-1.7402344,0.5-2.5019531l-0.0791016-0.4199219c0.6601562-0.5390625,1.3994141-0.859375,2.2001953-1
		l0.0800781-0.5l-0.1601562-1.5800781l0.3603516-0.0605469l0.2792969,0.1210938l0.140625,0.7792969l-0.140625,0.7402344
		l0.2802734,0.3398438c0.5400391-0.0996094,0.9804688-0.0195312,1.3603516,0.2207031
		c0.4199219,0.5605469,0.6201172,1.2402344,0.5800781,2c-0.0595703,0.8398438-0.3203125,1.5605469-0.7802734,2.0800781
		c-0.2998047-0.2597656-0.6201172-0.3203125-1-0.21875l-1,0.21875v0.2207031
		c0.5595703,0.5996094,1.2001953,1.0410156,1.9199219,1.3398438c0.6005859-0.5605469,1.1601562-1.1601562,1.7001953-1.859375
		h0.4208984l0.1396484,0.4394531l-1.8408203,1.9199219c0.5410156,0.4414062,1.0605469,0.8613281,1.6005859,1.3007812
		c0.5400391,0.4199219,1,0.9199219,1.3808594,1.4804688v0.3789062l-0.2802734,0.0605469L50.3843384,38.6773682z
		 M48.1841431,32.5953369c-0.3408203-0.1386719-0.6806641-0.21875-1.0605469-0.21875
		c-0.7197266,0.0996094-1.3798828,0.2988281-2,0.5996094l-0.7802734,0.7011719l-0.140625,0.5h0.2207031
		c1.0400391-0.3203125,2.1601562-0.5214844,3.3203125-0.5800781h0.2197266
		C48.1636353,33.31604,48.2437134,32.9957275,48.1841431,32.5953369z M48.3237915,31.675415l-0.4199219-0.859375
		c-0.3398438-0.140625-0.7001953-0.1796875-1.0800781-0.140625c-0.6601562,0.140625-1.2607422,0.3808594-1.8203125,0.7207031
		L44.7827759,32.31604h0.2607422c0.859375-0.2792969,1.7597656-0.4199219,2.7001953-0.4199219l0.5205078,0.140625
		L48.3237915,31.675415z"/>
	<path class="st0" d="M54.9439087,34.456665c0.5009766-1.0410156,1.1611328-2.0195312,1.9609375-2.9414062l0.3603516-0.0585938
		c1.5595703,0.5800781,3.140625,1.1386719,4.7607422,1.6796875c1.6005859,0.5605469,3.2001953,1.0195312,4.8212891,1.4003906
		l0.0595703,0.2207031l-0.4804688,0.1992188c-1.5595703-0.4199219-3.1201172-0.9003906-4.6601562-1.4199219
		c-1.5410156-0.5195312-3.0810547-1.0195312-4.6416016-1.5c-0.3798828,0.4804688-0.7197266,0.9804688-1.0195312,1.5
		c-0.3007812,0.5195312-0.5810547,1.0800781-0.8203125,1.640625l-0.2207031,0.0800781L54.9439087,34.456665z M61.8657837,29.7554932
		l0.3798828-0.0800781l0.2001953,0.640625l-0.1396484,0.7207031l0.2001953,0.359375l0.1396484,0.2792969l-0.3398438,0.0605469
		C61.925354,31.175415,61.7661743,30.5152588,61.8657837,29.7554932z M63.9458618,29.8765869l0.140625-0.421875h0.2001953
		c0.2998047,0.6816406,0.5996094,1.3417969,0.9199219,2.0019531C64.6460571,31.0367432,64.206604,30.5152588,63.9458618,29.8765869z
		"/>
	<path class="st0" d="M74.1411743,36.2574463c-0.3994141-0.8007812-0.5400391-1.7011719-0.4394531-2.7011719
		c0.0996094-0.859375,0.3398438-1.6601562,0.7001877-2.4199219c0.3798904-0.7597656,0.7793045-1.4804688,1.2197342-2.2011719
		l-0.7802734-0.0800781c-1,0.0996094-1.9599609,0.28125-2.8808594,0.5605469
		c-0.9394531,0.3007812-1.8398438,0.6601562-2.6796875,1.1601562l-0.140625-0.359375
		c1.0800781-0.6601562,2.2607422-1.140625,3.4804688-1.421875c1.2402344-0.2988281,2.5205078-0.4394531,3.8613281-0.4394531
		l0.1396484,0.359375c-0.7998047,0.8613281-1.4599609,1.8222656-1.9199219,2.8417969
		c-0.5,1.0390625-0.6601562,2.2011719-0.5605469,3.4199219c0.2207031,1.1015625,0.7802734,2.0605469,1.6201172,2.8613281
		l0.2802734,0.1992188v0.28125l-0.2802734,0.1386719C75.0415649,37.7965088,74.5015259,37.0562744,74.1411743,36.2574463z"/>
	<path class="st0" d="M83.2808228,37.6168213c-0.3398438-0.6601562-0.5800781-1.3789062-0.7197266-2.1796875
		c-0.140625-0.78125-0.2802734-1.5410156-0.4208984-2.3007812l-0.2792969-0.0800781l-1.0605469,0.359375l-0.2197266-0.359375
		c0.4794922-0.3007812,1-0.4804688,1.5595703-0.5800781l0.2001953-2.5605469l-0.5595703-0.1992188
		c-0.4804688,0.0800781-0.9208984,0.21875-1.3603516,0.4199219c-0.1601562-0.0605469-0.2402344-0.2011719-0.1806641-0.4199219
		c0.640625-0.2402344,1.3408203-0.4003906,2.1005859-0.5l0.4199219-1.8007812h0.3603516l0.0800781,0.5996094l-0.2197266,1.2011719
		c0.6601562,0.1796875,1.3603516,0.3789062,2.0605469,0.5800781l0.0800781,0.1992188l-0.2207031,0.140625
		c-0.4599609-0.2011719-1-0.3007812-1.5595703-0.3007812l-0.5009766,0.2207031l-0.1992188,2.1601562l0.5595703,0.0605469
		l2.0009766-0.140625l0.0595703,0.1992188c-0.9404297,0-1.7607422,0.3007812-2.5009766,0.8613281l-0.0400391,0.21875
		c0.0800781,0.8007812,0.2001953,1.5820312,0.3408203,2.3417969c0.1396484,0.7597656,0.5,1.4589844,1.0595703,2.0800781
		l0.4208984,0.140625c0.7197266-0.5410156,1.4394531-1.1015625,2.1201172-1.7207031
		c0.6796875-0.6210938,1.2802734-1.28125,1.8603516-2v-0.3417969l-0.0595703-0.21875l0.2597656-0.0605469l0.2197266,0.4003906
		c-0.4003906,0.8007812-1.0205078,1.5800781-1.7802734,2.3007812c-0.4599609,0.4199219-0.9199219,0.8789062-1.3603516,1.3398438
		c-0.4599609,0.4804688-1.0205078,0.7207031-1.6806641,0.7207031L83.2808228,37.6168213z"/>
	<path class="st0" d="M95.4751587,37.59729c0.4003906-0.5996094,0.7197266-1.2402344,0.9599609-1.9199219l-0.5800781-0.2011719
		c-1.0800781,0.1816406-2.0800781,0.6015625-2.9804688,1.2011719l-0.3798828-0.640625
		c0.7402344-0.1796875,1.4404297-0.4003906,2.1601562-0.5996094c0.7001953-0.2207031,1.4404297-0.359375,2.2001953-0.4609375
		c0.2402344-0.4199219,0.3603516-0.9394531,0.3603516-1.5l-0.3603516-0.2207031
		c-0.6601562,0.3808594-1.3798828,0.6601562-2.1396484,0.78125l-0.140625-0.4003906
		c0.9003906-0.4003906,1.8007812-0.6992188,2.7011719-0.9394531l0.0800781-1.4804688l-0.140625-0.5214844l-0.3603516-0.0585938
		l-0.859375,0.4199219l-0.2802734,0.5l-0.2197266,0.0605469l-0.6201172-0.2617188v-0.21875l0.3398438-0.3613281
		c0.5996094-0.2792969,1.2597656-0.5195312,1.9199219-0.71875l0.140625-1.4199219l-0.3603516-0.140625
		c-0.7001953,0.4804688-1.4599609,0.8203125-2.2607422,1l-0.1601562-0.4394531
		c0.6201172-0.3613281,1.3007812-0.6601562,2.0009766-0.8417969v-0.1992188l-1-0.9394531l-0.2802734-0.8417969h0.4394531
		c0.3203125,0.6601562,0.8007812,1.2011719,1.4208984,1.6210938h0.6201172
		c0.7197266-0.8007812,1.3203125-1.6796875,1.7802734-2.6210938l0.4404297-0.0800781l0.1992188,0.3613281
		c-0.4599609,0.5996094-0.9794922,1.2402344-1.5595703,1.9003906v0.21875l1,0.0800781l1.640625-0.0800781l0.0800705,0.3007812
		l-0.4404221,0.1992188c-0.2802734-0.1191406-0.6201172-0.1796875-0.9804688-0.1191406l-1.7207031,0.1992188l-0.0595703,0.3613281
		l0.0595703,0.359375c-0.1396484,0.28125-0.2597656,0.5605469-0.359375,0.8613281
		c0.7197266,0.1601562,1.4804688,0.2597656,2.2802734,0.2597656l0.0595703,0.2988281l-0.2597656,0.0800781l-1.3798828-0.0800781
		l-0.5605469,0.2207031c-0.1396484,0.5996094-0.2001953,1.2597656-0.1396484,1.9804688
		c0.5595703,0.1796875,1.2001953,0.3007812,1.8603516,0.3203125s1.2998047,0.0800781,1.9199219,0.1796875l-3.640625,0.140625
		l-0.2197266,0.4394531l0.1601562,0.4003906l-0.3798828,0.7402344c0.5800781,0.0800781,1.1601562,0.140625,1.7197266,0.1992188
		l0.4404297-0.0800781c1.1396484,0,2.1601562,0.1816406,3.1201172,0.5214844l-0.2197266,0.0585938
		c-0.8798828,0.0605469-1.7402344,0-2.6201172-0.21875l-0.2802734,0.0800781l-0.2207031-0.0800781
		c-0.8994141-0.1015625-1.6796875,0.0800781-2.3398438,0.5l-0.0800781,0.21875c0.5595703,0.5605469,1.2402344,1.0605469,2,1.421875
		c1.0800781,0.3789062,2.2011719,0.7402344,3.3408203,1.0585938l-0.1396484,0.1601562l-2.2207031-0.6386719l-0.3398438-0.140625
		l-0.4404297,0.0605469l-2.6201172-1.28125c-0.3007812,0.5800781-0.640625,1.0800781-1.0400391,1.5214844
		c-0.4208984,0.4589844-0.8603516,0.8984375-1.4003906,1.3203125C94.6353149,38.8570557,95.0552368,38.2183838,95.4751587,37.59729z
		"/>
	<path class="st0" d="M106.5161743,35.7769775c-0.2802734-0.7207031-0.5-1.4609375-0.6601562-2.2207031
		c-0.1796875-0.7597656-0.2597656-1.5605469-0.2597656-2.4199219l0.1396484-0.3007812
		c0.5205078-0.2792969,1.1005859-0.4804688,1.7207031-0.5996094c0.6005859-0.1210938,1.2402344-0.1796875,1.8408203-0.1796875
		l0.5800781,0.21875c0.1396484,0.4609375,0.1796875,0.9804688,0.1396484,1.5019531
		c-0.0595703,0.71875-0.1796875,1.4003906-0.3603516,2.0800781l0.140625,0.5l0.1396484,0.2792969
		c-1.1005859,0.2402344-2.1005859,0.7011719-3.0605469,1.3613281L106.5161743,35.7769775z M109.2974243,34.2769775
		l-0.0605469-0.9414062c0.1796875-0.859375,0.2802734-1.7402344,0.2802734-2.640625
		c-0.2998047-0.2792969-0.6806641-0.3789062-1.140625-0.2792969c-0.6601562,0.0605469-1.2597656,0.3007812-1.7802734,0.78125
		c-0.3398438,0.2597656-0.5,0.5585938-0.5,0.9394531c0.0595703,1.0410156,0.2597656,2.0195312,0.640625,2.9414062
		l0.2998047,0.0585938l2.2001953-0.5605469L109.2974243,34.2769775z M109.7173462,38.4371338
		c0.6396484-0.7988281,1.3203125-1.5605469,2.0605469-2.2792969c0.7197266-0.7207031,1.5195312-1.3808594,2.3603516-2.0214844
		v-0.1992188l-0.140625-0.6601562l-0.6396484-0.0800781c-0.6601562,0.2988281-1.3408203,0.5800781-2.0810623,0.859375
		l-0.119133-0.2792969c0.8994141-0.5800781,1.8603516-1,2.9199219-1.3007812c0.2402344-0.8007812,0.3603516-1.640625,0.3603516-2.5
		c-0.2001953-0.140625-0.4199219-0.1796875-0.6601562-0.140625l-1.2802734,0.4394531l-0.4003906,0.7011719l-0.3798828,0.0800781
		c-0.2402344-0.140625-0.3398438-0.3613281-0.2802734-0.640625c0.9003906-0.7207031,1.9208984-1.0800781,3.0605469-1.0800781
		l0.2802734-1.2011719h0.3007812l0.1992188,0.4804688l-0.1396484,0.5800781l0.4199219,0.140625l0.7802734-0.0800781
		l0.3603516,0.3808594v0.1992188l-0.2207031,0.0605469c-0.2597656-0.28125-0.6201172-0.3613281-1.0400391-0.2597656
		l-0.359375,0.1386719l-0.4404297,2.5605469c0.4199219,0.140625,0.9003906,0.2011719,1.4404297,0.140625l0.2001953-0.0605469
		c0.3798828,0,0.6601562,0.140625,0.7998047,0.4414062l-0.3798828,0.1386719l-1.2607422-0.0800781
		c-0.3398438,0-0.6201172,0.140625-0.7998047,0.4199219l-0.0605469,0.5214844
		c-0.0595703,0.5195312,0.0800781,0.9394531,0.4208984,1.2792969c0.5996094,0.5214844,1.2597656,0.9804688,2,1.3203125
		c0.7197266,0.3808594,1.4003906,0.8007812,2.0605469,1.2597656l0.0595703,0.3007812h-0.2197266
		c-0.7001953-0.4394531-1.4003906-0.8203125-2.1201172-1.1992188c-0.7207031-0.3613281-1.4208984-0.7207031-2.140625-1.1015625
		l-0.0605469,0.9199219l0.2001953,1.2402344l-0.2802734,0.140625c-0.2792969-0.8007812-0.4199219-1.6992188-0.4199219-2.6601562
		l-0.2998047-0.0605469c-0.7197266,0.4609375-1.4003906,1.0214844-2.0605469,1.640625
		c-0.6601562,0.6210938-1.2998047,1.2402344-1.9199219,1.8613281L109.7173462,38.4371338z"/>
	<path class="st0" d="M122.3931274,33.9371338c-0.5605469-1.5605469-0.8203125-3.2011719-0.8203125-4.921875l0.0605469-0.1992188
		l-0.0605469-0.640625l0.4003906-0.1992188c0.3798828,0.3183594,0.5,0.7792969,0.3603516,1.3398438
		c-0.2402344,0.2402344-0.3007812,0.5195312-0.2001953,0.859375c0.0996094,1.3808594,0.359375,2.7011719,0.8203125,3.921875
		c0.4394531,1.2402344,1.0996094,2.3789062,1.9404297,3.4394531l0.3994141,0.0605469
		c0.7607422-0.5195312,1.4208984-1.140625,2.0410156-1.859375c0.5800781-0.7207031,1.2197266-1.3808594,1.9199219-1.9804688
		v0.1992188c-0.5595703,0.7792969-1.1396484,1.5195312-1.7597656,2.2597656
		c-0.6005859,0.7402344-1.3203125,1.3613281-2.1210938,1.9003906l-0.5595703,0.1210938
		C123.7339478,36.9176025,122.9136353,35.4761963,122.3931274,33.9371338z"/>
	<path class="st0" d="M134.4761353,36.2574463c-0.2998047-0.7207031-0.5400391-1.4804688-0.7001953-2.3007812v-3.0605469
		l0.7802734-0.0800781l0.0605469,0.4394531c-0.1806641,0.5214844-0.3007812,1.0800781-0.3603516,1.7207031l0.0800781,0.2597656
		l-0.0800781,0.3613281c0.0996094,0.6796875,0.2597656,1.2988281,0.4804688,1.9003906
		c0.1992188,0.5996094,0.5,1.1796875,0.859375,1.7597656l0.9208984,0.1191406V37.59729
		c-0.2207031,0.2597656-0.5,0.359375-0.8408203,0.3007812C135.1167603,37.456665,134.7163696,36.9176025,134.4761353,36.2574463z
		 M142.1577759,33.5367432c-0.1992188-1-0.3994141-2.0214844-0.5996094-3l0.6601562-0.0605469
		c0.0800781,0.9804688,0.2402344,1.9394531,0.4599609,2.9003906s0.4199219,1.9199219,0.6601562,2.8808594l-0.3398438,0.1386719
		C142.6177368,35.4976807,142.3179321,34.5367432,142.1577759,33.5367432z"/>
</g>
<g>
	<g>
		<line class="st1" x1="33.1912994" y1="33.1912842" x2="33.1912994" y2="33.1912842"/>
		<path class="st2" d="M24.983902,32.1182251C12.7535553,28.8480835,3.4381256,18.4448853,1.7678223,5.638855"/>
		<line class="st1" x1="1.5" y1="1.5" x2="1.5" y2="1.5"/>
	</g>
</g>
</svg>
