<?xml version="1.0" encoding="utf-8"?>
<!-- Generator: Adobe Illustrator 25.4.1, SVG Export Plug-In . SVG Version: 6.00 Build 0)  -->
<svg version="1.1" id="レイヤー_1" xmlns="http://www.w3.org/2000/svg" xmlns:xlink="http://www.w3.org/1999/xlink" x="0px"
	 y="0px" viewBox="0 0 103.7431259 37.1021843" style="enable-background:new 0 0 103.7431259 37.1021843;" xml:space="preserve">
<style type="text/css">
	.st0{fill:#FFFFFF;stroke:#FFFFFF;stroke-width:0.75;stroke-miterlimit:10;}
	.st1{fill:none;stroke:#FFFFFF;stroke-width:3;stroke-linecap:round;stroke-linejoin:round;}
	.st2{fill:none;stroke:#FFFFFF;stroke-width:3;stroke-linecap:round;stroke-linejoin:round;stroke-dasharray:0,7.6137099;}
</style>
<g>
	<path class="st0" d="M3.8566368,12.860486c0.4003904-0.6005859,0.7197263-1.2402344,0.9599607-1.9208984l-0.5800781-0.2001953
		c-1.0800779,0.1806641-2.0800779,0.6005859-2.9804688,1.2001953l-0.3798828-0.6396484
		c0.7402344-0.1806641,1.4404298-0.4003906,2.1601562-0.6005859c0.7001953-0.2197266,1.4404294-0.359375,2.2001951-0.4599609
		c0.2402344-0.4199219,0.3603516-0.9404297,0.3603516-1.5L5.2365193,8.5186892
		C4.5763631,8.8995485,3.8566368,9.1788454,3.0968711,9.2989626l-0.140625-0.3994141
		c0.9003906-0.4003906,1.800781-0.7001953,2.7011716-0.9404292l0.0800781-1.4804688l-0.140625-0.5205078L5.2365193,5.8985724
		l-0.859375,0.4199219l-0.2802734,0.5L3.8771446,6.8790412L3.2570274,6.618299V6.3985724l0.3398438-0.3603516
		C4.1964803,5.758924,4.8566365,5.5186896,5.5167928,5.3184943l0.140625-1.4199219l-0.3603516-0.140625
		c-0.7001953,0.4804688-1.4599607,0.8203125-2.2607419,1L2.876168,4.3184943
		C3.4962852,3.9581428,4.176949,3.6583381,4.8771443,3.477674V3.2784553L3.8771446,2.3380256L3.5968711,1.4972051H4.036324
		C4.3566365,2.1573615,4.8371053,2.6974006,5.4572225,3.118299h0.6201172
		c0.7197266-0.8007812,1.3203125-1.6806642,1.7802734-2.6210938l0.4404302-0.0800781L8.497262,0.7774786
		C8.0373011,1.3780645,7.5177693,2.0177131,6.9376912,2.6778693v0.2197266l1,0.0800781l1.6406255-0.0800781l0.0800781,0.3007812
		L9.2179651,3.3975959C8.9376917,3.2784553,8.5978479,3.2179084,8.2374964,3.2784553L6.5167928,3.477674L6.4572225,3.8380256
		l0.0595703,0.3603516c-0.1396484,0.2802734-0.2597656,0.5595703-0.359375,0.8603516
		c0.7197266,0.1601562,1.4804688,0.2597656,2.2802739,0.2597656L8.497262,5.618299L8.2374964,5.6983771L6.8576131,5.618299
		L6.2970662,5.8390021C6.1574178,6.4386115,6.0968709,7.0987678,6.1574178,7.8184943
		c0.5595703,0.1806641,1.2001953,0.3007808,1.860352,0.320312c0.6601562,0.0205078,1.2998047,0.0800781,1.9199219,0.1806641
		L6.2970662,8.4591188L6.0773396,8.8995485l0.1601562,0.3994141L5.8576131,10.039197
		c0.5800781,0.0800781,1.1601562,0.140625,1.7197266,0.2001953l0.4404302-0.0800781
		c1.1396484,0,2.1601562,0.1806641,3.1201172,0.5205078l-0.2197266,0.0595703c-0.8798828,0.0605469-1.7402344,0-2.6201172-0.2197266
		l-0.2802734,0.0800781l-0.2207036-0.0800781c-0.8994141-0.1005859-1.6796875,0.0800781-2.3398438,0.5l-0.0800781,0.2197266
		c0.5595703,0.5605469,1.2402344,1.0605469,2,1.4208984c1.0800786,0.3798828,2.2011724,0.7402344,3.3408208,1.0595703
		l-0.1396484,0.1601562l-2.2207031-0.6396484l-0.3398438-0.140625l-0.4404302,0.0605469l-2.6201172-1.2802734
		c-0.3007812,0.5800781-0.640625,1.0800781-1.0400388,1.5205078c-0.4208984,0.4599609-0.8603516,0.8994141-1.4003906,1.3203125
		C3.016793,14.1202517,3.4367149,13.4806032,3.8566368,12.860486z"/>
	<path class="st0" d="M14.8976526,11.039197c-0.2802734-0.7197266-0.5-1.4599609-0.6601562-2.2197266
		c-0.1796875-0.7607422-0.2597656-1.5605464-0.2597656-2.420898l0.1396484-0.2998047
		c0.5205078-0.2802734,1.1005859-0.4804688,1.7207031-0.6005859c0.600585-0.1201172,1.2402334-0.1796875,1.8408194-0.1796875
		l0.5800781,0.2197266c0.1396484,0.4599609,0.1796875,0.9804688,0.1396484,1.5009766
		c-0.0595703,0.7197266-0.1796875,1.4003901-0.3603516,2.0800776l0.140625,0.5l0.1396484,0.2802734
		c-1.1005859,0.2402344-2.1005859,0.7001953-3.0605459,1.3603516L14.8976526,11.039197z M17.6789017,9.539197l-0.0605469-0.9404297
		c0.1796875-0.8593745,0.2802734-1.7402339,0.2802734-2.6406245c-0.2998047-0.2792969-0.6806641-0.3798828-1.140625-0.2792969
		c-0.6601562,0.0595703-1.2597647,0.2998047-1.7802725,0.7802734c-0.3398438,0.2597656-0.5,0.5595703-0.5,0.9394531
		c0.0595703,1.0410151,0.2597656,2.0205073,0.640625,2.9414058l0.2998047,0.0595703l2.2001944-0.5605469L17.6789017,9.539197z
		 M18.0988235,13.7003298c0.6396484-0.7998047,1.3203125-1.5605469,2.0605469-2.2802734
		c0.7197266-0.7207031,1.5195312-1.3808594,2.3603516-2.0205078V9.1993532L22.379097,8.539197l-0.6396484-0.0800781
		c-0.6601562,0.2998047-1.3408203,0.5800781-2.0810547,0.8603516L19.5392532,9.039197
		c0.8994141-0.5800781,1.8603516-1,2.9199219-1.2998042c0.2402344-0.8007812,0.3603516-1.640625,0.3603516-2.5009766
		c-0.2001953-0.1396484-0.4199219-0.1796875-0.6601562-0.1396484L20.879097,5.5382209l-0.4003906,0.7001953l-0.3798828,0.0800781
		c-0.2402344-0.1396484-0.3398438-0.3603516-0.2802734-0.6396484c0.9003906-0.7207031,1.9208984-1.0810547,3.0605469-1.0810547
		l0.2802734-1.2001953h0.3007812l0.1992188,0.4804688L23.519722,4.4581428l0.4199219,0.1396484l0.7802734-0.0791016
		l0.3603516,0.3798828v0.2001953l-0.2207031,0.0595703c-0.2597656-0.2802734-0.6201172-0.3603516-1.0400391-0.2597656
		l-0.359375,0.1396484L23.019722,7.5987678c0.4199219,0.140625,0.9003906,0.2001953,1.4404297,0.140625l0.2001953-0.0605469
		c0.3798828,0,0.6601562,0.1396484,0.7998047,0.4404292l-0.3798828,0.1396484l-1.2607422-0.0800781
		c-0.3398438,0-0.6201172,0.140625-0.7998047,0.4199219l-0.0605469,0.5205078
		c-0.0595703,0.5205078,0.0800781,0.9404297,0.4208984,1.2802734c0.5996094,0.5205078,1.2597656,0.9804688,2,1.3203125
		c0.7197266,0.3798828,1.4003906,0.7998047,2.0605469,1.2597656l0.0595703,0.3007812h-0.2197266
		c-0.7001953-0.4404297-1.4003906-0.8203125-2.1201172-1.2001953c-0.7207031-0.3603516-1.4208984-0.7207031-2.140625-1.1005859
		l-0.0605469,0.9199219l0.2001953,1.2402344l-0.2802734,0.140625c-0.2792969-0.8007812-0.4199219-1.7001953-0.4199219-2.6611328
		l-0.2998047-0.0595703c-0.7197266,0.4599609-1.4003906,1.0205078-2.0605469,1.640625s-1.2998047,1.2402344-1.9199219,1.8603516
		L18.0988235,13.7003298z"/>
	<path class="st0" d="M30.7746048,9.1993532c-0.5605469-1.5605464-0.8203125-3.2011714-0.8203125-4.920898l0.0605469-0.2001953
		l-0.0605469-0.640625l0.4003906-0.1992188c0.3798828,0.3193359,0.5,0.7792969,0.3603516,1.3398438
		c-0.2402344,0.2402344-0.3007812,0.5205078-0.2001953,0.8603516c0.0996094,1.3798828,0.359375,2.7001948,0.8203125,3.920898
		c0.4394531,1.2402344,1.0996094,2.3798828,1.9404297,3.4404297l0.3994141,0.0605469
		c0.7607422-0.5205078,1.4208984-1.140625,2.0410156-1.8603516c0.5800781-0.7207031,1.2197266-1.3808594,1.9199219-1.9804688
		v0.1992188c-0.5595703,0.7802734-1.1396484,1.5205078-1.7597656,2.2607422
		c-0.6005859,0.7402344-1.3203125,1.3603516-2.1210938,1.9003906l-0.5595703,0.1201172
		C32.1154251,12.179822,31.2951126,10.7393923,30.7746048,9.1993532z"/>
	<path class="st0" d="M42.8576126,11.5196657c-0.2998047-0.7197266-0.5400391-1.4804688-0.7001953-2.3007812V6.1583381
		l0.7802734-0.0800781l0.0605469,0.4404297c-0.1806641,0.5205078-0.3007812,1.0800781-0.3603516,1.7207026l0.0800781,0.2597656
		L42.637886,8.8595095c0.0996094,0.6796875,0.2597656,1.2998047,0.4804688,1.9003906
		c0.1992188,0.5996094,0.5,1.1796875,0.859375,1.7597656l0.9208946,0.1201172v0.2207031
		c-0.2206993,0.2597656-0.5,0.359375-0.8408165,0.2998047C43.4982376,12.719861,43.097847,12.179822,42.8576126,11.5196657z
		 M50.5392532,8.7989626c-0.1992188-0.9999995-0.3994141-2.0205073-0.5996094-2.9999995l0.6601562-0.0605469
		c0.0800781,0.9804688,0.2402344,1.9404297,0.4599609,2.9003901c0.2197266,0.9609375,0.4199219,1.9208984,0.6601562,2.8808594
		l-0.3398438,0.1396484C50.9992142,10.7599001,50.6994095,9.7989626,50.5392532,8.7989626z"/>
	<path class="st0" d="M58.0304642,14.8009157l-0.359375,0.0791016l-0.4199219-0.2197266l-0.0800781-0.5800781
		c0.0595703-0.4804688,0.2197266-0.8798828,0.5-1.2197266l0.359375-0.0605469l1.0009766,0.640625
		c0.2402344,0.2792969,0.359375,0.5996094,0.359375,0.9199219l-0.359375,0.6601562l-0.3808594,0.0595703L58.0304642,14.8009157z
		 M57.9308548,8.6388063c-0.0800781-0.7597651-0.0996094-1.5400386-0.0595703-2.3398433
		c0.0996094-0.7607422,0.2597656-1.5205078,0.4599609-2.2607422c0.1796875-0.7197266,0.4599609-1.4404297,0.8398438-2.1005859
		l0.2998047-0.0800781c0.3203125,0.5800782,0.5,1.2402345,0.5205078,1.9609376
		c0.0195312,0.7402344,0.0400391,1.4599609,0.0400391,2.1796875c-0.0996094,0.8007812-0.2597656,1.5810547-0.4404297,2.3613276
		c-0.1796875,0.7597656-0.3994141,1.5-0.6396484,2.2197266l-0.3398438,0.1601562
		C58.2306595,10.0997438,57.9914017,9.3995485,57.9308548,8.6388063z"/>
</g>
<g>
	<g>
		<line class="st1" x1="73.1532822" y1="6.512342" x2="73.1532822" y2="6.512342"/>
		<path class="st2" d="M80.6869583,7.4972053c11.2263794,3.0017085,19.7771301,12.5510254,21.3103333,24.3059082"/>
		<line class="st1" x1="102.2431259" y1="35.6021843" x2="102.2431259" y2="35.6021843"/>
	</g>
</g>
</svg>
