<?xml version="1.0" encoding="utf-8"?>
<!-- Generator: Adobe Illustrator 25.4.1, SVG Export Plug-In . SVG Version: 6.00 Build 0)  -->
<svg version="1.1" id="レイヤー_1" xmlns="http://www.w3.org/2000/svg" xmlns:xlink="http://www.w3.org/1999/xlink" x="0px"
	 y="0px" viewBox="0 0 194.1199951 100.1794357" style="enable-background:new 0 0 194.1199951 100.1794357;" xml:space="preserve">
<style type="text/css">
	.st0{fill:#ED5645;stroke:#ED5645;stroke-miterlimit:10;}
	.st1{fill:none;stroke:#ED5645;stroke-width:4;stroke-linecap:round;stroke-linejoin:round;}
	.st2{fill:none;stroke:#ED5645;stroke-width:4;stroke-linecap:round;stroke-linejoin:round;stroke-dasharray:0,7.7727542;}
</style>
<g>
	<g>
		<path class="st0" d="M123.3914795,97.0733643v-0.9619141c0.4189453-1.1337891,1.1835938-2.0712891,2.2929688-2.8359375
			l0.5917969-0.2705078l0.1972656-0.9619141l-0.0986328-0.7890625c0.1728516-1.2333984,0.2470703-2.5400391,0.1728516-3.8964844
			c-0.2216797-0.1474609-0.46875-0.2216797-0.7890625-0.1728516c-1.109375,0.3945312-2.2441406,0.7646484-3.4277344,1.0605469
			l-0.0732422-0.2714844c0.5917969-0.4677734,1.2324219-0.7890625,1.9726562-0.9609375
			c0.7392578-0.1728516,1.4785156-0.3203125,2.2431641-0.4443359l0.1728516-0.5175781l-0.0986328-1.2578125l0.5419922-0.0986328
			c0.3457031,0.2470703,0.46875,0.6171875,0.3457031,1.1591797l-0.1972656,0.6162109h1.2324219l0.5429688-0.0986328
			l0.6904297,0.1972656v0.3457031l-0.4931641,0.1972656l-1.0605469-0.1972656l-0.640625,0.3701172
			c-0.2226562,0.6894531-0.3457031,1.4541016-0.3701172,2.2675781c-0.0244141,0.8388672-0.0742188,1.6523438-0.1474609,2.3925781
			l0.1972656,0.6162109c0.9863281,0.0742188,1.9726562,0.1728516,2.9335938,0.3203125
			c0.9619141,0.1484375,1.8251953,0.5185547,2.5644531,1.1103516c0.2470703,0.3691406,0.3457031,0.7890625,0.2714844,1.3310547
			l-0.1728516,0.3447266l-0.3701172,0.0742188l-0.0488281-0.5917969l0.0488281-0.2714844l-0.4921875-0.7890625
			c-0.6416016-0.4189453-1.3808594-0.6650391-2.1210938-0.7636719c-0.7402344-0.0742188-1.5537109-0.1230469-2.3671875-0.1230469
			l-0.5175781,0.4189453c-0.0742188,0.8876953-0.1484375,1.7753906-0.2226562,2.6132812
			c-0.0976562,0.8632812-0.4189453,1.6523438-0.9365234,2.3671875l-0.5917969,0.0498047
			C124.4022217,98.3800049,123.8104248,97.8370361,123.3914795,97.0733643z M126.3748779,93.8917236l-0.3447266-0.171875
			c-0.7646484,0.46875-1.3808594,1.0849609-1.8496094,1.8496094l-0.1474609,0.8134766
			c0,0.5175781,0.1474609,0.9619141,0.4921875,1.3066406l1.0605469,0.2714844
			C126.1287842,96.7276611,126.3748779,95.3721924,126.3748779,93.8917236z M133.1561279,88.5909424l0.5917969-0.2470703
			c0.5429688,0.9375,1.0605469,1.8740234,1.6025391,2.8115234C134.4139404,90.4405518,133.649292,89.5772705,133.1561279,88.5909424
			z"/>
		<path class="st0" d="M140.3885498,95.272583c-0.3701172-0.8867188-0.6660156-1.8242188-0.8632812-2.8349609v-3.7724609
			l0.9609375-0.0996094l0.0742188,0.5429688c-0.2216797,0.640625-0.3691406,1.3320312-0.4433594,2.1210938l0.0986328,0.3203125
			l-0.0986328,0.4433594c0.1230469,0.8388672,0.3203125,1.6035156,0.5917969,2.3427734
			c0.2460938,0.7392578,0.6162109,1.4550781,1.0605469,2.1699219l1.1337891,0.1474609v0.2714844
			c-0.2714844,0.3203125-0.6162109,0.4443359-1.0361328,0.3701172
			C141.1776123,96.7530518,140.6834717,96.0870361,140.3885498,95.272583z M149.8572998,91.9190674
			c-0.2470703-1.2324219-0.4941406-2.4902344-0.7402344-3.6982422l0.8134766-0.0742188
			c0.0986328,1.2080078,0.2958984,2.3916016,0.5673828,3.5751953s0.5175781,2.3671875,0.8134766,3.5507812l-0.4189453,0.1728516
			C150.4237061,94.3360596,150.0545654,93.1524658,149.8572998,91.9190674z"/>
		<path class="st0" d="M157.7078857,92.413208c-0.6904297-1.9238281-1.0107422-3.9453125-1.0107422-6.0664062l0.0742188-0.2460938
			l-0.0742188-0.7890625l0.4931641-0.2470703c0.46875,0.3945312,0.6162109,0.9619141,0.4443359,1.6523438
			c-0.296875,0.2958984-0.3701172,0.640625-0.2470703,1.0595703c0.1230469,1.7021484,0.4443359,3.3291016,1.0107422,4.8339844
			c0.5429688,1.5283203,1.3564453,2.9335938,2.3925781,4.2402344l0.4921875,0.0742188
			c0.9375-0.640625,1.7509766-1.4052734,2.515625-2.2929688c0.7148438-0.8876953,1.5039062-1.7011719,2.3671875-2.4414062v0.2470703
			c-0.6904297,0.9619141-1.4052734,1.8740234-2.1699219,2.7861328c-0.7402344,0.9121094-1.6269531,1.6767578-2.6132812,2.3427734
			l-0.6914062,0.1474609C159.3602295,96.0870361,158.3494873,94.3116455,157.7078857,92.413208z"/>
		<path class="st0" d="M172.5330811,95.272583c-0.3701172-0.8867188-0.6660156-1.8242188-0.8632812-2.8349609v-3.7724609
			l0.9609375-0.0996094l0.0742188,0.5429688c-0.2216797,0.640625-0.3691406,1.3320312-0.4433594,2.1210938l0.0986328,0.3203125
			l-0.0986328,0.4433594c0.1230469,0.8388672,0.3203125,1.6035156,0.5917969,2.3427734
			c0.2460938,0.7392578,0.6162109,1.4550781,1.0605469,2.1699219l1.1337891,0.1474609v0.2714844
			c-0.2714844,0.3203125-0.6162109,0.4443359-1.0361328,0.3701172
			C173.3221436,96.7530518,172.8280029,96.0870361,172.5330811,95.272583z M182.0018311,91.9190674
			c-0.2470703-1.2324219-0.4941406-2.4902344-0.7402344-3.6982422l0.8134766-0.0742188
			c0.0986328,1.2080078,0.2958984,2.3916016,0.5673828,3.5751953s0.5175781,2.3671875,0.8134766,3.5507812l-0.4189453,0.1728516
			C182.5682373,94.3360596,182.1990967,93.1524658,182.0018311,91.9190674z"/>
		<path class="st0" d="M191.1541748,99.3175049l-0.4433594,0.0976562l-0.5175781-0.2705078l-0.0996094-0.7158203
			c0.0742188-0.5917969,0.2714844-1.0839844,0.6171875-1.5039062l0.4433594-0.0742188l1.2333984,0.7890625
			c0.2958984,0.3457031,0.4433594,0.7402344,0.4433594,1.1347656l-0.4433594,0.8134766l-0.46875,0.0742188L191.1541748,99.3175049z
			 M191.0311279,91.7218018c-0.0986328-0.9365234-0.1230469-1.8984375-0.0742188-2.8847656
			c0.1230469-0.9365234,0.3203125-1.8740234,0.5673828-2.7861328c0.2216797-0.8876953,0.5673828-1.7753906,1.0361328-2.5888672
			l0.3691406-0.0986328c0.3945312,0.7148438,0.6171875,1.5283203,0.6416016,2.4160156
			c0.0244141,0.9130859,0.0488281,1.7998047,0.0488281,2.6884766c-0.1230469,0.9863281-0.3203125,1.9472656-0.5419922,2.9091797
			c-0.2226562,0.9365234-0.4931641,1.8496094-0.7890625,2.7373047l-0.4199219,0.1972656
			C191.4012451,93.522583,191.1053467,92.6593018,191.0311279,91.7218018z"/>
	</g>
	<g>
		<path class="st0" d="M89.024292,67.7335205v-0.4443359c0.5673828-0.9365234,1.2578125-1.7998047,2.0224609-2.5644531
			c0.7392578-0.7646484,1.5283203-1.5283203,2.3417969-2.2929688l0.2470703-0.2470703
			c0.9121094-0.6904297,1.7509766-1.4550781,2.5644531-2.3173828c0.7890625-0.8134766,1.7509766-1.2333984,2.8603516-1.2822266
			c1.0605469,0.5664062,2.1201172,1.1582031,3.2050781,1.7255859c1.0849609,0.5917969,2.0712891,1.3076172,3.0087891,2.1210938
			l1.8486328,2.0458984c-0.0732422,0.2226562-0.2216797,0.3212891-0.5175781,0.2714844
			c-0.9863281-1.1337891-2.0957031-2.0957031-3.2792969-2.9091797c-1.2080078-0.8388672-2.4658203-1.578125-3.7236328-2.2197266
			l-1.1337891-0.3447266l-0.3457031,0.4433594c-1.2324219,0.5917969-2.3916016,1.3808594-3.4277344,2.3671875
			c-1.0351562,0.9863281-2.0957031,1.9726562-3.15625,2.9101562l-1.6513672,2.2929688l0.0986328,0.2714844l-0.6171875,0.3447266
			L89.024292,67.7335205z M103.2772217,74.8594971l-0.1972656-0.1728516
			c-1.0859375-0.7646484-2.1699219-1.5537109-3.2558594-2.3916016c-1.0839844-0.8134766-2.1699219-1.6025391-3.2792969-2.3671875
			l-0.8134766,0.6162109c-0.2714844,0.46875-0.3447266,0.9863281-0.2216797,1.578125l0.5917969,2.6386719l0.5419922,0.1972656
			c1.1347656-0.5429688,2.2685547-1.1591797,3.3779297-1.8496094v0.2460938l-1.0351562,1.0605469l-0.6904297,0.4443359
			c-0.2470703,0.2460938-0.5673828,0.3701172-0.9619141,0.4189453c-0.4189453,0.3203125-0.8876953,0.4433594-1.4052734,0.3701172
			c-0.5917969-0.8134766-0.9365234-1.7753906-1.0605469-2.9101562c-0.1230469-1.109375-0.1474609-2.2431641-0.0732422-3.4267578
			c0.0488281-1.1347656,0.2460938-2.1455078,0.6162109-3.0830078l-0.0986328-0.5175781
			c0.8134766-0.6660156,1.7255859-1.0605469,2.7119141-1.2333984l0.0986328-0.6162109l-0.1972656-1.9482422l0.4443359-0.0732422
			l0.3447266,0.1474609l0.1728516,0.9619141l-0.1728516,0.9121094l0.3457031,0.4189453
			c0.6660156-0.1230469,1.2080078-0.0244141,1.6767578,0.2714844c0.5175781,0.6904297,0.7646484,1.5292969,0.7148438,2.4658203
			c-0.0742188,1.0361328-0.3945312,1.9238281-0.9619141,2.5644531c-0.3691406-0.3203125-0.7636719-0.3945312-1.2324219-0.2705078
			l-1.2333984,0.2705078v0.2714844c0.6904297,0.7392578,1.4794922,1.2822266,2.3671875,1.6523438
			c0.7402344-0.6904297,1.4306641-1.4306641,2.0966797-2.2939453h0.5175781l0.171875,0.5429688l-2.2675781,2.3671875
			c0.6650391,0.5429688,1.3066406,1.0605469,1.9726562,1.6025391c0.6650391,0.5185547,1.2324219,1.1347656,1.7011719,1.8251953
			v0.46875l-0.3457031,0.0732422L103.2772217,74.8594971z M100.5643311,67.3634033
			c-0.4189453-0.1728516-0.8378906-0.2714844-1.3066406-0.2714844c-0.8876953,0.1230469-1.7011719,0.3701172-2.4658203,0.7392578
			l-0.9619141,0.8632812l-0.1728516,0.6171875h0.2714844c1.2822266-0.3945312,2.6630859-0.6416016,4.0927734-0.7158203h0.2714844
			C100.539917,68.2510986,100.6385498,67.8565674,100.5643311,67.3634033z M100.7371826,66.2286377l-0.5185547-1.0595703
			c-0.4189453-0.1728516-0.8623047-0.2226562-1.3310547-0.1728516c-0.8134766,0.1728516-1.5537109,0.4677734-2.2441406,0.8876953
			l-0.2705078,1.1337891h0.3203125c1.0605469-0.3447266,2.1699219-0.5175781,3.328125-0.5175781l0.6416016,0.1728516
			L100.7371826,66.2286377z"/>
		<path class="st0" d="M108.836792,69.6563721c0.6162109-1.2822266,1.4306641-2.4902344,2.4169922-3.625l0.4433594-0.0732422
			c1.9238281,0.7148438,3.8710938,1.4052734,5.8691406,2.0703125c1.9726562,0.6914062,3.9453125,1.2578125,5.9423828,1.7265625
			l0.0732422,0.2714844l-0.5917969,0.2460938c-1.9228516-0.5175781-3.8457031-1.109375-5.7451172-1.75
			c-1.8984375-0.6416016-3.796875-1.2578125-5.7207031-1.8496094c-0.4677734,0.5917969-0.8876953,1.2080078-1.2568359,1.8496094
			c-0.3701172,0.640625-0.7158203,1.3310547-1.0117188,2.0214844l-0.2714844,0.0986328L108.836792,69.6563721z
			 M117.3690186,63.8614502l0.4677734-0.0986328l0.2470703,0.7890625l-0.1728516,0.8876953l0.2470703,0.4443359l0.171875,0.3447266
			l-0.4189453,0.0742188C117.4422607,65.6124268,117.2449951,64.7989502,117.3690186,63.8614502z M119.9334717,64.0098877
			l0.171875-0.5185547h0.2470703c0.3701172,0.8388672,0.7392578,1.6523438,1.1337891,2.4667969
			C120.7957764,65.4395752,120.2537842,64.7989502,119.9334717,64.0098877z"/>
		<path class="st0" d="M132.4227295,71.8760986c-0.4931641-0.9863281-0.6660156-2.0966797-0.5419922-3.3291016
			c0.1230469-1.0605469,0.4189453-2.046875,0.8623047-2.9833984c0.46875-0.9375,0.9619141-1.8251953,1.5048828-2.7128906
			l-0.9619141-0.0986328c-1.2333984,0.1230469-2.4169922,0.3447266-3.5507812,0.6904297
			c-1.1591797,0.3701172-2.2685547,0.8134766-3.3046875,1.4296875l-0.1728516-0.4433594
			c1.3320312-0.8134766,2.7871094-1.4052734,4.2910156-1.7509766c1.5292969-0.3701172,3.1074219-0.5419922,4.7587891-0.5419922
			l0.1728516,0.4433594c-0.9863281,1.0605469-1.7998047,2.2441406-2.3671875,3.5019531
			c-0.6162109,1.2822266-0.8134766,2.7119141-0.6904297,4.2167969c0.2714844,1.3554688,0.9619141,2.5390625,1.9970703,3.5253906
			l0.3457031,0.2470703v0.3447266l-0.3457031,0.1728516C133.5321045,73.7745361,132.8670654,72.8624268,132.4227295,71.8760986z"/>
		<path class="st0" d="M143.6102295,73.5518799c-0.4189453-0.8134766-0.7148438-1.7011719-0.8876953-2.6875
			c-0.1728516-0.9609375-0.3457031-1.8984375-0.5175781-2.8359375l-0.3457031-0.0976562l-1.3066406,0.4433594l-0.2714844-0.4433594
			c0.5917969-0.3701172,1.2333984-0.5917969,1.9238281-0.7158203l0.2460938-3.15625l-0.6904297-0.2460938
			c-0.5917969,0.0986328-1.1337891,0.2705078-1.6767578,0.5175781c-0.1972656-0.0742188-0.2958984-0.2470703-0.2216797-0.5175781
			c0.7890625-0.2958984,1.6523438-0.4931641,2.5888672-0.6162109l0.5175781-2.2197266h0.4443359l0.0986328,0.7392578
			l-0.2714844,1.4804688c0.8144531,0.2216797,1.6767578,0.4677734,2.5400391,0.7148438l0.0986328,0.2460938l-0.2714844,0.1728516
			c-0.5664062-0.2470703-1.2324219-0.3701172-1.9228516-0.3701172l-0.6162109,0.2714844l-0.2470703,2.6630859l0.6904297,0.0742188
			l2.4658203-0.1728516l0.0742188,0.2460938c-1.1591797,0-2.1699219,0.3701172-3.0830078,1.0605469l-0.0488281,0.2714844
			c0.0986328,0.9863281,0.2460938,1.9482422,0.4189453,2.8847656c0.1728516,0.9375,0.6162109,1.8007812,1.3076172,2.5644531
			l0.5175781,0.1728516c0.8876953-0.6660156,1.7753906-1.3564453,2.6132812-2.1201172
			c0.8388672-0.7646484,1.578125-1.578125,2.2929688-2.4667969v-0.4189453l-0.0732422-0.2705078l0.3203125-0.0742188
			l0.2714844,0.4931641c-0.4931641,0.9863281-1.2578125,1.9482422-2.1943359,2.8349609
			c-0.5673828,0.5185547-1.1347656,1.0859375-1.6777344,1.6523438c-0.5664062,0.5917969-1.2568359,0.8876953-2.0703125,0.8876953
			L143.6102295,73.5518799z"/>
	</g>
</g>
<g>
	<g>
		<line class="st1" x1="76.2214355" y1="76.2213745" x2="76.2214355" y2="76.2213745"/>
		<path class="st2" d="M68.4581299,75.8202515C32.3840332,72.0708313,3.987793,42.482666,2.0999756,5.886261"/>
		<line class="st1" x1="2" y1="2" x2="2" y2="2"/>
	</g>
</g>
</svg>
