<?xml version="1.0" encoding="utf-8"?>
<!-- Generator: Adobe Illustrator 25.4.1, SVG Export Plug-In . SVG Version: 6.00 Build 0)  -->
<svg version="1.1" id="レイヤー_1" xmlns="http://www.w3.org/2000/svg" xmlns:xlink="http://www.w3.org/1999/xlink" x="0px"
	 y="0px" viewBox="0 0 122.3287811 38.9539909" style="enable-background:new 0 0 122.3287811 38.9539909;" xml:space="preserve">
<style type="text/css">
	.st0{fill:#FFFFFF;stroke:#FFFFFF;stroke-width:0.75;stroke-miterlimit:10;}
	.st1{fill:none;stroke:#FFFFFF;stroke-width:3;stroke-linecap:round;stroke-linejoin:round;}
	.st2{fill:none;stroke:#FFFFFF;stroke-width:3;stroke-linecap:round;stroke-linejoin:round;stroke-dasharray:0,8.2945929;}
</style>
<g>
	<path class="st0" d="M45.8628235,12.860486c0.4003906-0.6005859,0.7207031-1.2402344,0.9599609-1.9208984l-0.5800781-0.2001953
		c-1.0800781,0.1806641-2.0800781,0.6005859-2.9804688,1.2001953l-0.3798828-0.6396484
		c0.7402344-0.1806641,1.4404297-0.4003906,2.1601562-0.6005859c0.7001953-0.2197266,1.4404297-0.359375,2.2001953-0.4599609
		c0.2402344-0.4199219,0.3603516-0.9404297,0.3603516-1.5l-0.3603516-0.2207031
		c-0.6591797,0.3808594-1.3798828,0.6601562-2.1396484,0.7802734l-0.140625-0.3994141
		c0.9003906-0.4003906,1.8007812-0.7001953,2.7011719-0.9404292l0.0800781-1.4804688l-0.140625-0.5205078l-0.3603516-0.0595703
		l-0.859375,0.4199219l-0.2802734,0.5l-0.2197266,0.0605469L45.2632141,6.618299V6.3985724l0.3398438-0.3603516
		c0.5996094-0.2792969,1.2597656-0.5195312,1.9199219-0.7197266l0.140625-1.4199219l-0.3603516-0.140625
		c-0.7001953,0.4804688-1.4599609,0.8203125-2.2607422,1l-0.1601562-0.4394531
		c0.6201172-0.3603516,1.3007812-0.6601562,2.0009766-0.8408203V3.2784553l-1-0.9404297l-0.2802734-0.8408204h0.4394531
		c0.3203125,0.6601564,0.8007812,1.2001954,1.4208984,1.6210939h0.6201172
		c0.7197266-0.8007812,1.3203125-1.6806642,1.7802734-2.6210938l0.4404297-0.0800781l0.1992188,0.3603516
		c-0.4599609,0.6005859-0.9794922,1.2402344-1.5595703,1.9003906v0.2197266l1,0.0800781l1.640625-0.0800781l0.0800781,0.3007812
		l-0.4404297,0.1992188c-0.2802734-0.1191406-0.6201172-0.1796875-0.9804688-0.1191406L48.5229797,3.477674l-0.0595703,0.3603516
		l0.0595703,0.3603516c-0.1396484,0.2802734-0.2597656,0.5595703-0.359375,0.8603516
		c0.7197266,0.1601562,1.4804688,0.2597656,2.2802734,0.2597656l0.0595703,0.2998047l-0.2597656,0.0800781L48.8638,5.618299
		l-0.5605469,0.2207031c-0.1396484,0.5996094-0.2001953,1.2597656-0.1396484,1.9794922
		c0.5595703,0.1806641,1.2001953,0.3007808,1.8603516,0.320312c0.6601562,0.0205078,1.2998047,0.0800781,1.9199219,0.1806641
		l-3.640625,0.1396484l-0.2197266,0.4404297l0.1601562,0.3994141l-0.3808594,0.7402344
		c0.5810547,0.0800781,1.1611328,0.140625,1.7207031,0.2001953l0.4404297-0.0800781
		c1.1396484,0,2.1601562,0.1806641,3.1201172,0.5205078l-0.2197266,0.0595703c-0.8798828,0.0605469-1.7402344,0-2.6201172-0.2197266
		l-0.2802734,0.0800781l-0.2207031-0.0800781c-0.8994141-0.1005859-1.6796875,0.0800781-2.3398438,0.5l-0.0800781,0.2197266
		c0.5595703,0.5605469,1.2402344,1.0605469,2,1.4208984c1.0800781,0.3798828,2.2011719,0.7402344,3.3408203,1.0595703
		l-0.1396484,0.1601562L50.3638,13.2403688l-0.3398438-0.140625l-0.4404297,0.0605469l-2.6201172-1.2802734
		c-0.3007812,0.5800781-0.640625,1.0800781-1.0400391,1.5205078c-0.4208984,0.4599609-0.8603516,0.8994141-1.4003906,1.3203125
		C45.0229797,14.1202517,45.4429016,13.4806032,45.8628235,12.860486z"/>
	<path class="st0" d="M55.3179016,13.0196657c1-1.0400391,2.0205078-2.0595703,3.1005859-3.0205078
		c1.0400391-0.9794922,2.0410156-1.9599609,3.0009766-2.9599605h0.2197266l0.5605469,0.2792969l0.1396484,0.4208984
		c1.2001953,0.4999995,2.3603516,0.9599605,3.5205078,1.4394526c1.140625,0.4804688,2.28125,1.0605469,3.3613281,1.7607422
		L69.3013,11.2393923l-0.5,0.140625c-1.140625-0.8007812-2.3613281-1.4404297-3.6416016-1.9404297
		c-1.3193359-0.4599609-2.5996094-0.9404297-3.8798828-1.4003906l-5.7412109,5.3408203L55.3179016,13.0196657z
		 M56.9380188,5.2579474l-0.1201172-0.7197266l0.2607422-0.1396484L57.7388,4.618299
		c0.5996094-0.4804688,1.2597656-0.8203125,1.9804688-1.0205078c0.7001953-0.1796875,1.4199219-0.2998047,2.2001953-0.3994141
		l0.0595703-0.2207031c-0.5195312-0.4199219-0.7792969-0.9794923-0.7792969-1.6396486l0.2998047-0.2207031
		c0.2802734,0.7207031,0.6601562,1.3808595,1.2001953,1.9404298L62.980011,3.118299l2.5605469-0.3603516
		c0.8398438,0,1.6201172,0.1796875,2.3203049,0.5205078l0.0800858,0.4794922l-0.7001953,0.9404297h-0.5l0.5595703-0.7998047
		V3.6778693c-0.7597656-0.3203125-1.5996094-0.4394531-2.5400391-0.3398438
		c-1.0400391,0.2197266-2.1005859,0.3798828-3.1806641,0.4804688c-1.1005859,0.0996094-2.1005859,0.3994141-2.9804688,0.9394531
		l-0.2207031,0.5h-0.2998047l-0.2802734-0.1591797v0.3798828l0.5,0.4794922v0.2207031l-0.5,0.0800781
		C57.4389954,5.9581428,57.1382141,5.6388068,56.9380188,5.2579474z M57.598175,8.8194704
		c0.4609375-0.7207031,1.0009766-1.420898,1.640625-2.1005855c0.6005859-0.7001953,1.1806641-1.3603516,1.7607422-2.0205078
		h0.3398438l0.4404297,0.3603516l-0.8408203,0.7802734l-1.1601562,0.9794922
		c-0.5996094,0.8408203-1.3203125,1.6210933-2.1201172,2.3603511L57.598175,8.8194704z M61.4995422,13.0196657
		c-0.5205078-0.7197266-0.8603516-1.4794922-1-2.2802734l0.2792969-0.4394531
		c0.5605469-0.3603516,1.1806641-0.6005859,1.8603516-0.7001953c0.6601562,0.0595703,1.2402344,0.2197266,1.7607422,0.4794922
		l0.2802734,1.2207031l-0.0800781,1.3603516l0.0800781,0.2197266c-0.9003906,0.2402344-1.8203125,0.4404297-2.7607422,0.5605469
		L61.4995422,13.0196657z M64.1196594,10.9395876l-0.2197266-0.4804688
		c-0.3603516-0.1992188-0.7998047-0.2792969-1.2607422-0.2197266l-0.2197266,0.0605469l-0.2998047-0.0605469l-0.7001953,0.6601562
		l-0.0800781,0.7001953l0.5800781,0.9804688h1.9804688C64.1001282,12.1202517,64.1802063,11.5802126,64.1196594,10.9395876z
		 M66.4604797,7.258924L63.339386,5.6983771l-0.1396484-0.4404297c0.1796875-0.1396484,0.4003906-0.1992188,0.6201172-0.1591797
		c0.5400391,0.3994141,1.0800781,0.7402344,1.640625,1c0.5800781,0.2998047,1.0996094,0.6201172,1.6201172,1l0.0800781,0.3798828
		l-0.3398438,0.2001953L66.4604797,7.258924z"/>
	<path class="st0" d="M72.8901672,10.2393923c-0.2793045-0.7998047-0.5195312-1.6201172-0.7197266-2.420898
		c-0.2197266-0.7998047-0.3603516-1.6601562-0.4003906-2.5605469c-0.0595703-0.7197266,0.0800781-1.3193359,0.4199219-1.8603516
		l0.2001953-0.0595703l0.0800781,0.3398438L72.27005,5.4786506c0.0800781,1.0400391,0.2607422,2.0400391,0.5605469,2.9804683
		c0.2802658,0.9599609,0.6601562,1.8603516,1.1796875,2.7001953l0.3603516,0.0800781l0.2197266-0.0800781v0.5205078
		l-0.2197266,0.2597656h-0.2802734C73.6304016,11.4200563,73.2104797,10.8595095,72.8901672,10.2393923z M79.4116516,8.3194704
		c-0.5595703-0.3408198-1.1796875-0.6806636-1.7802734-1.0009761L77.5513,6.9591193l0.640625-0.140625l0.2792969,0.3603516
		c0.5205078,0.2998047,1.0410156,0.5800781,1.5605469,0.9199214c0.5400391,0.3203125,1.0400391,0.640625,1.5410156,0.9404297
		l0.0791016,0.2597656c-0.1396484,0.140625-0.3193359,0.2001953-0.5595703,0.1601562
		C80.5317688,9.039197,79.9721985,8.6388063,79.4116516,8.3194704z M77.691925,4.118299l0.5-0.5l1.7597656-0.4199219
		l1.0009766,0.3398438l0.0791016,0.3603516L80.7319641,3.977674c-0.2802734-0.2998047-0.6396484-0.3994141-1.0400391-0.2998047
		l-1.2207031,0.5800781c-0.0996094,0.2402344-0.2597656,0.3798828-0.4794922,0.4404297
		C77.7514954,4.5977912,77.651886,4.3985724,77.691925,4.118299z"/>
	<path class="st0" d="M87.9389954,12.8800173c-0.3398438-0.6601562-0.5800781-1.3798828-0.7197266-2.1806641
		c-0.140625-0.7802734-0.2802734-1.5400391-0.4208984-2.2998047l-0.2792969-0.0800781l-1.0605469,0.359375L85.2388,8.3194704
		c0.4794922-0.3007812,1-0.4804683,1.5595703-0.5800776l0.2001953-2.5605469l-0.5595703-0.2001953
		c-0.4804688,0.0800781-0.9208984,0.2197266-1.3603516,0.4199219c-0.1601562-0.0605469-0.2402344-0.2001953-0.1806641-0.4199219
		c0.640625-0.2402344,1.3408203-0.4003906,2.1005859-0.5l0.4199219-1.8007812h0.3603516l0.0800781,0.6005859l-0.2197266,1.2001953
		c0.6601562,0.1796875,1.3603516,0.3798828,2.0605469,0.5800781l0.0800781,0.1992188l-0.2207031,0.140625
		c-0.4599609-0.2001953-1-0.2998047-1.5595703-0.2998047l-0.5009766,0.2197266l-0.1992188,2.1601562l0.5595703,0.0605469
		l2.0009766-0.140625l0.0595703,0.2001953c-0.9404297,0-1.7607422,0.2998047-2.5009766,0.8603511l-0.0400391,0.2197266
		c0.0800781,0.8007812,0.2001953,1.5810547,0.3408203,2.3408203c0.1396484,0.7597656,0.5,1.4599609,1.0595703,2.0800781
		l0.4208984,0.140625c0.7197266-0.5400391,1.4394531-1.1005859,2.1201172-1.7207031
		c0.6796875-0.6201172,1.2802734-1.2802734,1.8603516-2V9.1788454L93.120636,8.9591188l0.2597656-0.0595703l0.2197266,0.3994141
		c-0.4003906,0.8007812-1.0205078,1.5810547-1.7802734,2.3007812c-0.4599609,0.4199219-0.9199219,0.8798828-1.3603516,1.3398438
		c-0.4599609,0.4804688-1.0205078,0.7207031-1.6806641,0.7207031L87.9389954,12.8800173z"/>
	<path class="st0" d="M99.1079407,11.5196657c-0.2998047-0.7197266-0.5400391-1.4804688-0.7001953-2.3007812V6.1583381
		l0.7802734-0.0800781l0.0605469,0.4404297c-0.1806641,0.5205078-0.3007812,1.0800781-0.3603516,1.7207026l0.0800781,0.2597656
		l-0.0800781,0.3603516c0.0996094,0.6796875,0.2597656,1.2998047,0.4804688,1.9003906
		c0.1992188,0.5996094,0.5,1.1796875,0.859375,1.7597656l0.9208984,0.1201172v0.2207031
		c-0.2207031,0.2597656-0.5,0.359375-0.8408203,0.2998047C99.7485657,12.719861,99.348175,12.179822,99.1079407,11.5196657z
		 M106.7895813,8.7989626c-0.2001953-0.9999995-0.3994141-2.0205073-0.5996094-2.9999995l0.6601562-0.0605469
		c0.0800781,0.9804688,0.2402344,1.9404297,0.4599609,2.9003901c0.2197266,0.9609375,0.4199219,1.9208984,0.6601562,2.8808594
		l-0.3398438,0.1396484C107.2495422,10.7599001,106.9497375,9.7989626,106.7895813,8.7989626z"/>
	<path class="st0" d="M113.0239563,11.5196657c-0.2998047-0.7197266-0.5400391-1.4804688-0.7001953-2.3007812V6.1583381
		l0.7802734-0.0800781l0.0605469,0.4404297c-0.1806641,0.5205078-0.3007812,1.0800781-0.3603516,1.7207026l0.0800781,0.2597656
		l-0.0800781,0.3603516c0.0996094,0.6796875,0.2597656,1.2998047,0.4804688,1.9003906
		c0.1992188,0.5996094,0.5,1.1796875,0.859375,1.7597656l0.9208984,0.1201172v0.2207031
		c-0.2207031,0.2597656-0.5,0.359375-0.8408203,0.2998047C113.6645813,12.719861,113.2641907,12.179822,113.0239563,11.5196657z
		 M120.7055969,8.7989626c-0.2001953-0.9999995-0.3994141-2.0205073-0.5996094-2.9999995l0.6601562-0.0605469
		c0.0800781,0.9804688,0.2402344,1.9404297,0.4599609,2.9003901c0.2197266,0.9609375,0.4199219,1.9208984,0.6601562,2.8808594
		l-0.3398438,0.1396484C121.1655579,10.7599001,120.8657532,9.7989626,120.7055969,8.7989626z"/>
</g>
<g>
	<g>
		<line class="st1" x1="1.5" y1="37.4539909" x2="1.5" y2="37.4539909"/>
		<path class="st2" d="M2.5730743,29.2467175C5.8432312,17.0162487,16.2464142,7.7008185,29.0524445,6.0306525"/>
		<line class="st1" x1="33.1913147" y1="5.7628303" x2="33.1913147" y2="5.7628303"/>
	</g>
</g>
</svg>
