<?xml version="1.0" encoding="utf-8"?>
<!-- Generator: Adobe Illustrator 26.0.0, SVG Export Plug-In . SVG Version: 6.00 Build 0)  -->
<svg version="1.1" id="レイヤー_1" xmlns="http://www.w3.org/2000/svg" xmlns:xlink="http://www.w3.org/1999/xlink" x="0px"
	 y="0px" viewBox="0 0 190.2597504 69.8404312" style="enable-background:new 0 0 190.2597504 69.8404312;" xml:space="preserve">
<style type="text/css">
	.st0{fill:#FFFFFF;stroke:#FFFFFF;stroke-width:0.75;stroke-miterlimit:10;}
	.st1{fill:none;stroke:#FFFFFF;stroke-width:4;stroke-linecap:round;stroke-linejoin:round;}
	.st2{fill:none;stroke:#FFFFFF;stroke-width:4;stroke-linecap:round;stroke-linejoin:round;stroke-dasharray:0,8.3753862;}
</style>
<g>
	<path class="st0" d="M6.5402694,25.2930698c0.7998047-1.1992188,1.4404297-2.4794922,1.9199214-3.8388672L7.300035,21.053812
		c-2.1591797,0.3603516-4.1591797,1.2001953-5.9589844,2.3994141l-0.7597656-1.2792969
		c1.4794922-0.3603516,2.8798828-0.7998047,4.3193359-1.2001953c1.3994141-0.4394531,2.8798828-0.7197266,4.3994136-0.9199219
		c0.4794922-0.8398438,0.7197266-1.8798828,0.7197266-2.9990234l-0.7197266-0.4404297
		c-1.3193355,0.7597656-2.7597651,1.3203125-4.2792964,1.5595703l-0.2802734-0.7998047
		c1.7998047-0.7998047,3.5996089-1.3994141,5.3994136-1.8789062l0.1601562-2.9599609l-0.2802734-1.0400391l-0.7197266-0.1201172
		l-1.7197261,0.8398438l-0.5595703,1L6.5803084,13.335062l-1.2392578-0.5195312v-0.4404297l0.6796875-0.7197266
		c1.1992188-0.5595703,2.5195308-1.0400391,3.8388667-1.4394531l0.2802734-2.8398433L9.4201517,7.0958047
		C8.0197611,8.0557652,6.5002303,8.7364292,4.9006209,9.0958042L4.5803084,8.2159214
		c1.2402344-0.7197261,2.5996094-1.3193355,3.9999995-1.679687V6.1368203L6.5803084,4.2569375L6.0207381,2.5772498h0.8798828
		c0.6396484,1.3193359,1.5996089,2.3994143,2.8388667,3.2392581h1.2402344
		c1.4394531-1.5996094,2.6396484-3.3593752,3.5595703-5.2392578l0.8798828-0.1601562l0.3994141,0.7197266
		c-0.9199219,1.2001952-1.9589844,2.4804688-3.1191406,3.7998047v0.4394531l2,0.1601562l3.2792978-0.1601562l0.1601562,0.6005859
		l-0.8798828,0.3994141c-0.5605469-0.2392578-1.2402344-0.359375-1.9599619-0.2392578l-3.4394531,0.3994141l-0.1201172,0.7197266
		l0.1201172,0.7197266c-0.2802734,0.5605464-0.5195312,1.1201167-0.7197266,1.7197261
		c1.4394531,0.3203125,2.9589844,0.5205078,4.5585938,0.5205078l0.1201172,0.5996094L15.299058,10.975687l-2.7597656-0.1601562
		l-1.1201172,0.4404297c-0.2792969,1.1992188-0.3994141,2.5195312-0.2792969,3.9589844
		c1.1191406,0.3603516,2.3994141,0.5996094,3.71875,0.6396484c1.3203135,0.0400391,2.5996103,0.1601562,3.8398447,0.3603516
		l-7.2792978,0.2792969l-0.4394531,0.8798828l0.3203125,0.7998047l-0.7607422,1.4804688
		c1.1601562,0.1601562,2.3203125,0.2792969,3.4394531,0.3994141l0.8798828-0.1601562
		c2.2802744,0,4.3193369,0.3603516,6.2392588,1.0400391l-0.4394531,0.1201172c-1.7597656,0.1201172-3.4794922,0-5.2392588-0.4394531
		l-0.5605469,0.1591797l-0.4394531-0.1591797c-1.7998047-0.2001953-3.359375,0.1591797-4.6796875,0.9990234L9.580308,22.053812
		c1.1191406,1.1201172,2.4794922,2.1191406,3.9990234,2.8398438c2.1591797,0.7597656,4.399415,1.4794922,6.6787119,2.1191406
		l-0.2802734,0.3203125l-4.4384775-1.2802734l-0.6806641-0.2792969l-0.8798828,0.1191406l-5.2382812-2.5595703
		c-0.6005859,1.1601562-1.280273,2.1601562-2.0800776,3.0400391c-0.8398438,0.9199219-1.7197266,1.7998047-2.7998049,2.6396484
		C4.8605819,27.8126011,5.7004256,26.5333042,6.5402694,25.2930698z"/>
	<path class="st0" d="M28.1496449,21.6534214c-0.5605469-1.4394531-1-2.9189453-1.3203125-4.4384766
		c-0.359375-1.5205078-0.5195312-3.1201172-0.5195312-4.8398438l0.2792969-0.5996094
		c1.0400391-0.5595703,2.2001953-0.9599609,3.4394531-1.2001953c1.2001953-0.2392578,2.4804668-0.359375,3.6796856-0.359375
		l1.1601562,0.4394531c0.2792969,0.9199219,0.359375,1.9599609,0.2792969,3
		c-0.1191406,1.4394531-0.359375,2.7988281-0.7197266,4.1591797l0.2802734,1l0.2802734,0.5595703
		c-2.2001953,0.4804688-4.1992168,1.3994141-6.1191387,2.7197266L28.1496449,21.6534214z M33.7082367,18.654398
		l-0.1201172-1.8798828c0.3603516-1.7197266,0.5605469-3.4794922,0.5605469-5.2792969
		c-0.6005859-0.5595703-1.3603516-0.7597656-2.2802715-0.5595703c-1.3193359,0.1201172-2.5195312,0.5996094-3.5595703,1.5595703
		c-0.6796875,0.5205078-0.9990234,1.1201172-0.9990234,1.8798828c0.1201172,2.0791016,0.5195312,4.0390625,1.2792969,5.8789062
		l0.5996094,0.1201172l4.3994122-1.1201172L33.7082367,18.654398z M34.5480804,26.9727573
		c1.2802734-1.5996094,2.6396484-3.1191406,4.1191406-4.5585938c1.4404297-1.4404297,3.0400391-2.7597656,4.7197266-4.0400391
		v-0.3994141l-0.2802734-1.3203125l-1.2792969-0.1601562c-1.3203125,0.6005859-2.6796875,1.1601562-4.1591797,1.7197266
		l-0.2402344-0.5595703c1.7998047-1.1601562,3.71875-2,5.8388672-2.5996094
		c0.4794922-1.5996094,0.7197266-3.2792969,0.7197266-4.9990234c-0.3994141-0.2802734-0.8398438-0.3603516-1.3193359-0.2802734
		l-2.5595703,0.8798828l-0.7998047,1.4003906l-0.7607422,0.1591797c-0.4794922-0.2792969-0.6796875-0.7197266-0.5595703-1.2792969
		c1.7998047-1.4394531,3.8398438-2.1591797,6.1191406-2.1591797l0.5595703-2.4003901h0.6005859l0.3994141,0.9599609
		l-0.2802734,1.1601558l0.8398438,0.2802734l1.5605469-0.1601562l0.7197266,0.7597656v0.3994141l-0.4404297,0.1201172
		c-0.5195312-0.5595703-1.2392578-0.7197266-2.0791016-0.5195312l-0.7197266,0.2792969l-0.8798828,5.1191406
		c0.8398438,0.2802734,1.7998047,0.4003906,2.8789062,0.2802734l0.4003906-0.1201172
		c0.7597656,0,1.3193359,0.2802734,1.5996094,0.8798828l-0.7597656,0.2802734l-2.5195312-0.1601562
		c-0.6796875,0-1.2402344,0.2802734-1.5996094,0.8398438l-0.1201172,1.0400391
		c-0.1201172,1.0400391,0.1601562,1.8798828,0.8398438,2.5595703c1.1992188,1.0400391,2.5195312,1.9599609,3.9990234,2.6396484
		c1.4394531,0.7597656,2.7998047,1.5996094,4.1191406,2.5195312l0.1201172,0.5996094h-0.4394531
		c-1.4003906-0.8798828-2.7998047-1.6396484-4.2392578-2.3994141c-1.4404297-0.7197266-2.8398438-1.4394531-4.2792969-2.1992188
		l-0.1201172,1.8388672l0.3994141,2.4794922l-0.5595703,0.2802734c-0.5595703-1.5996094-0.8398438-3.3994141-0.8398438-5.3193359
		l-0.5996094-0.1191406c-1.4404297,0.9189453-2.7998047,2.0390625-4.1201172,3.2792969
		c-1.3193359,1.2392578-2.5986328,2.4794922-3.8388672,3.71875L34.5480804,26.9727573z"/>
	<path class="st0" d="M59.4211273,17.9747105c-1.1201172-3.1201172-1.6396484-6.3994141-1.6396484-9.8388672l0.1191406-0.3994136
		l-0.1191406-1.2802734l0.7998047-0.3994141c0.7597656,0.6396484,0.9990234,1.5595703,0.7197266,2.679687
		c-0.4804688,0.4794922-0.6005859,1.0390625-0.4003906,1.7197266c0.2001953,2.7587891,0.7197266,5.3984375,1.6396484,7.8378906
		c0.8798828,2.4794922,2.2001953,4.7597656,3.8798828,6.8789062l0.7998047,0.1201172
		c1.5195312-1.0400391,2.8398438-2.2792969,4.0791016-3.7197266c1.1601562-1.4394531,2.4394531-2.7587891,3.8398438-3.9589844
		v0.4003906c-1.1201172,1.5595703-2.2802734,3.0390625-3.5195312,4.5185547
		c-1.2001953,1.4804688-2.6396484,2.7197266-4.2392578,3.7998047l-1.1201172,0.2402344
		C62.0998383,23.9336948,60.4601898,21.053812,59.4211273,17.9747105z"/>
	<path class="st0" d="M83.0724945,22.6133823c-0.5996094-1.4394531-1.0800781-2.9589844-1.3994141-4.5986328v-6.1191406
		l1.5595703-0.1601562l0.1201172,0.8798828c-0.3603516,1.0400391-0.6005859,2.1591797-0.7197266,3.4394531l0.1591797,0.5195312
		l-0.1591797,0.7207031c0.1992188,1.359375,0.5195312,2.5986328,0.9589844,3.7988281
		c0.4003906,1.2001953,1,2.359375,1.7197266,3.5195312l1.8398438,0.2402344v0.4394531
		c-0.4394531,0.5205078-1,0.7197266-1.6796875,0.5996094C84.3527679,25.0127964,83.5519867,23.9336948,83.0724945,22.6133823z
		 M98.4299164,17.1749058c-0.4003906-2-0.7998047-4.0400391-1.2001953-5.9990234l1.3203125-0.1201172
		c0.1601562,1.9599609,0.4794922,3.8789062,0.9199219,5.7988281c0.4394531,1.9199219,0.8398438,3.8398438,1.3193359,5.7587891
		l-0.6796875,0.2802734C99.3498383,21.0938511,98.7502289,19.1739292,98.4299164,17.1749058z"/>
	<path class="st0" d="M112.8361664,29.1729527l-0.7197266,0.1591797l-0.8398438-0.4394531l-0.1601562-1.1601562
		c0.1201172-0.9599609,0.4394531-1.7597656,1-2.4394531l0.7197266-0.1201172l2,1.2802734
		c0.4794922,0.5595703,0.7197266,1.1992188,0.7197266,1.8398438l-0.7197266,1.3193359l-0.7597656,0.1201172L112.8361664,29.1729527z
		 M112.6359711,16.8545933c-0.1601562-1.5195312-0.2001953-3.0791016-0.1201172-4.6787109
		c0.2001953-1.5205078,0.5205078-3.0400391,0.9199219-4.5195308c0.3603516-1.4404297,0.9199219-2.8798828,1.6796875-4.1992188
		l0.6005859-0.1601562c0.6396484,1.1601565,0.9990234,2.4794924,1.0390625,3.9189456
		c0.0400391,1.4804683,0.0800781,2.9199214,0.0800781,4.3593745c-0.2001953,1.5996094-0.5195312,3.1601562-0.8798828,4.7197266
		c-0.359375,1.5195312-0.7998047,2.9990234-1.2792969,4.4384766l-0.6796875,0.3203125
		C113.2355804,19.7745152,112.7560883,18.3741245,112.6359711,16.8545933z"/>
</g>
<g>
	<g>
		<line class="st1" x1="140.2597504" y1="19.8404331" x2="140.2597504" y2="19.8404331"/>
		<path class="st2" d="M148.6008148,20.5626011c21.190918,3.7128906,37.5986328,21.3249531,39.4790039,43.092041"/>
		<line class="st1" x1="188.2597504" y1="67.8404312" x2="188.2597504" y2="67.8404312"/>
	</g>
</g>
</svg>
