<?xml version="1.0" encoding="utf-8"?>
<!-- Generator: Adobe Illustrator 26.0.1, SVG Export Plug-In . SVG Version: 6.00 Build 0)  -->
<svg version="1.1" id="レイヤー_1" xmlns="http://www.w3.org/2000/svg" xmlns:xlink="http://www.w3.org/1999/xlink" x="0px"
	 y="0px" viewBox="0 0 87.4265442 61.3049126" style="enable-background:new 0 0 87.4265442 61.3049126;" xml:space="preserve">
<style type="text/css">
	.st0{fill:#ED5645;stroke:#ED5645;stroke-width:0.75;stroke-miterlimit:10;}
	.st1{fill:none;stroke:#ED5645;stroke-width:3;stroke-linecap:round;stroke-linejoin:round;}
	.st2{fill:none;stroke:#ED5645;stroke-width:3;stroke-linecap:round;stroke-linejoin:round;stroke-dasharray:0,8.0017633;}
</style>
<g>
	<path class="st0" d="M0.4036116,59.4091797c0.2998047-2.1748047,0.6748046-4.2988281,1.125-6.3984375
		s0.9746095-4.1992188,1.6250001-6.2988281l0.625-0.3496094l0.0996094,0.7246094l-0.1748047,0.4501953
		c1,1.6748047,2.1738281,3.2744141,3.5234375,4.7988281c1.3251948,1.5498047,2.6494136,3.0244141,3.9492183,4.4492188
		l0.5253906,0.0996094c0.375-1.0244141,0.6992188-2.0742188,0.9746094-3.1240234
		c0.2998047-1.0498047,0.4248047-2.1748047,0.3496094-3.3740234l-0.2744141-4.2246094l0.0996094-0.5244141
		c0.2998047,0.8994141,0.4746094,1.8242188,0.5498047,2.8242188s0.125,1.9746094,0.1748047,2.9248047
		c-0.0498047,1.1992188-0.1992188,2.3486328-0.4746094,3.4238281c-0.2753906,1.0742188-0.625,2.1240234-1.0498047,3.1494141
		l-0.3496094,0.0996094l-1.5996094-1.375l-0.7998047-1.2490234c-1.125-1.0751953-2.1748042-2.2246094-3.1494136-3.4248047
		c-0.9746094-1.1992188-1.9248047-2.3486328-2.8242188-3.4990234c-0.5751953,1.7998047-1.0498047,3.6738281-1.3994142,5.5488281
		c-0.375,1.875-0.7001953,3.7744141-0.9755859,5.6738281l0.1503906,0.6494141l-0.524414,0.25
		C0.4036116,60.2841797,0.3293929,59.859375,0.4036116,59.4091797z"/>
	<path class="st0" d="M15.3293924,59.4589844c0.4501953-2.0742188,1.0253916-4.0986328,1.6748056-6.0986328
		c0.6748047-1.9736328,1.3496094-3.9482422,2.0498047-5.9228516l0.5498047-0.0751953L19.7786121,47.8125l-0.0751953,0.4248047
		c0.3251953,1.1992188,0.7246094,2.3740234,1.2001953,3.5234375c0.4248047,1.1503906,0.8740234,2.3251953,1.2744141,3.5244141
		l0.4501953,0.0996094c0.7490234-1.1240234,1.5244141-2.2490234,2.3242188-3.3486328
		c0.75-1.0996094,1.4990234-2.1992188,2.1992188-3.3242188l0.3496094-0.0996094
		c0.4755859,1.5488281,0.7998047,3.1484375,1.0253906,4.8232422c0.2246094,1.7001953,0.4248047,3.3740234,0.5996094,5.0488281
		c0,0.4003906-0.1503906,0.7246094-0.4501953,0.9003906c-0.25-1.5498047-0.4746094-3.125-0.625-4.7490234
		c-0.1748047-1.5751953-0.4492188-3.1494141-0.8242188-4.6738281h-0.25
		c-0.7246094,1.0498047-1.4248047,2.1240234-2.1494141,3.1738281c-0.7753906,1.0751953-1.5244141,2.1494141-2.2998047,3.2246094
		l-0.3496094,0.0996094c-0.5996094-1.1992188-1.0996094-2.3994141-1.5-3.6240234
		c-0.4248047-1.2246094-0.8994141-2.4248047-1.4492188-3.6240234h-0.3496094
		c-0.4501953,1.7998047-1.0253906,3.5742188-1.625,5.2988281c-0.625,1.7744141-1.0996094,3.5742188-1.399415,5.3984375
		l0.1748056,0.3496094l-0.4248056,0.1005859C15.3547831,60.109375,15.2541971,59.8095703,15.3293924,59.4589844z"/>
	<path class="st0" d="M31.9788074,59.4091797c0.3007793-2.1748047,0.6748028-4.2988281,1.1249981-6.3984375
		s0.9746094-4.1992188,1.625-6.2988281l0.625-0.3496094l0.0996094,0.7246094l-0.1748047,0.4501953
		c0.9990234,1.6748047,2.1738281,3.2744141,3.5234375,4.7988281c1.3251953,1.5498047,2.6494141,3.0244141,3.9492188,4.4492188
		l0.5253906,0.0996094c0.375-1.0244141,0.6992188-2.0742188,0.9746094-3.1240234
		c0.2998047-1.0498047,0.4248047-2.1748047,0.3496094-3.3740234l-0.2744141-4.2246094l0.0996094-0.5244141
		c0.2998047,0.8994141,0.4746094,1.8242188,0.5498047,2.8242188s0.125,1.9746094,0.1748047,2.9248047
		c-0.0498047,1.1992188-0.1992188,2.3486328-0.4746094,3.4238281c-0.2753906,1.0742188-0.625,2.1240234-1.0498047,3.1494141
		l-0.3496094,0.0996094l-1.5996094-1.375l-0.7998047-1.2490234c-1.125-1.0751953-2.1748047-2.2246094-3.1494141-3.4248047
		c-0.9746094-1.1992188-1.9248047-2.3486328-2.8242188-3.4990234c-0.5751953,1.7998047-1.0498047,3.6738281-1.3994141,5.5488281
		c-0.375,1.875-0.7001953,3.7744141-0.9755859,5.6738281l0.1503906,0.6494141l-0.5244141,0.25
		C31.9788074,60.2841797,31.9045887,59.859375,31.9788074,59.4091797z"/>
	<path class="st0" d="M48.8352509,60.609375c-0.375-1.1005859-0.5996094-2.2998047-0.7001953-3.5498047l0.0751953-0.9746094
		l-0.0751953-0.2744141l0.0751953-0.2753906c-0.0996094-1.7744141-0.2246094-3.5488281-0.3496094-5.3232422
		c0.7001953-0.3505859,1.4492188-0.6503906,2.2246094-0.9003906l0.25-2.8486328l0.375-0.0751953
		c0.1748047,0.2998047,0.25,0.6494141,0.1748047,1.0498047l-0.1005859,1.7246094
		c0.375,0.1494141,0.7753906,0.2246094,1.25,0.1494141c0.1748047-1.0742188,0.3251953-2.1738281,0.4501953-3.2744141
		l-0.5253906-0.2744141c-1.4990234,0.125-2.7988281,0.5996094-3.9990234,1.4248047l-0.0996094-0.5253906
		c0.25-0.375,0.5498047-0.5996094,0.9746094-0.6992188c0.7001953-0.1757812,1.4248047-0.3505859,2.1992188-0.5253906
		c0.7255859-0.1494141,1.5-0.2001953,2.3496094-0.125l1.2246094,0.1748047l0.1005859,0.4755859L54.259079,46.1875
		c-0.2998047-0.2001953-0.6503906-0.2998047-1.0498047-0.2246094c-0.3251953,0.9990234-0.4501953,2.0488281-0.375,3.1992188
		c0.6503906,0.3496094,1.2998047,0.6494141,1.9492188,0.8740234c0.1757812,0.8251953,0.25,1.6748047,0.2001953,2.5751953
		l-0.0996094,0.4492188l0.0996094,2.8496094c-0.1748047,1.5498047-0.5498047,2.8740234-1.0742188,4.0742188l-0.625-0.1748047
		c-1.4248047,0.125-2.7246094,0.4746094-3.9238281,1.0742188L48.8352509,60.609375z M54.4338837,54.4609375l-0.0751953-1.6748047
		l0.0751953-0.2753906l-0.0751953-0.7998047l0.0751953-1.0498047l-0.25-0.375l-1.1748047-0.3242188
		c-0.1748047,0.3994141-0.25,0.8496094-0.1748047,1.2998047c0.125,0.9746094,0.4746094,1.8486328,1.0751953,2.6992188
		l-0.375,0.0742188c-1-1.1992188-1.4746094-2.5986328-1.4003906-4.1738281l-1.0742188-0.0996094
		c-0.4746094,0.9492188-0.625,2.0498047-0.4501953,3.2988281l0.2753906,1.4003906l-0.2753906,0.0996094
		c-0.4492188-1.125-0.6494141-2.3496094-0.5244141-3.7246094l0.0996094-0.5498047l-0.5498047-0.1494141l-0.8994141,0.6992188
		l-0.25,2.0498047l0.3496094,3.4746094l1.1494141,0.0996094l3.9248047-0.375h0.3496094L54.4338837,54.4609375z
		 M54.259079,56.6845703c-0.3496094-0.3242188-0.7998047-0.4492188-1.3251953-0.3242188
		c-1.4492188,0.0996094-2.7988281,0.4248047-4.0986328,0.9746094l-0.0996094,0.875l0.375,1.6992188l0.6992188,0.0751953
		c1.25-0.375,2.5742188-0.5498047,3.9990234-0.5996094C53.9836884,58.484375,54.134079,57.5849609,54.259079,56.6845703z
		 M60.7825165,56.8847656c-0.7998047-0.5244141-1.5498047-1.1992188-2.25-1.9492188
		c-0.7744141-0.7753906-1.2490234-1.625-1.4238281-2.5996094c0.6992188-0.2744141,1.4746094-0.5,2.3242188-0.625
		c0.8242188-0.125,1.6240234-0.2998047,2.3740234-0.5c0.5498047-1.1494141,0.8496094-2.3740234,0.9248047-3.6738281
		c-0.3251953-0.2246094-0.7246094-0.3251953-1.1748047-0.2744141c-1.2490234,0.0742188-2.2988281,0.5498047-3.1992188,1.4492188
		l-0.5498047-0.2753906v-0.3496094c0.6748047-0.5498047,1.3994141-0.8994141,2.2246094-1.0244141
		c0.8251953-0.1503906,1.6748047-0.2753906,2.4990234-0.4003906L63.0569305,46.9375
		c0.1748047,0.5,0.25,1.0742188,0.1748047,1.6748047l-0.5996094,2.3994141l0.4248047,0.1992188l0.0996094,0.3251953
		c-0.8242188,0.25-1.6738281,0.4248047-2.5244141,0.5c-0.8740234,0.0996094-1.6992188,0.2998047-2.4492188,0.6494141
		l-0.0996094,0.2753906c0.25,0.8994141,0.7744141,1.6992188,1.5996094,2.4238281l0.7246094,0.7001953l2.7490234,1.5996094
		c0.375-0.7744141,0.9248047-1.4248047,1.6748047-1.9746094l-1.2246094,2.5l-0.375,0.0996094
		C62.4065399,57.8847656,61.6067352,57.4345703,60.7825165,56.8847656z"/>
	<path class="st0" d="M67.6291962,55.3105469c1.4746094-1.75,2.9990234-3.3994141,4.6230469-5.0244141
		c1.5996094-1.5996094,3.2246094-3.1738281,4.8496094-4.6484375l1.1494141-0.4746094l0.2744141,0.7490234
		c1.4248047,0.8251953,2.875,1.7753906,4.2998047,2.8496094c1.3740234,1.0751953,2.7734375,2.1748047,4.1240234,3.3242188
		l0.0742188,0.625l-0.5244141,0.2753906c-0.875-0.8505859-1.7744141-1.6748047-2.6992188-2.4501953
		c-0.9501953-0.7490234-1.875-1.4990234-2.8242188-2.2246094c-0.9003906-0.4492188-1.7753906-0.9492188-2.6494141-1.4238281
		l-0.5-0.5498047h-0.3496094c-1.5996094,1.3994141-3.125,2.8242188-4.5742188,4.2988281
		c-1.4501953,1.4990234-2.9248047,2.9990234-4.3994141,4.4990234l-0.3242188,0.3496094l-0.4501953,0.0751953L67.6291962,55.3105469z
		 M75.7268524,58.8847656c-0.5498047-1.3251953-0.8994141-2.6748047-1.0498047-4.1240234l0.6748047-0.1748047l0.5253906,0.1748047
		l2.6484375-0.9003906c1.1005859-0.0498047,2.0996094,0.2255859,2.9746094,0.7998047l0.0751953,0.6503906
		c-0.3496094,1.0742188-0.5996094,2.1738281-0.7753906,3.2988281l-0.4492188,0.1748047
		c-0.2255859-0.2246094-0.5-0.3242188-0.875-0.3242188l-3.4238281,0.6992188L75.7268524,58.8847656z M74.8274384,52.0859375
		l0.2490234-0.375c0.9501953-0.375,1.9501953-0.5742188,3-0.6992188s2.0996094-0.2753906,3.1494141-0.4501953l0.3496094,0.1748047
		l0.0996094,0.4501953l-0.625,0.625l-0.0742188-0.4501953h-0.5253906l-0.5244141,0.1748047l-0.3505859-0.0996094
		c-0.7490234,0.25-1.5742188,0.3994141-2.3740234,0.4492188c-0.8251953,0.0751953-1.5498047,0.375-2.1992188,0.9003906
		L74.8274384,52.0859375z M80.8000946,55.2099609c-0.4746094-0.4746094-1.0244141-0.6992188-1.6738281-0.6240234
		l-0.7998047,0.1748047l-0.25-0.1005859c-0.8251953,0.1748047-1.5751953,0.5498047-2.2998047,1.0996094l-0.0498047,0.7998047
		l0.6748047,1.5253906l0.625,0.0996094c1-0.25,2.0498047-0.3994141,3.1494141-0.4746094
		C80.4006805,56.8847656,80.6252899,56.0605469,80.8000946,55.2099609z"/>
</g>
<g>
	<g>
		<line class="st1" x1="48.210434" y1="32.0727539" x2="48.210434" y2="32.0727539"/>
		<path class="st2" d="M49.245636,24.1547852C52.4003296,12.3564453,62.4362488,3.3696289,74.7901764,1.7583008"/>
		<line class="st1" x1="78.7829361" y1="1.5" x2="78.7829361" y2="1.5"/>
	</g>
</g>
</svg>
