<?xml version="1.0" encoding="utf-8"?>
<!-- Generator: Adobe Illustrator 26.0.1, SVG Export Plug-In . SVG Version: 6.00 Build 0)  -->
<svg version="1.1" id="レイヤー_1" xmlns="http://www.w3.org/2000/svg" xmlns:xlink="http://www.w3.org/1999/xlink" x="0px"
	 y="0px" viewBox="0 0 136.0611877 61.0955353" style="enable-background:new 0 0 136.0611877 61.0955353;" xml:space="preserve">
<style type="text/css">
	.st0{fill:#ED5645;stroke:#ED5645;stroke-width:0.75;stroke-miterlimit:10;}
	.st1{fill:none;stroke:#ED5645;stroke-width:3;stroke-linecap:round;stroke-linejoin:round;}
	.st2{fill:none;stroke:#ED5645;stroke-width:3;stroke-linecap:round;stroke-linejoin:round;stroke-dasharray:0,7.6126704;}
</style>
<g>
	<path class="st0" d="M64.3447418,15.1370401l0.8242188,1.3251963l0.25,0.0996094
		c0.2998047-1.250001,0.4248047-2.5498056,0.3496094-3.9238291l-0.3496094-0.1748047
		c-0.7001953,0.25-1.3994141,0.5498047-2.1240234,0.8740234l-0.4501953-0.1748047V12.838212
		c0.8251953-0.625,1.7490234-1.0253906,2.7490234-1.25l0.2753906-1.5996094l-0.1005859-0.375
		c0.2753906-1.3251953,0.25-2.624023-0.0742188-3.8994136l-0.3505859-0.0996094
		c-0.7744141,0-1.4248047,0.2246094-1.9746094,0.7246094l-0.5244141,0.5253906c-0.3496094-0.0507812-0.5-0.25-0.4501953-0.625
		c0.375-0.4501953,0.7998047-0.8251953,1.25-1.0751953l1.9492188-0.3496094l0.1005859-0.7246094l-0.2001953-1.4746094
		l0.4746094-0.1005859l0.3496094,0.1748047c0.2255859,0.3505859,0.3251953,0.75,0.25,1.1503906l-0.0996094,0.7998047
		l0.4501953,0.1748047l1.3496094-0.1748047l0.1748047,0.5244141l-0.4501953,0.4501953h-0.2744141L67.1181793,5.439775
		c-0.4746094,0.8242188-0.6748047,1.7490234-0.5742188,2.7988276c0.0751953,1.0498047,0.0244141,2.0244141-0.125,2.9746094
		l0.3251953,0.1748047l1.7744141-0.2744141l0.0751953,0.2744141c-0.7001953,0.25-1.3505859,0.5253906-2.0253906,0.7998047
		l-0.1494141,0.6503906l0.0498047,1.7744141c0,1.3496094-0.2753906,2.6240244-0.875,3.7988291l-0.3496094,0.1748047
		C64.7187653,17.5364552,64.4189606,16.3616505,64.3447418,15.1370401z M73.7422028,16.2122364l-0.1503906-2.5996103h-0.2744141
		l-1.4248047,1l-1.3994141,1.3242188l-0.1005859,0.3496103h-0.625l-0.0996094-0.4248056
		c0.5498047-0.6992188,1.1748047-1.3740234,1.8994141-1.9746094c0.7001953-0.5996094,1.3496094-1.1738281,2.0244141-1.7988281
		l0.0751953-2.0244141l-0.7998047-0.0751953c-0.5244141,0.2744141-1.0996094,0.4492188-1.6748047,0.5244141L70.917984,9.9886026
		l0.1748047-0.375l2.4990234-0.625c0.2001953-1.3496089,0.2998047-2.749023,0.25-4.1738276l-0.3496094-0.1748047
		L71.542984,5.1643844l-0.1757812,0.7001953h-0.2744141l-0.7001953-0.3251953l-0.1748047-0.5498047
		c1.0498047-0.8251953,2.2998047-1.2246094,3.6992188-1.1494141l0.2001953-0.625l0.3496094-0.0996094
		c0.4003906,0.4990234,0.9746094,0.6494141,1.6748047,0.5498047l0.875-0.0751953l0.6494141,0.1494141
		c0.1748047,0.2998047,0.2246094,0.6748047,0.1748047,1.0751953l-0.4501953,0.2744141l-0.1748047-0.6240234l-0.8994141-0.1757812
		c-0.5751953-0.0742188-1.0751953,0.0751953-1.5,0.4501953L74.4668121,6.064775l0.0996094,0.2744141l-0.1748047,2.3994136
		c0.5,0.1748047,1.0996094,0.2246094,1.75,0.1748047l0.7998047-0.0751953l0.1748047,0.3251953
		c-0.875,0.25-1.75,0.5253906-2.6494141,0.8251953l-0.1748047,2.0996094l2.1240234,1.7988281l2.8242188,1.875l0.1005859,0.2753916
		l-0.375,0.0742188l-4.3994141-2.6738291c-0.1748047,0.2998047-0.25,0.625-0.1748047,0.9746094l0.1748047,1.5244141
		l-0.4492188,0.5253916L73.7422028,16.2122364z"/>
	<path class="st0" d="M80.7900543,13.8870401l2.3740234-2.7988281c0.7753906-0.8251953,1.4755859-1.6748047,2.125-2.5244141
		c0.6748047-0.8496089,1.1992188-1.7499995,1.6748047-2.7246089l-0.9003906-2.0488281l-0.25-0.0751953l-2.2988281,1.0498047
		l-0.5253906,0.3496094l-0.4248047-0.3496094v-0.25c1-0.6748047,2.0751953-1.1503906,3.2490234-1.5244141l0.1005859-0.4501953
		l-0.1005859-0.3496094l0.25-0.3750001h0.2753906l0.5498047,0.2744142l0.1748047,0.375l0.3496094,0.0751953
		c1.2998047-0.375,2.5996094-0.6748048,3.8740234-0.8994142l0.0751953-0.5253906l-0.0751953-0.4501953l0.5253906-0.25
		l0.5244141,0.25v0.5253906l-0.0742188,0.2744141c1.0996094,0.1757812,2.2236328,0.3505859,3.3486328,0.5253906l0.1005859,0.3750001
		l-0.3505859,0.4248047h-0.7998047l-0.25-0.3251953l-1.8740234-0.2001953
		c-0.4501953,0.8505859-0.8496094,1.7001953-1.1503906,2.5751953L91.0381012,4.939775l-0.1005859-0.625l0.2753906-1.7744141
		l-0.5498047-0.0751953c-1.1748047,0.2246094-2.3251953,0.5-3.4492188,0.875l-0.1503906,0.5244141l0.25,1.0751953h0.2753906
		l0.5996094-0.1748047c1.5996094,0.9746094,3.1992188,1.8994141,4.7988281,2.8242188
		c1.5742188,0.9248042,3.1240234,1.9746089,4.6484375,3.1738276l0.1005859,0.4248047l-0.4248047,0.2753906
		c-1.4248047-1.125-2.8994141-2.1494141-4.4248047-3.0742188c-1.5488281-0.9248042-3.0986328-1.7499995-4.6982422-2.4746089
		l-0.5996094,1.2744141c-1.0498047,1.2001948-2.1494141,2.3994136-3.2744141,3.6494136
		c-1.125,1.2246094-2.25,2.4248047-3.3740234,3.5742188L80.7900543,13.8870401z M84.4892731,17.0120411
		c0.7001953-1.2001963,1.5-2.3496103,2.2998047-3.4990244l0.6240234-0.1757812l0.4501953,0.1757812l0.0751953,0.3740234
		c-1.0996094,0.8251953-1.9746094,1.8251953-2.6494141,3.024415v0.2753906l0.0751953,0.3496094
		c-0.125,0.2246094-0.3251953,0.3251953-0.6005859,0.2753906C84.4638824,17.6370411,84.3642731,17.3616505,84.4892731,17.0120411z
		 M89.0879059,15.2874308l0.0751953-3.7246094l-0.4248047-0.2001953c-0.8251953,0.25-1.5996094,0.6005859-2.2998047,1
		l-0.2744141-0.5244141l0.7246094-0.6503906c0.75-0.125,1.4492188-0.3242188,2.1240234-0.6992188l0.3251953-1.5253906h0.5498047
		c0.1748047,0.375,0.25,0.7998047,0.1748047,1.25h0.6005859c0.7490234-0.2246094,1.5742188-0.3496094,2.3994141-0.3496094
		l0.0996094,0.4501953l-0.7246094,0.7744141h-0.4248047l-0.1005859-0.25l-0.5498047-0.0751953l-1.1494141,0.3251953
		l-0.3251953,0.4746094v3.9238281l0.1005859,0.7998056l-0.5498047,0.4501953L89.0879059,15.2874308z M93.3125153,14.1370401
		c-0.7001953-0.5244141-1.4746094-0.8496094-2.375-0.9746094l-0.0751953-0.3496094
		c0.2998047-0.25,0.625-0.3496094,1.0498047-0.2753906c0.7001953,0.3007812,1.4003906,0.6748047,2.0498047,1.1503906
		c0.625,0.4746094,1.2744141,0.9746094,1.9248047,1.4492188v0.4248047l-0.375,0.1005859
		C94.761734,15.1868448,94.0371246,14.6868448,93.3125153,14.1370401z"/>
	<path class="st0" d="M98.8916168,20.3860645c0.8496094-2.0742188,1.5244141-4.1992188,2.0498047-6.3232431
		c0.5244141-2.125,0.7998047-4.3496094,0.7998047-6.6738276c-0.2246094-0.8251953-0.3251953-1.7246094-0.25-2.6738281
		l0.5996094,0.0742188c1.4248047-0.6494141,2.8994141-1.1992188,4.4990234-1.6240234
		c1.5498047-0.4248047,3.1748047-0.625,4.7988281-0.7001953l1.6992188,0.5253906
		c0.2255859,2.5742188,0.6757812,5.0986323,1.2753906,7.6230464c0.625,2.4990234,1.6494141,4.8232422,3.0742188,6.9726572
		l-0.5498047,0.2753906c-1.4248047-2.1992197-2.4492188-4.524415-3.0498047-6.9238291
		c-0.5996094-2.4238281-1.0996094-4.9482417-1.4746094-7.4980464c-0.6494141-0.2998047-1.2998047-0.4492188-2.0244141-0.4492188
		c-1.3994141,0.25-2.7988281,0.5244141-4.1484375,0.7998047c-1.3496094,0.3242188-2.5996094,0.9248047-3.7246094,1.8242188
		l-0.2744141,0.875c0.1748047,1.0244141,0.25,2.0996089,0.1748047,3.2236323
		c-0.2998047,1.9248047-0.6748047,3.7744141-1.1503906,5.5986328c-0.4492188,1.8496103-1.0996094,3.5996103-1.8740234,5.3242197
		l-0.25,0.0996094L98.8916168,20.3860645z M104.3154449,16.7122364c0.9501953-0.5253906,1.9248047-0.9755869,2.9248047-1.3505869
		c0.9990234-0.3496094,2.0244141-0.6494141,3.0986328-0.8994141l0.0751953-0.4248047l-0.1748047-0.6494141l0.4501953-0.1757812
		l0.4492188,0.3505859c0.5253906,1.0244141,0.9003906,2.1240234,1.0751953,3.3242197h-0.2753906l-1.1494141-1.774415
		l-0.375-0.1005859c-1.0498047,0.1748047-2.0742188,0.4501953-3.0488281,0.8496094
		c-0.9755859,0.375001-1.9248047,0.7753916-2.875,1.2001963L104.3154449,16.7122364z M107.6894684,13.7620401l0.0751953-0.3740234
		l-0.0751953-0.2753906l0.0751953-0.25l-0.4501953-0.2744141c-0.3496094,0.25-0.7246094,0.3994141-1.1494141,0.4492188
		c-0.8251953-1.0742188-1.25-2.3242188-1.2998047-3.7734375c1-0.1757812,1.8994141-0.5498047,2.7246094-1.1748047
		l0.0996094-0.5253901l-0.1748047-0.625h-0.2744141c-0.7001953,0.5498047-1.4248047,1-2.1503906,1.4248042V8.0139933
		l0.5507812-0.6249995c0.8242188-0.8994141,1.7988281-1.5244141,2.9238281-1.8740234l0.1748047,0.4248047l-0.6992188,0.5498047
		v0.2744141l0.5244141,0.5253906l0.0996094,0.4746094c0.8251953-0.0751953,1.5253906,0.1748047,2.0253906,0.7998042
		l0.1992188,1.3496094l-0.1992188,0.7998047l0.2744141,0.4248047c-0.7246094,0.2998047-1.4492188,0.5751953-2.2246094,0.8251953
		l-0.4501953,1.5996094l0.1005859,0.375l-0.1748047,0.7998047l-0.25,0.0996094L107.6894684,13.7620401z M107.6894684,11.5130167
		l0.0751953-0.2744141l-0.25-2.25l-0.2744141-0.0751953l-1.2255859,0.9003906l-0.2744141,1.2246094l0.5244141,1.0996094h0.3505859
		C106.9902496,11.963212,107.3144684,11.7376261,107.6894684,11.5130167z M110.2392731,8.9134073l-0.5996094-0.5498047h-0.9003906
		l-0.4501953,1.4501953l0.1005859,0.3496094l-0.1005859,0.4501953l0.1757812,0.6992188h0.5498047l0.8994141-0.3242188
		C110.1894684,10.3636026,110.3144684,9.688798,110.2392731,8.9134073z"/>
	<path class="st0" d="M119.8574371,13.2874308c-0.3505859-0.8994141-0.625-1.8242188-0.8251953-2.7744141
		c-0.2246094-0.9492188-0.3251953-1.9492188-0.3251953-3.0244136l0.1757812-0.3740234
		c0.6494141-0.3505859,1.3740234-0.6005859,2.1494141-0.75c0.7490234-0.1503906,1.5488281-0.2255859,2.2988281-0.2255859
		l0.7246094,0.2753906c0.1757812,0.5751953,0.2255859,1.2246094,0.1757812,1.874023
		c-0.0751953,0.9003906-0.2255859,1.75-0.4501953,2.5996094l0.1748047,0.625l0.1748047,0.3496094
		c-1.3740234,0.2998047-2.6240234,0.875-3.8242188,1.7001953L119.8574371,13.2874308z M123.3310699,11.4134073l-0.0751953-1.1748047
		c0.2255859-1.0751953,0.3505859-2.1748047,0.3505859-3.2998042c-0.375-0.3496094-0.8496094-0.4746094-1.4248047-0.3496094
		c-0.8251953,0.0751953-1.5742188,0.375-2.2246094,0.9746094c-0.4248047,0.3251953-0.625,0.7001948-0.625,1.1748042
		c0.0751953,1.2998047,0.3251953,2.5244141,0.7998047,3.6738281l0.375,0.0751953l2.7490234-0.6992188L123.3310699,11.4134073z
		 M123.8564606,16.6116505c0.7998047-1.000001,1.6494141-1.9492197,2.5742188-2.8496103
		c0.8994141-0.8994141,1.8994141-1.7246094,2.9492188-2.5234375v-0.25l-0.1748047-0.8251953l-0.7998047-0.0996094
		c-0.8251953,0.3740234-1.6748047,0.7246094-2.5996094,1.0742188l-0.1503906-0.3496094
		c1.125-0.7246094,2.3251953-1.25,3.6494141-1.625c0.2998047-1,0.4501953-2.0488276,0.4501953-3.124023
		c-0.25-0.1748047-0.5253906-0.2246094-0.8251953-0.1748047l-1.5996094,0.5498047l-0.5,0.875l-0.4746094,0.0996094
		c-0.2998047-0.1748047-0.4248047-0.4501953-0.3496094-0.7998047c1.1240234-0.8994141,2.3994141-1.3496094,3.8242188-1.3496094
		l0.3496094-1.5h0.375l0.25,0.6005859l-0.1748047,0.7246094l0.5244141,0.1748047l0.9746094-0.0996094l0.4501953,0.4746094v0.25
		l-0.2753906,0.0751953c-0.3242188-0.3505859-0.7744141-0.4501953-1.2998047-0.3251953l-0.4492188,0.1748047l-0.5498047,3.1992183
		c0.5244141,0.1748047,1.1240234,0.25,1.7998047,0.1748047l0.2490234-0.0751953c0.4755859,0,0.8251953,0.1757812,1,0.5507812
		l-0.4746094,0.1748047l-1.5751953-0.1005859c-0.4248047,0-0.7744141,0.1748047-0.9990234,0.5253906l-0.0751953,0.6494141
		c-0.0751953,0.6503906,0.0996094,1.1748047,0.5244141,1.5996094c0.75,0.6503906,1.5751953,1.2246094,2.5,1.6494141
		c0.8994141,0.4755859,1.7490234,1,2.5742188,1.5751953l0.0751953,0.375001h-0.2753906
		c-0.875-0.5498056-1.7490234-1.0253916-2.6494141-1.500001c-0.8994141-0.4501953-1.7744141-0.8994141-2.6738281-1.375
		l-0.0751953,1.1503906l0.25,1.5498047l-0.3496094,0.1748056c-0.3505859-1.000001-0.5253906-2.125001-0.5253906-3.3242197
		l-0.375-0.0751953c-0.8994141,0.5751953-1.7490234,1.2744141-2.5742188,2.0498047
		c-0.8251953,0.7744141-1.625,1.5488291-2.3994141,2.3242197L123.8564606,16.6116505z"/>
</g>
<g>
	<g>
		<line class="st1" x1="1.5" y1="59.5955353" x2="1.5" y2="59.5955353"/>
		<path class="st2" d="M2.0904388,52.0071564c3.4493256-21.9418926,21.6177063-38.996582,44.0809174-40.7412109"/>
		<line class="st1" x1="49.9764557" y1="11.1189737" x2="49.9764557" y2="11.1189737"/>
	</g>
</g>
</svg>
