<?xml version="1.0" encoding="utf-8"?>
<!-- Generator: Adobe Illustrator 26.0.0, SVG Export Plug-In . SVG Version: 6.00 Build 0)  -->
<svg version="1.1" id="レイヤー_1" xmlns="http://www.w3.org/2000/svg" xmlns:xlink="http://www.w3.org/1999/xlink" x="0px"
	 y="0px" viewBox="0 0 166.7567139 100.5685272" style="enable-background:new 0 0 166.7567139 100.5685272;" xml:space="preserve">
<style type="text/css">
	.st0{fill:#ED5645;stroke:#ED5645;stroke-miterlimit:10;}
	
		.st1{fill:none;stroke:#ED5645;stroke-width:4;stroke-linecap:round;stroke-linejoin:round;stroke-miterlimit:10;stroke-dasharray:0,9.8431225;}
</style>
<g>
	<path class="st0" d="M0.546816,97.6476059c0.4804688-3.4794922,1.0800781-6.8789062,1.798828-10.2382812
		c0.7207031-3.359375,1.5605469-6.71875,2.5996094-10.078125l1-0.5595703l0.1601562,1.1591797l-0.2792969,0.7197266
		c1.5996094,2.6796875,3.4785156,5.2392578,5.6386719,7.6787109c2.1191406,2.4804688,4.2402344,4.8398438,6.3183594,7.1191406
		l0.8398438,0.1601562c0.5996094-1.6396484,1.1210938-3.3193359,1.5605469-4.9990234
		c0.4804688-1.6796875,0.6796875-3.4794922,0.5605469-5.3994141l-0.4414062-6.7587891l0.1601562-0.8398438
		c0.4804688,1.4394531,0.7597656,2.9199219,0.8808594,4.5195312c0.1191406,1.5996094,0.1992188,3.1591797,0.2792969,4.6787109
		c-0.0800781,1.9199219-0.3203125,3.7597656-0.7597656,5.4794922s-1,3.3994141-1.6796875,5.0390625l-0.5605469,0.1601562
		l-2.5585938-2.2001953l-1.2792969-1.9990234c-1.8007812-1.7197266-3.4804688-3.5595703-5.0390625-5.4794922
		c-1.5605469-1.9199219-3.0800781-3.7597656-4.5195312-5.5986328c-0.9199219,2.8789062-1.6796875,5.8789062-2.2402344,8.8779297
		c-0.5996094,3-1.1191405,6.0390625-1.5605468,9.0791016l0.2402344,1.0390625l-0.8398438,0.4003906
		C0.546816,99.0479965,0.4257222,98.3673325,0.546816,97.6476059z"/>
	<path class="st0" d="M24.4276752,97.727684c0.71875-3.3193359,1.6386719-6.5585938,2.6796875-9.7578125
		c1.078125-3.1601562,2.1582031-6.3193359,3.2792969-9.4785156l0.8789062-0.1201172l0.2792969,0.7197266l-0.1191406,0.6796875
		c0.5195312,1.9199219,1.1601582,3.7998047,1.9199238,5.6396484c0.6796875,1.8388672,1.4003906,3.71875,2.0390625,5.6386719
		l0.7207031,0.1601562c1.1992188-1.7998047,2.4394531-3.5996094,3.71875-5.359375
		c1.1992188-1.7597656,2.4003906-3.5195312,3.5195312-5.3193359l0.5605469-0.1601562
		c0.7597656,2.4804688,1.2792969,5.0400391,1.6386719,7.71875c0.359375,2.7197266,0.6796875,5.3994141,0.9609375,8.0791016
		c0,0.6396484-0.2402344,1.1601562-0.7207031,1.4394531c-0.4003906-2.4794922-0.7597656-4.9990234-1-7.5986328
		c-0.2792969-2.5195312-0.71875-5.0390625-1.3203125-7.4785156h-0.3984375
		c-1.1601562,1.6796875-2.28125,3.3994141-3.4394531,5.0791016c-1.2402344,1.7197266-2.4394531,3.4394531-3.6796875,5.1591797
		l-0.5605469,0.1601562c-0.9589844-1.9199219-1.7597656-3.8398438-2.3984375-5.7988281
		c-0.6816406-1.9599609-1.4414082-3.8798828-2.3203144-5.7998047h-0.5605469
		c-0.71875,2.8798828-1.6386719,5.7197266-2.5996094,8.4785156c-1,2.8398438-1.7597656,5.7197266-2.2382812,8.6386719
		l0.2792969,0.5605469l-0.6796875,0.1591797C24.4667377,98.7677231,24.3065815,98.2872543,24.4276752,97.727684z"/>
	<path class="st0" d="M51.066349,97.6476059c0.4804688-3.4794922,1.0800781-6.8789062,1.7988281-10.2382812
		c0.7207031-3.359375,1.5605469-6.71875,2.5996094-10.078125l1-0.5595703l0.1601562,1.1591797l-0.2792969,0.7197266
		c1.5996094,2.6796875,3.4785156,5.2392578,5.6386719,7.6787109c2.1191368,2.4804688,4.2402306,4.8398438,6.3183556,7.1191406
		l0.8398438,0.1601562c0.5996094-1.6396484,1.1210938-3.3193359,1.5605469-4.9990234
		c0.4804688-1.6796875,0.6796875-3.4794922,0.5605469-5.3994141l-0.4414062-6.7587891l0.1601562-0.8398438
		c0.4804688,1.4394531,0.7597656,2.9199219,0.8808594,4.5195312c0.1191406,1.5996094,0.1992188,3.1591797,0.2792969,4.6787109
		c-0.0800781,1.9199219-0.3203125,3.7597656-0.7597656,5.4794922s-1,3.3994141-1.6796875,5.0390625l-0.5605469,0.1601562
		l-2.5585938-2.2001953l-1.2792969-1.9990234c-1.8007774-1.7197266-3.4804649-3.5595703-5.0390587-5.4794922
		c-1.5605469-1.9199219-3.0800781-3.7597656-4.5195312-5.5986328c-0.9199219,2.8789062-1.6796875,5.8789062-2.2402344,8.8779297
		c-0.5996094,3-1.1191406,6.0390625-1.5605469,9.0791016l0.2402344,1.0390625l-0.8398438,0.4003906
		C51.066349,99.0479965,50.9452553,98.3673325,51.066349,97.6476059z"/>
	<path class="st0" d="M77.9140015,99.5675278c-0.5996094-1.7597656-0.9609375-3.6796875-1.1210938-5.6787109l0.1210938-1.5605469
		l-0.1210938-0.4394531l0.1210938-0.4404297c-0.1601562-2.8388672-0.359375-5.6787109-0.5605469-8.5185547
		c1.1191406-0.5595703,2.3203125-1.0390625,3.5605469-1.4394531l0.3984375-4.5595703l0.5996094-0.1191406
		c0.28125,0.4794922,0.4003906,1.0390625,0.28125,1.6796875l-0.1601562,2.7587891
		c0.5996094,0.2402344,1.2402344,0.3603516,2,0.2402344c0.2792969-1.7197266,0.5195312-3.4794922,0.71875-5.2392578
		l-0.8398438-0.4394531c-2.3984375,0.2001953-4.4785156,0.9599609-6.3984375,2.2792969l-0.1601562-0.8398438
		c0.4003906-0.5996094,0.8808594-0.9599609,1.5605469-1.1201172c1.1191406-0.2792969,2.2792969-0.5595703,3.5195312-0.8398438
		c1.1582031-0.2392578,2.3984375-0.3193359,3.7578125-0.1992188l1.9609375,0.2792969l0.1601562,0.7597656l-0.7207031,0.3603516
		c-0.4804688-0.3203125-1.0390625-0.4794922-1.6796875-0.3603516c-0.5195312,1.6005859-0.71875,3.2802734-0.5996094,5.1191406
		c1.0390625,0.5605469,2.0800781,1.0400391,3.1191406,1.4003906c0.2792969,1.3193359,0.4003906,2.6796875,0.3203125,4.1191406
		l-0.1601562,0.7197266l0.1601562,4.5595703c-0.2792969,2.4794922-0.8808594,4.5986328-1.7207031,6.5185547l-0.9980469-0.2802734
		c-2.28125,0.2001953-4.359375,0.7607422-6.2792969,1.7197266L77.9140015,99.5675278z M86.8710327,89.7286606l-0.1191406-2.6787109
		l0.1191406-0.4404297l-0.1191406-1.2792969l0.1191406-1.6796875l-0.3984375-0.6005859l-1.8808594-0.5195312
		c-0.2792969,0.6396484-0.3984375,1.359375-0.2792969,2.0791016c0.1992188,1.5605469,0.7597656,2.9599609,1.71875,4.3193359
		l-0.5996094,0.1201172c-1.5996094-1.9189453-2.359375-4.1591797-2.2382812-6.6787109l-1.7207031-0.1601562
		c-0.7597656,1.5205078-1,3.2792969-0.71875,5.2792969l0.4394531,2.2392578l-0.4394531,0.1601562
		c-0.7207031-1.7998047-1.0410156-3.7587891-0.8398438-5.9589844l0.1582031-0.8798828l-0.8789062-0.2392578l-1.4394531,1.1191406
		l-0.4003906,3.2792969l0.5605469,5.5595703l1.8398438,0.1601562L86.031189,92.32827h0.5605469L86.8710327,89.7286606z
		 M86.5917358,93.2882309c-0.5605469-0.5195312-1.2792969-0.7197266-2.1191406-0.5195312
		c-2.3203125,0.1601562-4.4785156,0.6796875-6.5585938,1.5595703l-0.1601562,1.3994141l0.5996094,2.7197266l1.1191406,0.1201172
		c2-0.5996094,4.1191406-0.8798828,6.4003906-0.9599609C86.1522827,96.1681137,86.3925171,94.7286606,86.5917358,93.2882309z
		 M97.031189,93.6085434c-1.28125-0.8398438-2.4804688-1.9199219-3.5996094-3.1191406
		c-1.2402344-1.2402344-2-2.5996094-2.28125-4.1601562c1.1210938-0.4394531,2.3613281-0.7998047,3.7207031-0.9990234
		c1.3203125-0.2001953,2.5996094-0.4804688,3.7988281-0.7998047c0.8808594-1.8398438,1.359375-3.7998047,1.4804688-5.8798828
		c-0.5195312-0.359375-1.1601562-0.5195312-1.8808594-0.4394531c-2,0.1201172-3.6796875,0.8798828-5.1191406,2.3193359
		l-0.8789062-0.4394531v-0.5605469c1.0800781-0.8798828,2.2402344-1.4394531,3.5585938-1.6396484
		c1.3203125-0.2392578,2.6796875-0.4394531,4-0.6396484l0.8398438,0.4404297
		c0.2792969,0.7998047,0.4003906,1.7197266,0.2792969,2.6787109l-0.9589844,3.8398438l0.6796875,0.3203125l0.1601562,0.5195312
		c-1.3203125,0.4003906-2.6796875,0.6796875-4.0390625,0.7998047c-1.4003906,0.1601562-2.7207031,0.4794922-3.9199219,1.0400391
		l-0.1601562,0.4394531c0.4003906,1.4404297,1.2402344,2.7197266,2.5605469,3.8798828l1.1582031,1.1191406l4.4003906,2.5595703
		c0.5996094-1.2392578,1.4785156-2.2792969,2.6796875-3.1591797l-1.9609375,3.9990234l-0.5996094,0.1601562
		C99.6307983,95.2081528,98.3495483,94.4884262,97.031189,93.6085434z"/>
	<path class="st0" d="M107.7577515,91.0890121c2.359375-2.7998047,4.7988281-5.4394531,7.3984375-8.0390625
		c2.5605469-2.5595703,5.1601562-5.0791016,7.7597656-7.4384766l1.8398438-0.7597656l0.4394531,1.2001953
		c2.2792969,1.3193359,4.5996094,2.8388672,6.8789062,4.5585938c2.1992188,1.7197266,4.4394531,3.4794922,6.5976562,5.3193359
		l0.1210938,1l-0.8398438,0.4394531c-1.4003906-1.359375-2.8398438-2.6796875-4.3203125-3.9189453
		c-1.5195312-1.2001953-2.9980469-2.3994141-4.5175781-3.5595703c-1.4414062-0.7197266-2.8398438-1.5195312-4.2402344-2.2792969
		l-0.7988281-0.8798828h-0.5605469c-2.5605469,2.2392578-5,4.5185547-7.3183594,6.8789062
		c-2.3203125,2.3994141-4.6796875,4.7988281-7.0390625,7.1982422l-0.5195312,0.5605469l-0.7207031,0.1191406L107.7577515,91.0890121
		z M120.7167358,96.8077621c-0.8808594-2.1191406-1.4414062-4.2792969-1.6796875-6.5986328l1.078125-0.2802734l0.8398438,0.2802734
		l4.2402344-1.4394531c1.7597656-0.0800781,3.359375,0.359375,4.7597656,1.2792969l0.1191406,1.0400391
		c-0.5605469,1.7197266-0.9589844,3.4794922-1.2402344,5.2792969l-0.71875,0.2792969
		c-0.3613281-0.359375-0.8007812-0.5195312-1.4003906-0.5195312l-5.4785156,1.1201172L120.7167358,96.8077621z
		 M119.2753296,85.9298325l0.4003906-0.5996094c1.5195312-0.6005859,3.1191406-0.9199219,4.7988281-1.1201172
		s3.359375-0.4404297,5.0390625-0.7197266l0.5605469,0.2792969l0.1601562,0.7207031l-1,0.9990234l-0.1191406-0.7197266h-0.8398438
		l-0.8398438,0.2802734l-0.5605469-0.1601562c-1.1992188,0.4003906-2.5195312,0.6396484-3.7988281,0.7197266
		c-1.3203125,0.1201172-2.4804688,0.6005859-3.5195312,1.4404297L119.2753296,85.9298325z M128.8339233,90.9288559
		c-0.7597656-0.7597656-1.6386719-1.1201172-2.6796875-1l-1.2792969,0.2802734l-0.4003906-0.1601562
		c-1.3183594,0.2802734-2.5195312,0.8798828-3.6796875,1.7597656l-0.078125,1.2802734l1.078125,2.4394531l1,0.1601562
		c1.5996094-0.4003906,3.2792969-0.640625,5.0390625-0.7607422
		C128.1952515,93.6085434,128.5546265,92.2882309,128.8339233,90.9288559z"/>
</g>
<path class="st1" d="M164.7567139,2c-51.1607437,0-92.6347122,27.3961716-92.6347122,61.1910629"/>
</svg>
