<?xml version="1.0" encoding="utf-8"?>
<!-- Generator: Adobe Illustrator 26.0.0, SVG Export Plug-In . SVG Version: 6.00 Build 0)  -->
<svg version="1.1" id="レイヤー_1" xmlns="http://www.w3.org/2000/svg" xmlns:xlink="http://www.w3.org/1999/xlink" x="0px"
	 y="0px" viewBox="0 0 242.3885956 88.8323746" style="enable-background:new 0 0 242.3885956 88.8323746;" xml:space="preserve">
<style type="text/css">
	.st0{fill:#FFFFFF;stroke:#FFFFFF;stroke-width:0.75;stroke-miterlimit:10;}
	.st1{fill:none;stroke:#FFFFFF;stroke-width:4;stroke-linecap:round;stroke-linejoin:round;}
	.st2{fill:none;stroke:#FFFFFF;stroke-width:4;stroke-linecap:round;stroke-linejoin:round;stroke-dasharray:0,7.854291;}
</style>
<g>
	<path class="st0" d="M92.2851562,25.2930698c0.7998047-1.1992188,1.4394531-2.4794922,1.9199219-3.8388672l-1.1601562-0.4003906
		c-2.1591797,0.3603516-4.1591797,1.2001953-5.9589844,2.3994141l-0.7597656-1.2792969
		c1.4794922-0.3603516,2.8798828-0.7998047,4.3193359-1.2001953c1.3994141-0.4394531,2.8798828-0.7197266,4.3994141-0.9199219
		c0.4794922-0.8398438,0.7197266-1.8798828,0.7197266-2.9990234l-0.7197266-0.4404297
		c-1.3203125,0.7597656-2.7597656,1.3203125-4.2792969,1.5595703l-0.2802734-0.7998047
		c1.7998047-0.7998047,3.5996094-1.3994141,5.3994141-1.8789062l0.1601562-2.9599609l-0.2802734-1.0400391l-0.7197266-0.1201172
		l-1.7197266,0.8398438l-0.5595703,1l-0.4404297,0.1201172l-1.2392578-0.5195312v-0.4404297l0.6796875-0.7197266
		c1.1992188-0.5595703,2.5195312-1.0400391,3.8388672-1.4394531l0.2802734-2.8398433l-0.7197266-0.2802734
		c-1.4003906,0.9599605-2.9199219,1.6406245-4.5195312,1.9999995l-0.3203125-0.8798828
		c1.2402344-0.7197261,2.5996094-1.3193355,4-1.679687V6.1368203l-2-1.8798828L91.765625,2.5772498h0.8798828
		c0.6396484,1.3193359,1.5996094,2.3994143,2.8388672,3.2392581h1.2402344
		c1.4394531-1.5996094,2.6396484-3.3593752,3.5595703-5.2392578l0.8798828-0.1601562l0.3994141,0.7197266
		c-0.9199219,1.2001952-1.9589844,2.4804688-3.1191406,3.7998047v0.4394531l2,0.1601562l3.2792969-0.1601562l0.1601562,0.6005859
		l-0.8798828,0.3994141c-0.5605469-0.2392578-1.2402344-0.359375-1.9599609-0.2392578l-3.4394531,0.3994141L97.484375,7.2559609
		l0.1201172,0.7197266c-0.2802734,0.5605464-0.5195312,1.1201167-0.7197266,1.7197261
		c1.4394531,0.3203125,2.9589844,0.5205078,4.5585938,0.5205078l0.1201172,0.5996094l-0.5195312,0.1601562l-2.7597656-0.1601562
		l-1.1201172,0.4404297c-0.2792969,1.1992188-0.3994141,2.5195312-0.2792969,3.9589844
		c1.1191406,0.3603516,2.3994141,0.5996094,3.71875,0.6396484c1.3203125,0.0400391,2.5996094,0.1601562,3.8398438,0.3603516
		l-7.2792969,0.2792969l-0.4394531,0.8798828l0.3203125,0.7998047l-0.7597656,1.4804688
		c1.1591797,0.1601562,2.3193359,0.2792969,3.4384766,0.3994141l0.8798828-0.1601562
		c2.2802734,0,4.3193359,0.3603516,6.2392578,1.0400391l-0.4394531,0.1201172c-1.7597656,0.1201172-3.4794922,0-5.2392578-0.4394531
		l-0.5605469,0.1591797l-0.4394531-0.1591797c-1.7998047-0.2001953-3.359375,0.1591797-4.6796875,0.9990234l-0.1591797,0.4404297
		c1.1191406,1.1201172,2.4794922,2.1191406,3.9990234,2.8398438c2.1591797,0.7597656,4.3994141,1.4794922,6.6787109,2.1191406
		l-0.2802734,0.3203125l-4.4384766-1.2802734l-0.6806641-0.2792969l-0.8798828,0.1191406l-5.2382812-2.5595703
		c-0.6005859,1.1601562-1.2802734,2.1601562-2.0800781,3.0400391c-0.8398438,0.9199219-1.7197266,1.7998047-2.7998047,2.6396484
		C90.6054688,27.8126011,91.4453125,26.5333042,92.2851562,25.2930698z"/>
	<path class="st0" d="M110.7431641,25.6133823c2-2.0800781,4.0390625-4.1191406,6.1992188-6.0390625
		c2.0791016-1.9599609,4.0791016-3.9199219,5.9990234-5.9189453h0.4394531l1.1201172,0.5595703l0.2802734,0.8398438
		c2.3994141,1,4.71875,1.9199219,7.0380859,2.8798828c2.2802734,0.9599609,4.5595703,2.1191406,6.71875,3.5195312
		l0.1601562,0.5996094l-1,0.2802734c-2.2792969-1.6005859-4.71875-2.8798828-7.2783203-3.8798828
		c-2.6396484-0.9199219-5.1992188-1.8798828-7.7587891-2.7998047l-11.4775391,10.6787109L110.7431641,25.6133823z
		 M113.9824219,10.0958042l-0.2402344-1.4394531l0.5205078-0.2802734l1.3193359,0.4394531
		c1.2001953-0.9589839,2.5195312-1.639648,3.9599609-2.039062c1.3994141-0.3603516,2.8388672-0.5996094,4.3994141-0.7998047
		l0.1191406-0.4404297c-1.0390625-0.8398438-1.5595703-1.9589846-1.5595703-3.2792971l0.6005859-0.439453
		c0.5595703,1.439453,1.3193359,2.7587891,2.3994141,3.8789062l0.5595703,0.1201172l5.1191406-0.7197266
		c1.6796875,0,3.2392578,0.359375,4.6396484,1.0400391l0.1591797,0.9589844l-1.3994141,1.8798823h-1l1.1201172-1.5996089V6.936625
		C133.1796875,6.296,131.5,6.0567422,129.6201172,6.2559609c-2.0800781,0.4404297-4.1992188,0.7607422-6.359375,0.9599609
		c-2.1992188,0.2001953-4.1992188,0.7998042-5.9589844,1.8798823l-0.4394531,1h-0.5996094l-0.5605469-0.3203125v0.7597656
		l1,0.9599609v0.4404297l-1,0.1601562C114.9824219,11.4952183,114.3828125,10.8555698,113.9824219,10.0958042z
		 M115.3027344,17.2149448c0.9199219-1.4404297,1.9990234-2.8398438,3.2792969-4.1992188
		c1.1992188-1.4003906,2.359375-2.7197266,3.5195312-4.0400391h0.6796875l0.8798828,0.7197266l-1.6796875,1.5605469
		l-2.3193359,1.9589844c-1.2001953,1.6796875-2.6396484,3.2392578-4.2392578,4.7197266L115.3027344,17.2149448z
		 M123.1015625,25.6133823c-1.0400391-1.4404297-1.7197266-2.9599609-2-4.5595703l0.5595703-0.8798828
		c1.1201172-0.7197266,2.359375-1.1992188,3.7197266-1.3994141c1.3193359,0.1201172,2.4794922,0.4394531,3.5195312,0.9599609
		l0.5595703,2.4394531l-0.1601562,2.7197266l0.1601562,0.4394531c-1.7998047,0.4804688-3.6396484,0.8798828-5.5185547,1.1201172
		L123.1015625,25.6133823z M128.3398438,21.4542027l-0.4394531-0.9599609
		c-0.7197266-0.4003906-1.5996094-0.5605469-2.5195312-0.4404297l-0.4404297,0.1201172l-0.5996094-0.1201172l-1.3994141,1.3203125
		l-0.1601562,1.3994141l1.1601562,1.9599609h3.9589844C128.2998047,23.8135777,128.4599609,22.7334995,128.3398438,21.4542027z
		 M133.0195312,14.0948277l-6.2392578-3.1191406l-0.2792969-0.8798828c0.359375-0.2802734,0.7998047-0.4003906,1.2392578-0.3203125
		c1.0800781,0.7998047,2.1601562,1.4804688,3.2792969,2c1.1601562,0.5996094,2.2001953,1.2402344,3.2392578,2l0.1601562,0.7597656
		l-0.6796875,0.3994141L133.0195312,14.0948277z"/>
	<path class="st0" d="M145.4619141,20.053812c-0.5595703-1.5996094-1.0400391-3.2392578-1.4394531-4.8388672
		c-0.4404297-1.5996094-0.7207031-3.3193359-0.7998047-5.1191406c-0.1201172-1.4394531,0.1591797-2.639648,0.8398438-3.7197261
		l0.3994141-0.1201172l0.1601562,0.6806641l-0.4003906,3.5986323c0.1601562,2.0800781,0.5205078,4.0800781,1.1201172,5.9589844
		c0.5595703,1.9199219,1.3203125,3.7197266,2.359375,5.3994141l0.7197266,0.1601562l0.4404297-0.1601562v1.0400391
		l-0.4404297,0.5195312h-0.5595703C146.9414062,22.4141636,146.1015625,21.2940464,145.4619141,20.053812z M158.5,16.2149448
		c-1.1201172-0.6796875-2.3603516-1.3603516-3.5595703-2l-0.1601562-0.7197266l1.2802734-0.2802734l0.5595703,0.7197266
		c1.0400391,0.6005859,2.0791016,1.1601562,3.1191406,1.8398438c1.0800781,0.640625,2.0800781,1.2802734,3.0800781,1.8798828
		l0.1591797,0.5195312c-0.2792969,0.2802734-0.6396484,0.4003906-1.1191406,0.3203125
		C160.7392578,17.654398,159.6191406,16.8545933,158.5,16.2149448z M155.0605469,7.8165078l1-1l3.5185547-0.8398438l2,0.6796875
		l0.1601562,0.7197266l-0.5996094,0.1601562c-0.5605469-0.5996094-1.2802734-0.7998047-2.0800781-0.5996094l-2.4394531,1.1591792
		c-0.2001953,0.4804688-0.5205078,0.7597656-0.9599609,0.8798828
		C155.1806641,8.7764683,154.9804688,8.3760777,155.0605469,7.8165078z"/>
	<path class="st0" d="M175.0576172,25.3331089c-0.6796875-1.3193359-1.1591797-2.7597656-1.4394531-4.359375
		c-0.2802734-1.5595703-0.5595703-3.0791016-0.8398438-4.5986328l-0.5595703-0.1601562l-2.1201172,0.7197266l-0.4394531-0.7197266
		c0.9589844-0.6005859,1.9990234-0.9599609,3.1191406-1.1601562l0.3994141-5.1191406l-1.1191406-0.3994141
		c-0.9599609,0.1591797-1.8398438,0.4394531-2.7197266,0.8398438c-0.3203125-0.1201172-0.4804688-0.4003906-0.3603516-0.8398438
		c1.2802734-0.4804688,2.6796875-0.7998047,4.1992188-1l0.8398438-3.5996089h0.7207031l0.1591797,1.2001953l-0.4394531,2.3994136
		c1.3193359,0.359375,2.7197266,0.7597656,4.1191406,1.1591797l0.1601562,0.4003906l-0.4404297,0.2802734
		c-0.9199219-0.4003906-1.9990234-0.6005859-3.1191406-0.6005859l-1,0.4404297l-0.3994141,4.3193359l1.1191406,0.1201172
		l4-0.2802734l0.1201172,0.3994141c-1.8798828,0-3.5195312,0.6005859-5,1.7197266L173.9375,16.9346714
		c0.1601562,1.5996094,0.4003906,3.1591797,0.6806641,4.6787109c0.2792969,1.5205078,1,2.9199219,2.1191406,4.1601562
		l0.8398438,0.2792969c1.4404297-1.0791016,2.8798828-2.1992188,4.2392578-3.4394531
		c1.3603516-1.2392578,2.5595703-2.5595703,3.7197266-3.9990234v-0.6796875l-0.1201172-0.4404297l0.5195312-0.1201172
		l0.4404297,0.7998047c-0.7998047,1.6005859-2.0400391,3.1601562-3.5595703,4.5996094
		c-0.9199219,0.8398438-1.8398438,1.7597656-2.7197266,2.6796875c-0.9199219,0.9599609-2.0390625,1.4394531-3.359375,1.4394531
		L175.0576172,25.3331089z"/>
	<path class="st0" d="M196.8623047,22.6133823c-0.5996094-1.4394531-1.0800781-2.9589844-1.3994141-4.5986328v-6.1191406
		l1.5595703-0.1601562l0.1201172,0.8798828c-0.3603516,1.0400391-0.6005859,2.1591797-0.7197266,3.4394531l0.1591797,0.5195312
		l-0.1591797,0.7207031c0.1992188,1.359375,0.5195312,2.5986328,0.9589844,3.7988281
		c0.4003906,1.2001953,1,2.359375,1.7197266,3.5195312l1.8398438,0.2402344v0.4394531
		c-0.4394531,0.5205078-1,0.7197266-1.6796875,0.5996094C198.1425781,25.0127964,197.3417969,23.9336948,196.8623047,22.6133823z
		 M212.2197266,17.1749058c-0.3994141-2-0.7998047-4.0400391-1.2001953-5.9990234l1.3203125-0.1201172
		c0.1601562,1.9599609,0.4794922,3.8789062,0.9199219,5.7988281c0.4394531,1.9199219,0.8398438,3.8398438,1.3193359,5.7587891
		l-0.6796875,0.2802734C213.1396484,21.0938511,212.5400391,19.1739292,212.2197266,17.1749058z"/>
	<path class="st0" d="M224.2294922,22.6133823c-0.5996094-1.4394531-1.0800781-2.9589844-1.3994141-4.5986328v-6.1191406
		l1.5595703-0.1601562l0.1201172,0.8798828c-0.3603516,1.0400391-0.6005859,2.1591797-0.7197266,3.4394531l0.1591797,0.5195312
		l-0.1591797,0.7207031c0.1992188,1.359375,0.5195312,2.5986328,0.9589844,3.7988281
		c0.4003906,1.2001953,1,2.359375,1.7197266,3.5195312l1.8398438,0.2402344v0.4394531
		c-0.4394531,0.5205078-1,0.7197266-1.6796875,0.5996094C225.5097656,25.0127964,224.7089844,23.9336948,224.2294922,22.6133823z
		 M239.5869141,17.1749058c-0.3994141-2-0.7998047-4.0400391-1.2001953-5.9990234l1.3203125-0.1201172
		c0.1601562,1.9599609,0.4794922,3.8789062,0.9199219,5.7988281c0.4394531,1.9199219,0.8398438,3.8398438,1.3193359,5.7587891
		l-0.6796875,0.2802734C240.5068359,21.0938511,239.9072266,19.1739292,239.5869141,17.1749058z"/>
</g>
<g>
	<g>
		<line class="st1" x1="2" y1="86.8323746" x2="2" y2="86.8323746"/>
		<path class="st2" d="M2.4345703,78.989357c3.7558594-33.6884727,31.4206543-60.1564941,65.6384277-62.048584"/>
		<line class="st1" x1="72" y1="16.8323765" x2="72" y2="16.8323765"/>
	</g>
</g>
</svg>
