<?xml version="1.0" encoding="utf-8"?>
<!-- Generator: Adobe Illustrator 26.0.0, SVG Export Plug-In . SVG Version: 6.00 Build 0)  -->
<svg version="1.1" id="レイヤー_1" xmlns="http://www.w3.org/2000/svg" xmlns:xlink="http://www.w3.org/1999/xlink" x="0px"
	 y="0px" viewBox="0 0 181.0100098 68.7875214" style="enable-background:new 0 0 181.0100098 68.7875214;" xml:space="preserve">
<style type="text/css">
	.st0{fill:#ED5645;stroke:#ED5645;stroke-miterlimit:10;}
	
		.st1{fill:none;stroke:#ED5645;stroke-width:4;stroke-linecap:round;stroke-linejoin:round;stroke-miterlimit:10;stroke-dasharray:0,8;}
</style>
<g>
	<path class="st0" d="M67.2934723,24.1093292l1.3203125,2.1191406l0.4003906,0.1601562
		c0.4804688-1.9990234,0.6796875-4.0791016,0.5605469-6.2783203l-0.5605469-0.2802734
		c-1.1191406,0.3994141-2.2402344,0.8798828-3.4003906,1.3994141l-0.71875-0.2792969v-0.5205078
		c1.3183594-1,2.7988281-1.6396484,4.3984375-1.9990234l0.4394531-2.5595713l-0.1582031-0.6005859
		c0.4394531-2.1191406,0.3984375-4.1992188-0.1210938-6.2382812l-0.5605469-0.1601562
		c-1.2382812,0-2.2792969,0.359375-3.1582031,1.1591797l-0.8398438,0.8398438
		c-0.5605469-0.0791016-0.8007812-0.3994141-0.7207031-0.9990234c0.5996094-0.7207031,1.2792969-1.3203125,2-1.7197266
		l3.1191406-0.5605464l0.1601562-1.1591797L69.133316,4.0722194l0.7597656-0.1591799l0.5605469,0.2792971
		c0.359375,0.5605469,0.5195312,1.2001953,0.4003906,1.8398438l-0.1601562,1.2802734l0.71875,0.2792969l2.1601562-0.2792969
		l0.28125,0.8398433L73.133316,8.8720236h-0.4394531l-0.9609375-0.2802734
		c-0.7597656,1.3203125-1.0800781,2.7998047-0.9199219,4.4794922c0.1210938,1.6796875,0.0410156,3.2392588-0.1992188,4.75879
		l0.5195312,0.2802734l2.8398438-0.4404297l0.1191406,0.4404297c-1.1191406,0.4003906-2.1582031,0.8398438-3.2382812,1.2792969
		l-0.2402344,1.0400391l0.0800781,2.8398438c0,2.1591797-0.4394531,4.1992188-1.4003906,6.0791016l-0.5585938,0.2792969
		C67.8950348,27.9481964,67.414566,26.0692902,67.2934723,24.1093292z M82.3325348,25.8290558l-0.2402344-4.1591797h-0.4414062
		l-2.2792969,1.5996094l-2.2382812,2.1191406l-0.1601562,0.5605469h-1l-0.1601562-0.6796875
		c0.8789062-1.1201172,1.8789062-2.2001953,3.0390625-3.1601562c1.1191406-0.9599609,2.1601562-1.8798828,3.2402344-2.8789062
		l0.1191406-3.2402353l-1.2792969-0.1191406c-0.8398438,0.4394541-1.7597656,0.7197275-2.6796875,0.8398447l-0.4394531-0.8398447
		l0.2792969-0.6005859l4-1c0.3203125-2.1591797,0.4785156-4.3984375,0.3984375-6.6787105l-0.5585938-0.2792969L78.8130035,8.152297
		l-0.28125,1.1191406h-0.4394531l-1.1191406-0.5195312l-0.28125-0.8798823
		c1.6796875-1.3193359,3.6796875-1.9599609,5.9199219-1.8398438l0.3203125-1l0.5585938-0.1601562
		c0.640625,0.8007812,1.5605469,1.0400391,2.6796875,0.8798828l1.4003906-0.1191406l1.0390625,0.2392578
		c0.28125,0.4804688,0.3613281,1.0800781,0.28125,1.7197266l-0.7207031,0.4404292l-0.2792969-0.9999995l-1.4394531-0.2802734
		c-0.9199219-0.1201172-1.7207031,0.1201172-2.4003906,0.7197266l-0.5605469,2.1201167l0.1601562,0.4394531l-0.2792969,3.8398438
		c0.7988281,0.2802734,1.7597656,0.3603516,2.7988281,0.2802734l1.28125-0.1201172l0.2792969,0.5195312
		c-1.4003906,0.4003906-2.7988281,0.8398438-4.2402344,1.3203125l-0.2792969,3.359376l3.4003906,2.8789062l4.5175781,3
		l0.1601562,0.4394531l-0.5996094,0.1201172l-7.0390625-4.2792969c-0.2792969,0.4804688-0.3984375,1-0.2792969,1.5595703
		l0.2792969,2.4394531l-0.71875,0.8398438L82.3325348,25.8290558z"/>
	<path class="st0" d="M93.3110504,22.1093292l3.7988281-4.4785156c1.2402344-1.3203125,2.359375-2.6796885,3.4003906-4.04004
		c1.0800781-1.359375,1.9199219-2.7988281,2.6796875-4.359375l-1.4414062-3.2792964l-0.3984375-0.1201172l-3.6796875,1.6796875
		l-0.8398438,0.5605464l-0.6796875-0.5605464V7.1122584c1.5996094-1.0800781,3.3183594-1.8398438,5.1992188-2.4394531
		l0.1601562-0.7197268l-0.1601562-0.5605469l0.3984375-0.5996094h0.4414062l0.8789062,0.4394531l0.2792969,0.6005859
		l0.5605469,0.1201172c2.0800781-0.6005859,4.1601562-1.0800781,6.1992188-1.4404297l0.1191406-0.8398436l-0.1191406-0.7197266
		l0.8398438-0.3994141l0.8398438,0.3994141v0.8398438l-0.1191406,0.4404296
		c1.7597656,0.2792969,3.5585938,0.5595703,5.3574219,0.8398438l0.1601562,0.5996094l-0.5585938,0.6796877h-1.28125
		l-0.3984375-0.5195315l-3-0.3203125c-0.7207031,1.3593752-1.359375,2.7197268-1.8398438,4.1191406l-0.4003906,0.1601562
		l-0.1601562-1l0.4414062-2.8388674l-0.8808594-0.1201172c-1.8789062,0.3593752-3.71875,0.7998049-5.5195312,1.3994143
		l-0.2402344,0.8398438l0.4003906,1.7197266h0.4394531l0.9609375-0.2802734
		c2.5585938,1.5605464,5.1191406,3.0400386,7.6777344,4.5195308c2.5195312,1.4794922,5,3.1591797,7.4394531,5.0791025
		l0.1601562,0.6796875l-0.6796875,0.4404297c-2.2792969-1.7998047-4.6386719-3.4394541-7.078125-4.9189463
		c-2.4804688-1.4804688-4.9609375-2.7998047-7.5195312-3.9599609l-0.9609375,2.0400391
		c-1.6796875,1.9199219-3.4394531,3.8388672-5.2382812,5.8388681c-1.7988281,1.9599609-3.5996094,3.8789062-5.3984375,5.71875
		L93.3110504,22.1093292z M99.2290192,27.1083527c1.1210938-1.9189453,2.4003906-3.7587891,3.6796875-5.5986328l1-0.2802734
		l0.7207031,0.2802734l0.1191406,0.5996094c-1.7597656,1.3203125-3.1582031,2.9199219-4.2382812,4.8398438v0.4394531
		l0.1191406,0.5595703c-0.1992188,0.3603516-0.5195312,0.5205078-0.9589844,0.4404297
		C99.1899567,28.1083527,99.0298004,27.6688995,99.2290192,27.1083527z M106.5883942,24.3495636l0.1210938-5.9589844
		l-0.6816406-0.3203125c-1.3183594,0.4003906-2.5585938,0.9599609-3.6777344,1.5996094l-0.4414062-0.8398438l1.1601562-1.0400391
		c1.1992188-0.1992188,2.3203125-0.5195312,3.4003906-1.1191406l0.5195312-2.4394541h0.8789062
		c0.28125,0.5996094,0.4003906,1.2792969,0.28125,1.9990244h0.9589844c1.1992188-0.359376,2.5195312-0.5595713,3.8398438-0.5595713
		l0.1601562,0.7197275l-1.1601562,1.2402344h-0.6796875l-0.1601562-0.4003906l-0.8808594-0.1201172l-1.8378906,0.5205078
		l-0.5214844,0.7597656v6.2783203l0.1601562,1.2802734l-0.8789062,0.7197266L106.5883942,24.3495636z M113.3481598,22.5097198
		c-1.1210938-0.8398438-2.3613281-1.3603516-3.8007812-1.5595703l-0.1191406-0.5605469
		c0.4804688-0.3994141,1-0.5595703,1.6796875-0.4394531c1.1191406,0.4794922,2.2402344,1.0800781,3.2792969,1.8398438
		c1,0.7597656,2.0390625,1.5595703,3.0800781,2.3193359v0.6796875l-0.5996094,0.1601562
		C115.6665192,24.1894073,114.5063629,23.3896027,113.3481598,22.5097198z"/>
	<path class="st0" d="M121.9555817,32.5077667c1.359375-3.3193359,2.4394531-6.71875,3.2792969-10.1181641
		s1.2792969-6.9589853,1.2792969-10.6787119c-0.359375-1.3193359-0.5195312-2.7587891-0.4003906-4.2792964l0.9609375,0.1201172
		c2.2792969-1.0390625,4.6386719-1.9189453,7.1972656-2.5996094c2.4804688-0.6796875,5.0800781-0.9990237,7.6796875-1.1191409
		l2.71875,0.839844c0.3613281,4.1191401,1.0800781,8.1582031,2.0410156,12.1972656c1,4,2.6386719,7.71875,4.9179688,11.1582031
		l-0.8789062,0.4404297c-2.2792969-3.5195312-3.9199219-7.2392578-4.8789062-11.078125
		c-0.9609375-3.8798838-1.7597656-7.9189463-2.359375-11.9980469c-1.0410156-0.4804688-2.0800781-0.7197266-3.2402344-0.7197266
		c-2.2402344,0.3994141-4.4785156,0.8398438-6.6386719,1.2792969c-2.1601562,0.5205078-4.1601562,1.4794922-5.9589844,2.9199214
		l-0.4394531,1.3994141c0.2792969,1.6396484,0.3984375,3.359375,0.2792969,5.1591797
		c-0.4804688,3.0800791-1.0800781,6.0390635-1.8398438,8.9589853c-0.7207031,2.9589844-1.7597656,5.7587891-3,8.5185547
		l-0.3984375,0.1591797L121.9555817,32.5077667z M130.633316,26.6288605
		c1.5195312-0.8398438,3.0800781-1.5595703,4.6796875-2.1591797c1.5996094-0.5605469,3.2382812-1.0400391,4.9589844-1.4404297
		l0.1191406-0.6796875l-0.2792969-1.0400391l0.7207031-0.2792969l0.71875,0.5595703
		c0.8398438,1.6396484,1.4394531,3.3994141,1.7207031,5.3193359h-0.4414062l-1.8378906-2.8398438l-0.6015625-0.1601562
		c-1.6796875,0.2802734-3.3183594,0.7197266-4.8789062,1.3603516c-1.5585938,0.5996094-3.078125,1.2392578-4.5996094,1.9189453
		L130.633316,26.6288605z M136.0317535,21.9101105l0.1210938-0.6005859l-0.1210938-0.4394531l0.1210938-0.4003906
		l-0.7207031-0.4394531c-0.5585938,0.3994141-1.1601562,0.6396484-1.8398438,0.7197266
		c-1.3183594-1.7197266-1.9980469-3.7197266-2.078125-6.0390635c1.5996094-0.2802734,3.0390625-0.8798828,4.359375-1.8798828
		l0.1582031-0.8398438l-0.2792969-1h-0.4394531c-1.1191406,0.8798828-2.2792969,1.5996094-3.4394531,2.2802734v-0.5605469
		l0.8789062-1c1.3203125-1.4394531,2.8808594-2.4394531,4.6796875-2.9990234l0.2792969,0.6796875l-1.1191406,0.8798828v0.4404297
		l0.8398438,0.8398438l0.1601562,0.7597656c1.3203125-0.1201172,2.4394531,0.2792969,3.2402344,1.2792969l0.3183594,2.1601562
		l-0.3183594,1.2792978l0.4394531,0.6796875c-1.1601562,0.4804688-2.3203125,0.9199219-3.5605469,1.3203125l-0.71875,2.5595703
		l0.1601562,0.5996094l-0.28125,1.2802734l-0.3984375,0.1601562L136.0317535,21.9101105z M136.0317535,18.3105011
		l0.1210938-0.4404297l-0.4003906-3.5996103l-0.4394531-0.1191406l-1.9589844,1.4394531l-0.4414062,1.9599619l0.8398438,1.7597656
		h0.5605469C134.9126129,19.0302277,135.4321442,18.6698761,136.0317535,18.3105011z M140.1118317,14.1513205l-0.9589844-0.8798828
		h-1.4414062l-0.71875,2.3193359l0.1601562,0.5595713l-0.1601562,0.7197266l0.2792969,1.1201172h0.8808594l1.4394531-0.5195312
		C140.0317535,16.4706573,140.2309723,15.3905783,140.1118317,14.1513205z"/>
	<path class="st0" d="M155.2055817,21.1493683c-0.5605469-1.4394531-1-2.9189453-1.3203125-4.4384766
		c-0.359375-1.5205088-0.5195312-3.1201181-0.5195312-4.8398447l0.2792969-0.5996094
		c1.0410156-0.5595703,2.2011719-0.9599609,3.4394531-1.2001953c1.2011719-0.2392578,2.4804688-0.359375,3.6796875-0.359375
		l1.1601562,0.4394531c0.2792969,0.9199219,0.359375,1.9599609,0.2792969,3
		c-0.1191406,1.4394531-0.359375,2.7988281-0.71875,4.1591806l0.2792969,1l0.28125,0.5595703
		c-2.2011719,0.4804688-4.1992188,1.3994141-6.1191406,2.7197266L155.2055817,21.1493683z M160.7641754,18.1503448
		l-0.1191406-1.8798828c0.359375-1.7197275,0.5605469-3.4794931,0.5605469-5.2792978
		c-0.6015625-0.5595703-1.3613281-0.7597656-2.28125-0.5595703c-1.3183594,0.1201172-2.5195312,0.5996094-3.5585938,1.5595703
		c-0.6796875,0.5205078-1,1.1201172-1,1.8798828c0.1210938,2.0791016,0.5195312,4.0390635,1.2792969,5.8789072l0.5996094,0.1201172
		l4.4003906-1.1201172L160.7641754,18.1503448z M161.6040192,26.4687042c1.28125-1.5996094,2.640625-3.1191406,4.1191406-4.5585938
		c1.4414062-1.4404297,3.0410156-2.7597656,4.7207031-4.0400391v-0.3994141l-0.28125-1.3203125l-1.2792969-0.1601572
		c-1.3203125,0.6005869-2.6796875,1.1601572-4.1582031,1.7197275l-0.2402344-0.5595703
		c1.7988281-1.1601572,3.71875-2.000001,5.8378906-2.5996103c0.4804688-1.5996094,0.7207031-3.2792969,0.7207031-4.9990234
		c-0.4003906-0.2802734-0.8398438-0.3603516-1.3203125-0.2802734l-2.5585938,0.8798828l-0.8007812,1.4003906l-0.7597656,0.1591797
		c-0.4804688-0.2792969-0.6796875-0.7197266-0.5605469-1.2792969c1.8007812-1.4394531,3.8398438-2.1591797,6.1191406-2.1591797
		l0.5605469-2.4003901h0.5996094l0.4003906,0.9599609l-0.28125,1.1601562l0.8398438,0.280273l1.5605469-0.1601562
		l0.7207031,0.7597656v0.3994141l-0.4414062,0.1201172c-0.5195312-0.5595703-1.2382812-0.7197266-2.078125-0.5195312
		l-0.7207031,0.2792969l-0.8789062,5.1191406c0.8398438,0.2802734,1.7988281,0.4003906,2.8789062,0.2802734l0.4003906-0.1201172
		c0.7597656,0,1.3183594,0.2802734,1.5996094,0.8798828l-0.7597656,0.2802734l-2.5195312-0.1601562
		c-0.6796875,0-1.2402344,0.2802734-1.5996094,0.8398447l-0.1210938,1.0400391
		c-0.1191406,1.0400391,0.1601562,1.8798828,0.8398438,2.5595703c1.1992188,1.0400391,2.5195312,1.9599609,4,2.6396484
		c1.4394531,0.7597656,2.7988281,1.5996094,4.1191406,2.5195312l0.1191406,0.5996094h-0.4394531
		c-1.4003906-0.8798828-2.7988281-1.6396484-4.2382812-2.3994141c-1.4414062-0.7197266-2.8398438-1.4394531-4.2792969-2.1992188
		l-0.1210938,1.8388672l0.4003906,2.4794922l-0.5605469,0.2802734c-0.5585938-1.5996094-0.8398438-3.3994141-0.8398438-5.3193359
		l-0.5996094-0.1191406c-1.4394531,0.9189453-2.7988281,2.0390625-4.1191406,3.2792969
		c-1.3203125,1.2392578-2.5996094,2.4794922-3.8398438,3.71875L161.6040192,26.4687042z"/>
</g>
<path class="st1" d="M2,66.7875214C2.0000005,40.0147095,23.7036514,18.31106,50.4764595,18.3110619"/>
</svg>
